G04 EAGLE Gerber RS-274X export*
G75*
%MOMM*%
%FSLAX34Y34*%
%LPD*%
%INBottom Copper*%
%IPPOS*%
%AMOC8*
5,1,8,0,0,1.08239X$1,22.5*%
G01*
%ADD10C,1.879600*%
%ADD11R,2.032000X2.032000*%
%ADD12C,2.032000*%
%ADD13R,1.800000X1.800000*%
%ADD14C,1.800000*%
%ADD15R,2.000000X2.000000*%
%ADD16C,2.000000*%
%ADD17R,1.530000X1.530000*%
%ADD18C,1.530000*%
%ADD19C,3.000000*%
%ADD20C,2.000000*%

G36*
X989098Y10164D02*
X989098Y10164D01*
X989117Y10162D01*
X989219Y10184D01*
X989321Y10200D01*
X989338Y10210D01*
X989358Y10214D01*
X989447Y10267D01*
X989538Y10316D01*
X989552Y10330D01*
X989569Y10340D01*
X989636Y10419D01*
X989708Y10494D01*
X989716Y10512D01*
X989729Y10527D01*
X989768Y10623D01*
X989811Y10717D01*
X989813Y10737D01*
X989821Y10755D01*
X989839Y10922D01*
X989839Y989078D01*
X989836Y989098D01*
X989838Y989117D01*
X989816Y989219D01*
X989800Y989321D01*
X989790Y989338D01*
X989786Y989358D01*
X989733Y989447D01*
X989684Y989538D01*
X989670Y989552D01*
X989660Y989569D01*
X989581Y989636D01*
X989506Y989708D01*
X989488Y989716D01*
X989473Y989729D01*
X989377Y989768D01*
X989283Y989811D01*
X989263Y989813D01*
X989245Y989821D01*
X989078Y989839D01*
X10922Y989839D01*
X10902Y989836D01*
X10883Y989838D01*
X10781Y989816D01*
X10679Y989800D01*
X10662Y989790D01*
X10642Y989786D01*
X10553Y989733D01*
X10462Y989684D01*
X10448Y989670D01*
X10431Y989660D01*
X10364Y989581D01*
X10292Y989506D01*
X10284Y989488D01*
X10271Y989473D01*
X10232Y989377D01*
X10189Y989283D01*
X10187Y989263D01*
X10179Y989245D01*
X10161Y989078D01*
X10161Y10922D01*
X10164Y10902D01*
X10162Y10883D01*
X10184Y10781D01*
X10200Y10679D01*
X10210Y10662D01*
X10214Y10642D01*
X10267Y10553D01*
X10316Y10462D01*
X10330Y10448D01*
X10340Y10431D01*
X10419Y10364D01*
X10494Y10292D01*
X10512Y10284D01*
X10527Y10271D01*
X10623Y10232D01*
X10717Y10189D01*
X10737Y10187D01*
X10755Y10179D01*
X10922Y10161D01*
X989078Y10161D01*
X989098Y10164D01*
G37*
%LPC*%
G36*
X124708Y13875D02*
X124708Y13875D01*
X120472Y15630D01*
X66430Y69672D01*
X64675Y73908D01*
X64675Y256292D01*
X66430Y260528D01*
X95072Y289170D01*
X99308Y290925D01*
X115733Y290925D01*
X115823Y290939D01*
X115914Y290947D01*
X115944Y290959D01*
X115976Y290964D01*
X116057Y291007D01*
X116141Y291043D01*
X116173Y291069D01*
X116193Y291080D01*
X116198Y291085D01*
X137792Y291085D01*
X138685Y290192D01*
X138685Y268608D01*
X137792Y267715D01*
X116186Y267715D01*
X116128Y267765D01*
X116098Y267777D01*
X116072Y267796D01*
X115985Y267823D01*
X115900Y267857D01*
X115859Y267861D01*
X115837Y267868D01*
X115804Y267867D01*
X115733Y267875D01*
X106689Y267875D01*
X106599Y267861D01*
X106508Y267853D01*
X106478Y267841D01*
X106446Y267836D01*
X106366Y267793D01*
X106282Y267757D01*
X106250Y267731D01*
X106229Y267720D01*
X106207Y267697D01*
X106151Y267652D01*
X87948Y249449D01*
X87895Y249375D01*
X87835Y249306D01*
X87823Y249276D01*
X87804Y249250D01*
X87777Y249163D01*
X87743Y249078D01*
X87739Y249037D01*
X87732Y249014D01*
X87733Y248982D01*
X87725Y248911D01*
X87725Y81289D01*
X87739Y81199D01*
X87747Y81108D01*
X87759Y81078D01*
X87764Y81046D01*
X87807Y80966D01*
X87843Y80882D01*
X87869Y80850D01*
X87880Y80829D01*
X87903Y80807D01*
X87948Y80751D01*
X131551Y37148D01*
X131625Y37095D01*
X131694Y37035D01*
X131724Y37023D01*
X131750Y37004D01*
X131837Y36977D01*
X131922Y36943D01*
X131963Y36939D01*
X131986Y36932D01*
X132018Y36933D01*
X132089Y36925D01*
X406814Y36925D01*
X406834Y36928D01*
X406853Y36926D01*
X406955Y36948D01*
X407057Y36964D01*
X407074Y36974D01*
X407094Y36978D01*
X407183Y37031D01*
X407274Y37080D01*
X407288Y37094D01*
X407305Y37104D01*
X407372Y37183D01*
X407444Y37258D01*
X407452Y37276D01*
X407465Y37291D01*
X407504Y37387D01*
X407547Y37481D01*
X407549Y37501D01*
X407557Y37519D01*
X407575Y37686D01*
X407575Y52233D01*
X407561Y52323D01*
X407553Y52414D01*
X407541Y52444D01*
X407536Y52476D01*
X407493Y52557D01*
X407457Y52640D01*
X407431Y52673D01*
X407420Y52693D01*
X407415Y52698D01*
X407415Y74292D01*
X408308Y75185D01*
X429892Y75185D01*
X430785Y74292D01*
X430785Y52686D01*
X430735Y52628D01*
X430723Y52598D01*
X430704Y52572D01*
X430677Y52485D01*
X430643Y52400D01*
X430639Y52359D01*
X430632Y52337D01*
X430633Y52304D01*
X430625Y52233D01*
X430625Y37686D01*
X430628Y37666D01*
X430626Y37647D01*
X430648Y37545D01*
X430664Y37443D01*
X430674Y37426D01*
X430678Y37406D01*
X430731Y37317D01*
X430780Y37226D01*
X430794Y37212D01*
X430804Y37195D01*
X430883Y37128D01*
X430958Y37056D01*
X430976Y37048D01*
X430991Y37035D01*
X431087Y36996D01*
X431181Y36953D01*
X431201Y36951D01*
X431219Y36943D01*
X431386Y36925D01*
X858511Y36925D01*
X858601Y36939D01*
X858692Y36947D01*
X858722Y36959D01*
X858754Y36964D01*
X858834Y37007D01*
X858918Y37043D01*
X858950Y37069D01*
X858971Y37080D01*
X858993Y37103D01*
X859049Y37148D01*
X940752Y118851D01*
X940805Y118925D01*
X940865Y118994D01*
X940877Y119024D01*
X940896Y119050D01*
X940923Y119137D01*
X940957Y119222D01*
X940961Y119263D01*
X940968Y119286D01*
X940967Y119318D01*
X940975Y119389D01*
X940975Y267114D01*
X940972Y267134D01*
X940974Y267153D01*
X940952Y267255D01*
X940936Y267357D01*
X940926Y267374D01*
X940922Y267394D01*
X940869Y267483D01*
X940820Y267574D01*
X940806Y267588D01*
X940796Y267605D01*
X940717Y267672D01*
X940642Y267744D01*
X940624Y267752D01*
X940609Y267765D01*
X940513Y267804D01*
X940419Y267847D01*
X940399Y267849D01*
X940381Y267857D01*
X940214Y267875D01*
X874867Y267875D01*
X874777Y267861D01*
X874686Y267853D01*
X874656Y267841D01*
X874624Y267836D01*
X874543Y267793D01*
X874460Y267757D01*
X874427Y267731D01*
X874407Y267720D01*
X874402Y267715D01*
X852808Y267715D01*
X851915Y268608D01*
X851915Y290192D01*
X852808Y291085D01*
X874414Y291085D01*
X874472Y291035D01*
X874502Y291023D01*
X874528Y291004D01*
X874615Y290977D01*
X874700Y290943D01*
X874741Y290939D01*
X874763Y290932D01*
X874796Y290933D01*
X874867Y290925D01*
X940214Y290925D01*
X940234Y290928D01*
X940253Y290926D01*
X940355Y290948D01*
X940457Y290964D01*
X940474Y290974D01*
X940494Y290978D01*
X940583Y291031D01*
X940674Y291080D01*
X940688Y291094D01*
X940705Y291104D01*
X940772Y291183D01*
X940844Y291258D01*
X940852Y291276D01*
X940865Y291291D01*
X940904Y291387D01*
X940947Y291481D01*
X940949Y291501D01*
X940957Y291519D01*
X940975Y291686D01*
X940975Y312411D01*
X940961Y312501D01*
X940953Y312592D01*
X940941Y312622D01*
X940936Y312654D01*
X940893Y312734D01*
X940857Y312818D01*
X940831Y312850D01*
X940820Y312871D01*
X940797Y312893D01*
X940752Y312949D01*
X922549Y331152D01*
X922475Y331205D01*
X922406Y331265D01*
X922376Y331277D01*
X922350Y331296D01*
X922263Y331323D01*
X922178Y331357D01*
X922137Y331361D01*
X922114Y331368D01*
X922082Y331367D01*
X922011Y331375D01*
X759708Y331375D01*
X755472Y333130D01*
X726830Y361772D01*
X725075Y366008D01*
X725075Y795011D01*
X725072Y795030D01*
X725074Y795049D01*
X725059Y795118D01*
X725053Y795192D01*
X725041Y795222D01*
X725036Y795254D01*
X725026Y795272D01*
X725022Y795289D01*
X724987Y795347D01*
X724957Y795418D01*
X724931Y795450D01*
X724920Y795471D01*
X724904Y795487D01*
X724896Y795500D01*
X724882Y795512D01*
X724852Y795549D01*
X719349Y801052D01*
X719275Y801105D01*
X719206Y801165D01*
X719176Y801177D01*
X719150Y801196D01*
X719063Y801223D01*
X718978Y801257D01*
X718937Y801261D01*
X718914Y801268D01*
X718882Y801267D01*
X718811Y801275D01*
X680351Y801275D01*
X680286Y801265D01*
X680221Y801264D01*
X680141Y801241D01*
X680108Y801236D01*
X680091Y801226D01*
X680060Y801217D01*
X678992Y800775D01*
X601489Y800775D01*
X601399Y800761D01*
X601308Y800753D01*
X601278Y800741D01*
X601246Y800736D01*
X601166Y800693D01*
X601082Y800657D01*
X601050Y800631D01*
X601029Y800620D01*
X601007Y800597D01*
X600951Y800552D01*
X494348Y693949D01*
X494295Y693875D01*
X494235Y693806D01*
X494223Y693776D01*
X494204Y693750D01*
X494177Y693663D01*
X494143Y693578D01*
X494139Y693537D01*
X494132Y693514D01*
X494133Y693482D01*
X494125Y693411D01*
X494125Y538489D01*
X494139Y538399D01*
X494147Y538308D01*
X494159Y538278D01*
X494164Y538246D01*
X494207Y538166D01*
X494243Y538082D01*
X494269Y538050D01*
X494280Y538029D01*
X494303Y538007D01*
X494321Y537985D01*
X494325Y537977D01*
X494330Y537973D01*
X494348Y537951D01*
X537951Y494348D01*
X538025Y494295D01*
X538094Y494235D01*
X538124Y494223D01*
X538150Y494204D01*
X538237Y494177D01*
X538322Y494143D01*
X538363Y494139D01*
X538386Y494132D01*
X538418Y494133D01*
X538489Y494125D01*
X573792Y494125D01*
X578028Y492370D01*
X581270Y489128D01*
X583025Y484892D01*
X583025Y480308D01*
X581270Y476072D01*
X578028Y472830D01*
X573792Y471075D01*
X531108Y471075D01*
X526872Y472830D01*
X472830Y526872D01*
X471075Y531108D01*
X471075Y686214D01*
X471072Y686234D01*
X471074Y686253D01*
X471052Y686355D01*
X471036Y686457D01*
X471026Y686474D01*
X471022Y686494D01*
X470969Y686583D01*
X470920Y686674D01*
X470906Y686688D01*
X470896Y686705D01*
X470817Y686772D01*
X470742Y686844D01*
X470724Y686852D01*
X470709Y686865D01*
X470613Y686904D01*
X470519Y686947D01*
X470499Y686949D01*
X470481Y686957D01*
X470314Y686975D01*
X411489Y686975D01*
X411399Y686961D01*
X411308Y686953D01*
X411278Y686941D01*
X411246Y686936D01*
X411166Y686893D01*
X411082Y686857D01*
X411050Y686831D01*
X411029Y686820D01*
X411007Y686797D01*
X410951Y686752D01*
X260528Y536330D01*
X256292Y534575D01*
X200908Y534575D01*
X196672Y536330D01*
X193430Y539572D01*
X191675Y543808D01*
X191675Y548392D01*
X193430Y552628D01*
X196672Y555870D01*
X200908Y557625D01*
X248911Y557625D01*
X249001Y557639D01*
X249092Y557647D01*
X249122Y557659D01*
X249154Y557664D01*
X249234Y557707D01*
X249318Y557743D01*
X249350Y557769D01*
X249371Y557780D01*
X249393Y557803D01*
X249449Y557848D01*
X399872Y708270D01*
X404108Y710025D01*
X477511Y710025D01*
X477601Y710039D01*
X477692Y710047D01*
X477722Y710059D01*
X477754Y710064D01*
X477834Y710107D01*
X477918Y710143D01*
X477950Y710169D01*
X477971Y710180D01*
X477993Y710203D01*
X478049Y710248D01*
X589872Y822070D01*
X594108Y823825D01*
X672549Y823825D01*
X672614Y823835D01*
X672679Y823836D01*
X672759Y823859D01*
X672792Y823864D01*
X672809Y823874D01*
X672840Y823883D01*
X673908Y824325D01*
X726192Y824325D01*
X730428Y822570D01*
X746370Y806628D01*
X748125Y802392D01*
X748125Y449589D01*
X748139Y449499D01*
X748147Y449408D01*
X748159Y449378D01*
X748164Y449346D01*
X748207Y449266D01*
X748243Y449182D01*
X748269Y449150D01*
X748280Y449129D01*
X748303Y449107D01*
X748348Y449051D01*
X766551Y430848D01*
X766625Y430795D01*
X766694Y430735D01*
X766724Y430723D01*
X766750Y430704D01*
X766837Y430677D01*
X766922Y430643D01*
X766963Y430639D01*
X766986Y430632D01*
X767018Y430633D01*
X767089Y430625D01*
X789692Y430625D01*
X793928Y428870D01*
X797170Y425628D01*
X798925Y421392D01*
X798925Y416808D01*
X797170Y412572D01*
X793928Y409330D01*
X789692Y407575D01*
X759708Y407575D01*
X755472Y409330D01*
X749424Y415377D01*
X749366Y415419D01*
X749314Y415469D01*
X749267Y415490D01*
X749225Y415521D01*
X749156Y415542D01*
X749091Y415572D01*
X749039Y415578D01*
X748989Y415593D01*
X748918Y415591D01*
X748847Y415599D01*
X748796Y415588D01*
X748744Y415587D01*
X748676Y415562D01*
X748606Y415547D01*
X748561Y415520D01*
X748513Y415502D01*
X748457Y415458D01*
X748395Y415421D01*
X748361Y415381D01*
X748321Y415349D01*
X748282Y415288D01*
X748235Y415234D01*
X748216Y415185D01*
X748188Y415142D01*
X748170Y415072D01*
X748143Y415006D01*
X748135Y414934D01*
X748127Y414903D01*
X748129Y414880D01*
X748125Y414839D01*
X748125Y373389D01*
X748139Y373299D01*
X748147Y373208D01*
X748159Y373178D01*
X748164Y373146D01*
X748207Y373066D01*
X748243Y372982D01*
X748269Y372950D01*
X748280Y372929D01*
X748303Y372907D01*
X748348Y372851D01*
X766551Y354648D01*
X766625Y354595D01*
X766694Y354535D01*
X766724Y354523D01*
X766750Y354504D01*
X766837Y354477D01*
X766922Y354443D01*
X766963Y354439D01*
X766986Y354432D01*
X767018Y354433D01*
X767089Y354425D01*
X929392Y354425D01*
X933628Y352670D01*
X962270Y324028D01*
X964025Y319792D01*
X964025Y112008D01*
X962270Y107772D01*
X958921Y104423D01*
X873477Y18979D01*
X870128Y15630D01*
X865892Y13875D01*
X124708Y13875D01*
G37*
%LPD*%
%LPC*%
G36*
X93073Y339075D02*
X93073Y339075D01*
X86999Y341591D01*
X56951Y371639D01*
X54435Y377713D01*
X54435Y790687D01*
X56951Y796761D01*
X86999Y826809D01*
X93073Y829325D01*
X99647Y829325D01*
X100714Y828883D01*
X100778Y828868D01*
X100839Y828843D01*
X100922Y828834D01*
X100954Y828827D01*
X100973Y828828D01*
X101006Y828825D01*
X282555Y828825D01*
X282619Y828835D01*
X282685Y828836D01*
X282765Y828859D01*
X282797Y828864D01*
X282814Y828874D01*
X282846Y828883D01*
X283913Y829325D01*
X513540Y829325D01*
X513630Y829339D01*
X513721Y829347D01*
X513751Y829359D01*
X513783Y829364D01*
X513863Y829407D01*
X513947Y829443D01*
X513979Y829469D01*
X514000Y829480D01*
X514022Y829503D01*
X514078Y829548D01*
X542052Y857522D01*
X542105Y857596D01*
X542165Y857665D01*
X542177Y857695D01*
X542196Y857722D01*
X542223Y857808D01*
X542257Y857893D01*
X542261Y857934D01*
X542268Y857957D01*
X542267Y857989D01*
X542275Y858060D01*
X542275Y891487D01*
X543023Y893293D01*
X543044Y893382D01*
X543072Y893469D01*
X543072Y893501D01*
X543080Y893532D01*
X543071Y893623D01*
X543070Y893715D01*
X543059Y893754D01*
X543056Y893777D01*
X543043Y893807D01*
X543023Y893876D01*
X541475Y897613D01*
X541475Y904187D01*
X543991Y910261D01*
X587539Y953809D01*
X593613Y956325D01*
X752587Y956325D01*
X758661Y953809D01*
X801409Y911061D01*
X803925Y904987D01*
X803925Y568213D01*
X801409Y562139D01*
X796761Y557491D01*
X793111Y555979D01*
X793022Y555924D01*
X792930Y555873D01*
X792918Y555859D01*
X792902Y555850D01*
X792835Y555769D01*
X792764Y555691D01*
X792757Y555674D01*
X792745Y555660D01*
X792708Y555562D01*
X792665Y555466D01*
X792664Y555448D01*
X792657Y555431D01*
X792653Y555326D01*
X792643Y555221D01*
X792648Y555203D01*
X792647Y555185D01*
X792676Y555084D01*
X792701Y554982D01*
X792710Y554966D01*
X792715Y554949D01*
X792775Y554863D01*
X792831Y554773D01*
X792848Y554758D01*
X792856Y554747D01*
X792881Y554728D01*
X792955Y554660D01*
X794039Y553873D01*
X795173Y552739D01*
X796116Y551441D01*
X796844Y550012D01*
X797340Y548486D01*
X797477Y547623D01*
X788162Y547623D01*
X788142Y547620D01*
X788123Y547622D01*
X788021Y547600D01*
X787919Y547583D01*
X787902Y547574D01*
X787882Y547570D01*
X787793Y547517D01*
X787702Y547468D01*
X787688Y547454D01*
X787671Y547444D01*
X787604Y547365D01*
X787533Y547290D01*
X787524Y547272D01*
X787511Y547257D01*
X787473Y547161D01*
X787429Y547067D01*
X787427Y547047D01*
X787419Y547029D01*
X787401Y546862D01*
X787401Y546099D01*
X787399Y546099D01*
X787399Y546862D01*
X787397Y546874D01*
X787398Y546881D01*
X787397Y546888D01*
X787398Y546901D01*
X787376Y547003D01*
X787359Y547105D01*
X787350Y547122D01*
X787346Y547142D01*
X787293Y547231D01*
X787244Y547322D01*
X787230Y547336D01*
X787220Y547353D01*
X787141Y547420D01*
X787066Y547491D01*
X787048Y547500D01*
X787033Y547513D01*
X786937Y547552D01*
X786843Y547595D01*
X786823Y547597D01*
X786805Y547605D01*
X786638Y547623D01*
X777323Y547623D01*
X777460Y548486D01*
X777956Y550012D01*
X778684Y551441D01*
X779627Y552739D01*
X780761Y553873D01*
X781845Y554660D01*
X781919Y554735D01*
X781996Y554806D01*
X782005Y554822D01*
X782018Y554835D01*
X782064Y554929D01*
X782115Y555022D01*
X782118Y555040D01*
X782126Y555056D01*
X782140Y555160D01*
X782158Y555264D01*
X782156Y555282D01*
X782158Y555300D01*
X782138Y555403D01*
X782123Y555507D01*
X782114Y555523D01*
X782111Y555541D01*
X782059Y555633D01*
X782011Y555726D01*
X781998Y555739D01*
X781989Y555755D01*
X781911Y555825D01*
X781836Y555899D01*
X781816Y555909D01*
X781806Y555919D01*
X781777Y555931D01*
X781689Y555980D01*
X778039Y557491D01*
X773391Y562139D01*
X770875Y568213D01*
X770875Y894540D01*
X770861Y894630D01*
X770853Y894721D01*
X770841Y894751D01*
X770836Y894783D01*
X770793Y894863D01*
X770757Y894947D01*
X770731Y894979D01*
X770720Y895000D01*
X770697Y895022D01*
X770652Y895078D01*
X742678Y923052D01*
X742604Y923105D01*
X742535Y923165D01*
X742505Y923177D01*
X742478Y923196D01*
X742391Y923223D01*
X742307Y923257D01*
X742266Y923261D01*
X742243Y923268D01*
X742211Y923267D01*
X742140Y923275D01*
X604060Y923275D01*
X603970Y923261D01*
X603879Y923253D01*
X603849Y923241D01*
X603817Y923236D01*
X603737Y923193D01*
X603653Y923157D01*
X603621Y923131D01*
X603600Y923120D01*
X603578Y923097D01*
X603522Y923052D01*
X574698Y894228D01*
X574630Y894134D01*
X574560Y894040D01*
X574558Y894034D01*
X574554Y894029D01*
X574520Y893918D01*
X574484Y893806D01*
X574484Y893800D01*
X574482Y893794D01*
X574485Y893677D01*
X574486Y893560D01*
X574488Y893553D01*
X574488Y893548D01*
X574495Y893530D01*
X574533Y893399D01*
X575325Y891487D01*
X575325Y847613D01*
X572809Y841539D01*
X568054Y836784D01*
X568053Y836784D01*
X534816Y803547D01*
X534816Y803546D01*
X530061Y798791D01*
X523987Y796275D01*
X291346Y796275D01*
X291281Y796265D01*
X291215Y796264D01*
X291135Y796241D01*
X291103Y796236D01*
X291086Y796226D01*
X291054Y796217D01*
X289987Y795775D01*
X103020Y795775D01*
X102930Y795761D01*
X102839Y795753D01*
X102809Y795741D01*
X102777Y795736D01*
X102697Y795693D01*
X102613Y795657D01*
X102581Y795631D01*
X102560Y795620D01*
X102556Y795616D01*
X102555Y795616D01*
X102537Y795596D01*
X102482Y795552D01*
X87708Y780778D01*
X87655Y780704D01*
X87595Y780635D01*
X87583Y780605D01*
X87564Y780578D01*
X87537Y780491D01*
X87503Y780407D01*
X87499Y780366D01*
X87492Y780343D01*
X87493Y780311D01*
X87485Y780240D01*
X87485Y388160D01*
X87499Y388070D01*
X87507Y387979D01*
X87519Y387949D01*
X87524Y387917D01*
X87567Y387837D01*
X87603Y387753D01*
X87629Y387721D01*
X87640Y387700D01*
X87663Y387678D01*
X87708Y387622D01*
X102982Y372348D01*
X103056Y372295D01*
X103125Y372235D01*
X103155Y372223D01*
X103182Y372204D01*
X103269Y372177D01*
X103353Y372143D01*
X103394Y372139D01*
X103417Y372132D01*
X103449Y372133D01*
X103520Y372125D01*
X157940Y372125D01*
X158030Y372139D01*
X158121Y372147D01*
X158151Y372159D01*
X158183Y372164D01*
X158263Y372207D01*
X158347Y372243D01*
X158379Y372269D01*
X158400Y372280D01*
X158422Y372303D01*
X158478Y372348D01*
X193839Y407709D01*
X197489Y409221D01*
X197578Y409276D01*
X197670Y409327D01*
X197682Y409341D01*
X197698Y409350D01*
X197765Y409431D01*
X197836Y409509D01*
X197843Y409526D01*
X197854Y409540D01*
X197892Y409638D01*
X197935Y409734D01*
X197936Y409752D01*
X197943Y409769D01*
X197947Y409874D01*
X197957Y409979D01*
X197952Y409997D01*
X197953Y410015D01*
X197924Y410116D01*
X197899Y410218D01*
X197890Y410234D01*
X197885Y410251D01*
X197825Y410338D01*
X197769Y410427D01*
X197752Y410442D01*
X197744Y410453D01*
X197719Y410472D01*
X197645Y410540D01*
X196561Y411327D01*
X195427Y412461D01*
X194484Y413759D01*
X193756Y415188D01*
X193260Y416714D01*
X193123Y417577D01*
X202438Y417577D01*
X202458Y417580D01*
X202477Y417578D01*
X202579Y417600D01*
X202681Y417617D01*
X202698Y417626D01*
X202718Y417630D01*
X202807Y417683D01*
X202898Y417732D01*
X202912Y417746D01*
X202929Y417756D01*
X202996Y417835D01*
X203067Y417910D01*
X203076Y417928D01*
X203089Y417943D01*
X203127Y418039D01*
X203171Y418133D01*
X203173Y418153D01*
X203181Y418171D01*
X203199Y418338D01*
X203199Y419101D01*
X203201Y419101D01*
X203201Y418338D01*
X203204Y418318D01*
X203202Y418299D01*
X203224Y418197D01*
X203241Y418095D01*
X203250Y418078D01*
X203254Y418058D01*
X203307Y417969D01*
X203356Y417878D01*
X203370Y417864D01*
X203380Y417847D01*
X203459Y417780D01*
X203534Y417709D01*
X203552Y417700D01*
X203567Y417687D01*
X203663Y417648D01*
X203757Y417605D01*
X203777Y417603D01*
X203795Y417595D01*
X203962Y417577D01*
X213277Y417577D01*
X213140Y416714D01*
X212644Y415188D01*
X211916Y413759D01*
X210973Y412461D01*
X209839Y411327D01*
X208755Y410540D01*
X208681Y410465D01*
X208604Y410394D01*
X208595Y410378D01*
X208582Y410365D01*
X208536Y410271D01*
X208485Y410178D01*
X208482Y410160D01*
X208474Y410144D01*
X208460Y410040D01*
X208442Y409936D01*
X208444Y409918D01*
X208442Y409900D01*
X208462Y409797D01*
X208477Y409693D01*
X208486Y409677D01*
X208489Y409659D01*
X208541Y409567D01*
X208589Y409474D01*
X208602Y409461D01*
X208611Y409445D01*
X208689Y409375D01*
X208764Y409301D01*
X208784Y409291D01*
X208794Y409281D01*
X208823Y409269D01*
X208911Y409221D01*
X212561Y407709D01*
X217209Y403061D01*
X219725Y396987D01*
X219725Y390413D01*
X217209Y384339D01*
X174461Y341591D01*
X168387Y339075D01*
X93073Y339075D01*
G37*
%LPD*%
%LPC*%
G36*
X518408Y115475D02*
X518408Y115475D01*
X514172Y117230D01*
X485530Y145872D01*
X483775Y150108D01*
X483775Y337811D01*
X483761Y337901D01*
X483753Y337992D01*
X483741Y338022D01*
X483736Y338054D01*
X483693Y338134D01*
X483657Y338218D01*
X483631Y338250D01*
X483620Y338271D01*
X483597Y338293D01*
X483552Y338349D01*
X452649Y369252D01*
X452575Y369305D01*
X452506Y369365D01*
X452476Y369377D01*
X452450Y369396D01*
X452363Y369423D01*
X452278Y369457D01*
X452237Y369461D01*
X452214Y369468D01*
X452182Y369467D01*
X452111Y369475D01*
X416808Y369475D01*
X412572Y371230D01*
X409330Y374472D01*
X407575Y378708D01*
X407575Y383292D01*
X409330Y387528D01*
X412572Y390770D01*
X416808Y392525D01*
X459492Y392525D01*
X463728Y390770D01*
X505070Y349428D01*
X506825Y345192D01*
X506825Y157489D01*
X506839Y157399D01*
X506847Y157308D01*
X506859Y157278D01*
X506864Y157246D01*
X506907Y157166D01*
X506943Y157082D01*
X506969Y157050D01*
X506980Y157029D01*
X507003Y157007D01*
X507048Y156951D01*
X525251Y138748D01*
X525325Y138695D01*
X525394Y138635D01*
X525424Y138623D01*
X525450Y138604D01*
X525537Y138577D01*
X525622Y138543D01*
X525663Y138539D01*
X525686Y138532D01*
X525718Y138533D01*
X525789Y138525D01*
X655311Y138525D01*
X655401Y138539D01*
X655492Y138547D01*
X655522Y138559D01*
X655554Y138564D01*
X655634Y138607D01*
X655718Y138643D01*
X655750Y138669D01*
X655771Y138680D01*
X655793Y138703D01*
X655849Y138748D01*
X686752Y169651D01*
X686805Y169725D01*
X686865Y169794D01*
X686877Y169824D01*
X686896Y169850D01*
X686923Y169937D01*
X686957Y170022D01*
X686961Y170063D01*
X686968Y170086D01*
X686967Y170118D01*
X686975Y170189D01*
X686975Y401311D01*
X686961Y401401D01*
X686953Y401492D01*
X686941Y401522D01*
X686936Y401554D01*
X686893Y401634D01*
X686857Y401718D01*
X686831Y401750D01*
X686820Y401771D01*
X686797Y401793D01*
X686752Y401849D01*
X681249Y407352D01*
X681175Y407405D01*
X681106Y407465D01*
X681076Y407477D01*
X681050Y407496D01*
X680963Y407523D01*
X680878Y407557D01*
X680837Y407561D01*
X680814Y407568D01*
X680782Y407567D01*
X680711Y407575D01*
X658108Y407575D01*
X653872Y409330D01*
X650630Y412572D01*
X648875Y416808D01*
X648875Y421392D01*
X650630Y425628D01*
X653872Y428870D01*
X658108Y430625D01*
X688092Y430625D01*
X692328Y428870D01*
X708270Y412928D01*
X710025Y408692D01*
X710025Y162808D01*
X708270Y158572D01*
X666928Y117230D01*
X662692Y115475D01*
X518408Y115475D01*
G37*
%LPD*%
%LPC*%
G36*
X556508Y153575D02*
X556508Y153575D01*
X552272Y155330D01*
X510930Y196672D01*
X509175Y200908D01*
X509175Y350511D01*
X509161Y350601D01*
X509153Y350692D01*
X509141Y350722D01*
X509136Y350754D01*
X509093Y350834D01*
X509057Y350918D01*
X509031Y350950D01*
X509020Y350971D01*
X508997Y350993D01*
X508952Y351049D01*
X465349Y394652D01*
X465275Y394705D01*
X465206Y394765D01*
X465176Y394777D01*
X465150Y394796D01*
X465063Y394823D01*
X464978Y394857D01*
X464937Y394861D01*
X464914Y394868D01*
X464882Y394867D01*
X464811Y394875D01*
X416808Y394875D01*
X412572Y396630D01*
X409330Y399872D01*
X407575Y404108D01*
X407575Y408692D01*
X409330Y412928D01*
X412572Y416170D01*
X416808Y417925D01*
X472192Y417925D01*
X476428Y416170D01*
X530470Y362128D01*
X532225Y357892D01*
X532225Y208289D01*
X532239Y208199D01*
X532247Y208108D01*
X532259Y208078D01*
X532264Y208046D01*
X532307Y207966D01*
X532343Y207882D01*
X532369Y207850D01*
X532380Y207829D01*
X532403Y207807D01*
X532448Y207751D01*
X563351Y176848D01*
X563425Y176795D01*
X563494Y176735D01*
X563524Y176723D01*
X563550Y176704D01*
X563637Y176677D01*
X563722Y176643D01*
X563763Y176639D01*
X563786Y176632D01*
X563818Y176633D01*
X563889Y176625D01*
X604511Y176625D01*
X604601Y176639D01*
X604692Y176647D01*
X604722Y176659D01*
X604754Y176664D01*
X604834Y176707D01*
X604918Y176743D01*
X604950Y176769D01*
X604971Y176780D01*
X604993Y176803D01*
X605049Y176848D01*
X610552Y182351D01*
X610605Y182425D01*
X610665Y182494D01*
X610677Y182524D01*
X610696Y182550D01*
X610723Y182637D01*
X610757Y182722D01*
X610761Y182763D01*
X610768Y182786D01*
X610767Y182818D01*
X610775Y182889D01*
X610775Y383292D01*
X612530Y387528D01*
X628472Y403470D01*
X632708Y405225D01*
X662692Y405225D01*
X666928Y403470D01*
X670170Y400228D01*
X671925Y395992D01*
X671925Y391408D01*
X670170Y387172D01*
X666928Y383930D01*
X662692Y382175D01*
X640089Y382175D01*
X639999Y382161D01*
X639908Y382153D01*
X639878Y382141D01*
X639846Y382136D01*
X639766Y382093D01*
X639682Y382057D01*
X639650Y382031D01*
X639629Y382020D01*
X639607Y381997D01*
X639551Y381952D01*
X634048Y376449D01*
X633995Y376375D01*
X633935Y376306D01*
X633923Y376276D01*
X633904Y376250D01*
X633877Y376163D01*
X633843Y376078D01*
X633839Y376037D01*
X633832Y376014D01*
X633833Y375982D01*
X633825Y375911D01*
X633825Y175508D01*
X632070Y171272D01*
X616128Y155330D01*
X611892Y153575D01*
X556508Y153575D01*
G37*
%LPD*%
%LPC*%
G36*
X505708Y90075D02*
X505708Y90075D01*
X501472Y91830D01*
X447430Y145872D01*
X445675Y150108D01*
X445675Y223511D01*
X445661Y223601D01*
X445653Y223692D01*
X445641Y223722D01*
X445636Y223754D01*
X445593Y223834D01*
X445557Y223918D01*
X445531Y223950D01*
X445520Y223971D01*
X445497Y223993D01*
X445452Y224049D01*
X427249Y242252D01*
X427175Y242305D01*
X427106Y242365D01*
X427076Y242377D01*
X427050Y242396D01*
X426963Y242423D01*
X426878Y242457D01*
X426837Y242461D01*
X426814Y242468D01*
X426782Y242467D01*
X426711Y242475D01*
X416808Y242475D01*
X412572Y244230D01*
X409330Y247472D01*
X407575Y251708D01*
X407575Y256292D01*
X409330Y260528D01*
X412572Y263770D01*
X416808Y265525D01*
X434092Y265525D01*
X438328Y263770D01*
X466970Y235128D01*
X468725Y230892D01*
X468725Y157489D01*
X468739Y157399D01*
X468747Y157308D01*
X468759Y157278D01*
X468764Y157246D01*
X468807Y157166D01*
X468843Y157082D01*
X468869Y157050D01*
X468880Y157029D01*
X468903Y157007D01*
X468948Y156951D01*
X512551Y113348D01*
X512625Y113295D01*
X512694Y113235D01*
X512724Y113223D01*
X512750Y113204D01*
X512837Y113177D01*
X512922Y113143D01*
X512963Y113139D01*
X512986Y113132D01*
X513018Y113133D01*
X513089Y113125D01*
X769611Y113125D01*
X769701Y113139D01*
X769792Y113147D01*
X769822Y113159D01*
X769854Y113164D01*
X769934Y113207D01*
X770018Y113243D01*
X770050Y113269D01*
X770071Y113280D01*
X770093Y113303D01*
X770149Y113348D01*
X831672Y174870D01*
X835908Y176625D01*
X851314Y176625D01*
X851334Y176628D01*
X851353Y176626D01*
X851455Y176648D01*
X851557Y176664D01*
X851574Y176674D01*
X851594Y176678D01*
X851683Y176731D01*
X851774Y176780D01*
X851788Y176794D01*
X851805Y176804D01*
X851872Y176883D01*
X851944Y176958D01*
X851952Y176976D01*
X851965Y176991D01*
X852004Y177087D01*
X852047Y177181D01*
X852049Y177201D01*
X852057Y177219D01*
X852075Y177386D01*
X852075Y226538D01*
X852065Y226603D01*
X852064Y226668D01*
X852041Y226748D01*
X852036Y226781D01*
X852026Y226798D01*
X852017Y226829D01*
X851915Y227076D01*
X851915Y231724D01*
X853694Y236019D01*
X856981Y239306D01*
X861276Y241085D01*
X865924Y241085D01*
X870219Y239306D01*
X873506Y236019D01*
X875285Y231724D01*
X875285Y227076D01*
X875183Y226829D01*
X875168Y226766D01*
X875143Y226705D01*
X875134Y226622D01*
X875127Y226590D01*
X875128Y226571D01*
X875125Y226538D01*
X875125Y176367D01*
X875139Y176277D01*
X875147Y176186D01*
X875159Y176156D01*
X875164Y176124D01*
X875207Y176043D01*
X875243Y175960D01*
X875269Y175927D01*
X875280Y175907D01*
X875285Y175902D01*
X875285Y154308D01*
X874392Y153415D01*
X852786Y153415D01*
X852728Y153465D01*
X852698Y153477D01*
X852672Y153496D01*
X852585Y153523D01*
X852500Y153557D01*
X852459Y153561D01*
X852437Y153568D01*
X852404Y153567D01*
X852333Y153575D01*
X843289Y153575D01*
X843199Y153561D01*
X843108Y153553D01*
X843078Y153541D01*
X843046Y153536D01*
X842966Y153493D01*
X842882Y153457D01*
X842850Y153431D01*
X842829Y153420D01*
X842807Y153397D01*
X842751Y153352D01*
X781228Y91830D01*
X776992Y90075D01*
X505708Y90075D01*
G37*
%LPD*%
%LPC*%
G36*
X301513Y872475D02*
X301513Y872475D01*
X295439Y874991D01*
X290791Y879639D01*
X288275Y885713D01*
X288275Y917687D01*
X290791Y923761D01*
X320839Y953809D01*
X326913Y956325D01*
X485887Y956325D01*
X491961Y953809D01*
X522009Y923761D01*
X524525Y917687D01*
X524525Y885713D01*
X522009Y879639D01*
X517361Y874991D01*
X511287Y872475D01*
X504713Y872475D01*
X498639Y874991D01*
X493991Y879639D01*
X491475Y885713D01*
X491475Y907240D01*
X491461Y907330D01*
X491453Y907421D01*
X491441Y907451D01*
X491436Y907483D01*
X491393Y907563D01*
X491357Y907647D01*
X491331Y907679D01*
X491320Y907700D01*
X491297Y907722D01*
X491252Y907778D01*
X475978Y923052D01*
X475904Y923105D01*
X475835Y923165D01*
X475805Y923177D01*
X475778Y923196D01*
X475691Y923223D01*
X475607Y923257D01*
X475566Y923261D01*
X475543Y923268D01*
X475511Y923267D01*
X475440Y923275D01*
X337360Y923275D01*
X337270Y923261D01*
X337179Y923253D01*
X337149Y923241D01*
X337117Y923236D01*
X337037Y923193D01*
X336953Y923157D01*
X336921Y923131D01*
X336900Y923120D01*
X336878Y923097D01*
X336822Y923052D01*
X321548Y907778D01*
X321495Y907704D01*
X321435Y907635D01*
X321423Y907605D01*
X321404Y907578D01*
X321377Y907491D01*
X321343Y907407D01*
X321339Y907366D01*
X321332Y907343D01*
X321333Y907311D01*
X321325Y907240D01*
X321325Y885713D01*
X318809Y879639D01*
X314161Y874991D01*
X308087Y872475D01*
X301513Y872475D01*
G37*
%LPD*%
%LPC*%
G36*
X116208Y153415D02*
X116208Y153415D01*
X115315Y154308D01*
X115315Y175914D01*
X115365Y175972D01*
X115377Y176002D01*
X115396Y176028D01*
X115423Y176115D01*
X115457Y176200D01*
X115461Y176241D01*
X115468Y176263D01*
X115467Y176296D01*
X115475Y176367D01*
X115475Y226538D01*
X115465Y226603D01*
X115464Y226668D01*
X115441Y226748D01*
X115436Y226781D01*
X115426Y226798D01*
X115417Y226829D01*
X115315Y227076D01*
X115315Y231724D01*
X117094Y236019D01*
X120381Y239306D01*
X124676Y241085D01*
X129324Y241085D01*
X129571Y240983D01*
X129634Y240968D01*
X129695Y240943D01*
X129778Y240934D01*
X129810Y240927D01*
X129829Y240928D01*
X129862Y240925D01*
X153892Y240925D01*
X155684Y240183D01*
X155748Y240168D01*
X155808Y240143D01*
X155891Y240134D01*
X155923Y240127D01*
X155943Y240128D01*
X155975Y240125D01*
X172711Y240125D01*
X172801Y240139D01*
X172892Y240147D01*
X172922Y240159D01*
X172954Y240164D01*
X173034Y240207D01*
X173118Y240243D01*
X173150Y240269D01*
X173171Y240280D01*
X173193Y240303D01*
X173249Y240348D01*
X193323Y260421D01*
X196672Y263770D01*
X200908Y265525D01*
X337811Y265525D01*
X337901Y265539D01*
X337992Y265547D01*
X338022Y265559D01*
X338054Y265564D01*
X338134Y265607D01*
X338218Y265643D01*
X338250Y265669D01*
X338271Y265680D01*
X338293Y265703D01*
X338349Y265748D01*
X387172Y314570D01*
X391408Y316325D01*
X421392Y316325D01*
X425628Y314570D01*
X428870Y311328D01*
X430625Y307092D01*
X430625Y302508D01*
X428870Y298272D01*
X425628Y295030D01*
X421392Y293275D01*
X398789Y293275D01*
X398699Y293261D01*
X398608Y293253D01*
X398578Y293241D01*
X398546Y293236D01*
X398466Y293193D01*
X398382Y293157D01*
X398350Y293131D01*
X398329Y293120D01*
X398307Y293097D01*
X398251Y293052D01*
X349428Y244230D01*
X345192Y242475D01*
X208289Y242475D01*
X208199Y242461D01*
X208108Y242453D01*
X208078Y242441D01*
X208046Y242436D01*
X207966Y242393D01*
X207882Y242357D01*
X207850Y242331D01*
X207829Y242320D01*
X207807Y242297D01*
X207751Y242252D01*
X184328Y218830D01*
X180092Y217075D01*
X150108Y217075D01*
X148316Y217817D01*
X148252Y217832D01*
X148192Y217857D01*
X148109Y217866D01*
X148077Y217873D01*
X148057Y217872D01*
X148025Y217875D01*
X139286Y217875D01*
X139266Y217872D01*
X139247Y217874D01*
X139145Y217852D01*
X139043Y217836D01*
X139026Y217826D01*
X139006Y217822D01*
X138917Y217769D01*
X138826Y217720D01*
X138812Y217706D01*
X138795Y217696D01*
X138728Y217617D01*
X138656Y217542D01*
X138648Y217524D01*
X138635Y217509D01*
X138596Y217413D01*
X138553Y217319D01*
X138551Y217299D01*
X138543Y217281D01*
X138525Y217114D01*
X138525Y176367D01*
X138539Y176277D01*
X138547Y176186D01*
X138559Y176156D01*
X138564Y176124D01*
X138607Y176043D01*
X138643Y175960D01*
X138669Y175927D01*
X138680Y175907D01*
X138685Y175902D01*
X138685Y154308D01*
X137792Y153415D01*
X116208Y153415D01*
G37*
%LPD*%
%LPC*%
G36*
X466776Y51815D02*
X466776Y51815D01*
X462481Y53594D01*
X459194Y56881D01*
X457415Y61176D01*
X457415Y65824D01*
X457517Y66071D01*
X457532Y66134D01*
X457557Y66195D01*
X457566Y66278D01*
X457573Y66310D01*
X457572Y66329D01*
X457575Y66362D01*
X457575Y84611D01*
X457561Y84701D01*
X457553Y84792D01*
X457541Y84822D01*
X457536Y84854D01*
X457493Y84934D01*
X457457Y85018D01*
X457431Y85050D01*
X457420Y85071D01*
X457397Y85093D01*
X457352Y85149D01*
X371230Y171272D01*
X369475Y175508D01*
X369475Y256292D01*
X371230Y260528D01*
X399872Y289170D01*
X404108Y290925D01*
X421392Y290925D01*
X425628Y289170D01*
X428870Y285928D01*
X430625Y281692D01*
X430625Y277108D01*
X428870Y272872D01*
X425628Y269630D01*
X421392Y267875D01*
X411489Y267875D01*
X411399Y267861D01*
X411308Y267853D01*
X411278Y267841D01*
X411246Y267836D01*
X411166Y267793D01*
X411082Y267757D01*
X411050Y267731D01*
X411029Y267720D01*
X411007Y267697D01*
X410951Y267652D01*
X392748Y249449D01*
X392695Y249375D01*
X392635Y249306D01*
X392623Y249276D01*
X392604Y249250D01*
X392577Y249163D01*
X392543Y249078D01*
X392539Y249037D01*
X392532Y249014D01*
X392533Y248982D01*
X392525Y248911D01*
X392525Y182889D01*
X392539Y182799D01*
X392547Y182708D01*
X392559Y182678D01*
X392564Y182646D01*
X392607Y182566D01*
X392643Y182482D01*
X392669Y182450D01*
X392680Y182429D01*
X392703Y182407D01*
X392748Y182351D01*
X479670Y95428D01*
X481425Y91192D01*
X481425Y86608D01*
X480683Y84816D01*
X480668Y84752D01*
X480643Y84692D01*
X480634Y84609D01*
X480627Y84577D01*
X480628Y84557D01*
X480625Y84525D01*
X480625Y75786D01*
X480628Y75766D01*
X480626Y75747D01*
X480648Y75645D01*
X480664Y75543D01*
X480674Y75526D01*
X480678Y75506D01*
X480731Y75417D01*
X480780Y75326D01*
X480794Y75312D01*
X480804Y75295D01*
X480883Y75228D01*
X480958Y75156D01*
X480976Y75148D01*
X480991Y75135D01*
X481087Y75096D01*
X481181Y75053D01*
X481201Y75051D01*
X481219Y75043D01*
X481386Y75025D01*
X522133Y75025D01*
X522223Y75039D01*
X522314Y75047D01*
X522344Y75059D01*
X522376Y75064D01*
X522457Y75107D01*
X522540Y75143D01*
X522573Y75169D01*
X522593Y75180D01*
X522598Y75185D01*
X544192Y75185D01*
X545085Y74292D01*
X545085Y52708D01*
X544192Y51815D01*
X522586Y51815D01*
X522528Y51865D01*
X522498Y51877D01*
X522472Y51896D01*
X522385Y51923D01*
X522300Y51957D01*
X522259Y51961D01*
X522237Y51968D01*
X522204Y51967D01*
X522133Y51975D01*
X471962Y51975D01*
X471897Y51965D01*
X471832Y51964D01*
X471752Y51941D01*
X471719Y51936D01*
X471702Y51926D01*
X471671Y51917D01*
X471424Y51815D01*
X466776Y51815D01*
G37*
%LPD*%
%LPC*%
G36*
X251708Y280575D02*
X251708Y280575D01*
X247472Y282330D01*
X244230Y285572D01*
X242475Y289808D01*
X242475Y332492D01*
X244230Y336728D01*
X272872Y365370D01*
X277108Y367125D01*
X421392Y367125D01*
X425628Y365370D01*
X428870Y362128D01*
X430625Y357892D01*
X430625Y353308D01*
X428870Y349072D01*
X425628Y345830D01*
X421392Y344075D01*
X284489Y344075D01*
X284399Y344061D01*
X284308Y344053D01*
X284278Y344041D01*
X284246Y344036D01*
X284166Y343993D01*
X284082Y343957D01*
X284050Y343931D01*
X284029Y343920D01*
X284007Y343897D01*
X283951Y343852D01*
X265748Y325649D01*
X265695Y325575D01*
X265635Y325506D01*
X265623Y325476D01*
X265604Y325450D01*
X265577Y325363D01*
X265543Y325278D01*
X265539Y325237D01*
X265532Y325214D01*
X265533Y325182D01*
X265525Y325111D01*
X265525Y289808D01*
X263770Y285572D01*
X260528Y282330D01*
X256292Y280575D01*
X251708Y280575D01*
G37*
%LPD*%
%LPC*%
G36*
X366008Y420275D02*
X366008Y420275D01*
X361772Y422030D01*
X358423Y425379D01*
X345830Y437972D01*
X344075Y442208D01*
X344075Y528311D01*
X344061Y528401D01*
X344053Y528492D01*
X344041Y528522D01*
X344036Y528554D01*
X343993Y528634D01*
X343957Y528718D01*
X343931Y528750D01*
X343920Y528771D01*
X343897Y528793D01*
X343852Y528849D01*
X338349Y534352D01*
X338275Y534405D01*
X338206Y534465D01*
X338176Y534477D01*
X338150Y534496D01*
X338063Y534523D01*
X337978Y534557D01*
X337937Y534561D01*
X337914Y534568D01*
X337882Y534567D01*
X337811Y534575D01*
X327908Y534575D01*
X323672Y536330D01*
X320430Y539572D01*
X318675Y543808D01*
X318675Y548392D01*
X320430Y552628D01*
X323672Y555870D01*
X327908Y557625D01*
X345192Y557625D01*
X349428Y555870D01*
X365370Y539928D01*
X367125Y535692D01*
X367125Y449589D01*
X367139Y449499D01*
X367147Y449408D01*
X367159Y449378D01*
X367164Y449346D01*
X367207Y449266D01*
X367243Y449182D01*
X367269Y449150D01*
X367280Y449129D01*
X367303Y449107D01*
X367348Y449051D01*
X372851Y443548D01*
X372925Y443495D01*
X372994Y443435D01*
X373024Y443423D01*
X373050Y443404D01*
X373137Y443377D01*
X373222Y443343D01*
X373263Y443339D01*
X373286Y443332D01*
X373318Y443333D01*
X373389Y443325D01*
X421392Y443325D01*
X425628Y441570D01*
X428870Y438328D01*
X430625Y434092D01*
X430625Y429508D01*
X428870Y425272D01*
X425628Y422030D01*
X421392Y420275D01*
X366008Y420275D01*
G37*
%LPD*%
%LPC*%
G36*
X391408Y445675D02*
X391408Y445675D01*
X387172Y447430D01*
X371230Y463372D01*
X369475Y467608D01*
X369475Y541011D01*
X369461Y541101D01*
X369453Y541192D01*
X369441Y541222D01*
X369436Y541254D01*
X369393Y541334D01*
X369357Y541418D01*
X369331Y541450D01*
X369320Y541471D01*
X369297Y541493D01*
X369252Y541549D01*
X351049Y559752D01*
X350975Y559805D01*
X350906Y559865D01*
X350876Y559877D01*
X350850Y559896D01*
X350763Y559923D01*
X350678Y559957D01*
X350637Y559961D01*
X350614Y559968D01*
X350582Y559967D01*
X350511Y559975D01*
X327908Y559975D01*
X323672Y561730D01*
X320430Y564972D01*
X318675Y569208D01*
X318675Y573792D01*
X320430Y578028D01*
X323672Y581270D01*
X327908Y583025D01*
X357892Y583025D01*
X362128Y581270D01*
X390770Y552628D01*
X392525Y548392D01*
X392525Y474989D01*
X392539Y474899D01*
X392547Y474808D01*
X392559Y474778D01*
X392564Y474746D01*
X392607Y474666D01*
X392643Y474582D01*
X392669Y474550D01*
X392680Y474529D01*
X392703Y474507D01*
X392748Y474451D01*
X398251Y468948D01*
X398325Y468895D01*
X398394Y468835D01*
X398424Y468823D01*
X398450Y468804D01*
X398537Y468777D01*
X398622Y468743D01*
X398663Y468739D01*
X398686Y468732D01*
X398718Y468733D01*
X398789Y468725D01*
X421392Y468725D01*
X425628Y466970D01*
X428870Y463728D01*
X430625Y459492D01*
X430625Y454908D01*
X428870Y450672D01*
X425628Y447430D01*
X421392Y445675D01*
X391408Y445675D01*
G37*
%LPD*%
%LPC*%
G36*
X327908Y280575D02*
X327908Y280575D01*
X323672Y282330D01*
X320430Y285572D01*
X318675Y289808D01*
X318675Y319792D01*
X320430Y324028D01*
X336372Y339970D01*
X340608Y341725D01*
X421392Y341725D01*
X425628Y339970D01*
X428870Y336728D01*
X430625Y332492D01*
X430625Y327908D01*
X428870Y323672D01*
X425628Y320430D01*
X421392Y318675D01*
X347989Y318675D01*
X347899Y318661D01*
X347808Y318653D01*
X347778Y318641D01*
X347746Y318636D01*
X347666Y318593D01*
X347582Y318557D01*
X347550Y318531D01*
X347529Y318520D01*
X347507Y318497D01*
X347451Y318452D01*
X341948Y312949D01*
X341895Y312875D01*
X341835Y312806D01*
X341823Y312776D01*
X341804Y312750D01*
X341777Y312663D01*
X341743Y312578D01*
X341739Y312537D01*
X341732Y312514D01*
X341733Y312482D01*
X341725Y312411D01*
X341725Y289808D01*
X339970Y285572D01*
X336728Y282330D01*
X332492Y280575D01*
X327908Y280575D01*
G37*
%LPD*%
%LPC*%
G36*
X175508Y509175D02*
X175508Y509175D01*
X171272Y510930D01*
X167923Y514279D01*
X122609Y559592D01*
X122535Y559645D01*
X122466Y559705D01*
X122436Y559717D01*
X122410Y559736D01*
X122323Y559763D01*
X122238Y559797D01*
X122197Y559801D01*
X122174Y559808D01*
X122142Y559807D01*
X122071Y559815D01*
X116208Y559815D01*
X115315Y560708D01*
X115315Y582292D01*
X116208Y583185D01*
X137792Y583185D01*
X138685Y582292D01*
X138685Y576429D01*
X138699Y576339D01*
X138707Y576248D01*
X138719Y576218D01*
X138724Y576186D01*
X138767Y576106D01*
X138803Y576022D01*
X138829Y575990D01*
X138840Y575969D01*
X138863Y575947D01*
X138908Y575891D01*
X182351Y532448D01*
X182425Y532395D01*
X182494Y532335D01*
X182524Y532323D01*
X182550Y532304D01*
X182637Y532277D01*
X182722Y532243D01*
X182763Y532239D01*
X182786Y532232D01*
X182818Y532233D01*
X182889Y532225D01*
X205492Y532225D01*
X209728Y530470D01*
X212970Y527228D01*
X214725Y522992D01*
X214725Y518408D01*
X212970Y514172D01*
X209728Y510930D01*
X205492Y509175D01*
X175508Y509175D01*
G37*
%LPD*%
%LPC*%
G36*
X785108Y509175D02*
X785108Y509175D01*
X780872Y510930D01*
X777630Y514172D01*
X775875Y518408D01*
X775875Y522992D01*
X777630Y527228D01*
X780872Y530470D01*
X785108Y532225D01*
X808511Y532225D01*
X808601Y532239D01*
X808692Y532247D01*
X808722Y532259D01*
X808754Y532264D01*
X808834Y532307D01*
X808918Y532343D01*
X808950Y532369D01*
X808971Y532380D01*
X808993Y532403D01*
X809049Y532448D01*
X853427Y576825D01*
X853465Y576879D01*
X853511Y576926D01*
X853551Y576998D01*
X853571Y577025D01*
X853576Y577044D01*
X853592Y577072D01*
X853694Y577319D01*
X856981Y580606D01*
X861276Y582385D01*
X865924Y582385D01*
X870219Y580606D01*
X873506Y577319D01*
X875285Y573024D01*
X875285Y568376D01*
X873506Y564081D01*
X870219Y560794D01*
X869972Y560692D01*
X869917Y560658D01*
X869856Y560632D01*
X869792Y560580D01*
X869763Y560563D01*
X869751Y560547D01*
X869725Y560527D01*
X823477Y514279D01*
X820128Y510930D01*
X815892Y509175D01*
X785108Y509175D01*
G37*
%LPD*%
%LPC*%
G36*
X852808Y394715D02*
X852808Y394715D01*
X851915Y395608D01*
X851915Y401471D01*
X851914Y401479D01*
X851914Y401483D01*
X851911Y401499D01*
X851901Y401561D01*
X851893Y401652D01*
X851881Y401682D01*
X851876Y401714D01*
X851833Y401794D01*
X851797Y401878D01*
X851771Y401910D01*
X851760Y401931D01*
X851737Y401953D01*
X851692Y402009D01*
X820949Y432752D01*
X820875Y432805D01*
X820806Y432865D01*
X820776Y432877D01*
X820750Y432896D01*
X820663Y432923D01*
X820578Y432957D01*
X820537Y432961D01*
X820514Y432968D01*
X820482Y432967D01*
X820411Y432975D01*
X785108Y432975D01*
X780872Y434730D01*
X777630Y437972D01*
X775875Y442208D01*
X775875Y446792D01*
X777630Y451028D01*
X780872Y454270D01*
X785108Y456025D01*
X827792Y456025D01*
X832028Y454270D01*
X867991Y418308D01*
X868065Y418255D01*
X868134Y418195D01*
X868164Y418183D01*
X868190Y418164D01*
X868277Y418137D01*
X868362Y418103D01*
X868403Y418099D01*
X868426Y418092D01*
X868458Y418093D01*
X868529Y418085D01*
X874392Y418085D01*
X875285Y417192D01*
X875285Y395608D01*
X874392Y394715D01*
X852808Y394715D01*
G37*
%LPD*%
%LPC*%
G36*
X124676Y395515D02*
X124676Y395515D01*
X120381Y397294D01*
X117094Y400581D01*
X115315Y404876D01*
X115315Y409524D01*
X117094Y413819D01*
X120381Y417106D01*
X120628Y417208D01*
X120683Y417242D01*
X120744Y417268D01*
X120808Y417320D01*
X120837Y417337D01*
X120849Y417353D01*
X120875Y417373D01*
X154423Y450921D01*
X157772Y454270D01*
X162008Y456025D01*
X205492Y456025D01*
X209728Y454270D01*
X212970Y451028D01*
X214725Y446792D01*
X214725Y442208D01*
X212970Y437972D01*
X209728Y434730D01*
X205492Y432975D01*
X169389Y432975D01*
X169299Y432961D01*
X169208Y432953D01*
X169178Y432941D01*
X169146Y432936D01*
X169066Y432893D01*
X168982Y432857D01*
X168950Y432831D01*
X168929Y432820D01*
X168907Y432797D01*
X168851Y432752D01*
X137173Y401075D01*
X137135Y401021D01*
X137089Y400974D01*
X137049Y400902D01*
X137029Y400875D01*
X137024Y400856D01*
X137008Y400828D01*
X136906Y400581D01*
X133619Y397294D01*
X129324Y395515D01*
X124676Y395515D01*
G37*
%LPD*%
%LPC*%
G36*
X785108Y483775D02*
X785108Y483775D01*
X780872Y485530D01*
X777630Y488772D01*
X775875Y493008D01*
X775875Y497592D01*
X777630Y501828D01*
X780872Y505070D01*
X785108Y506825D01*
X833111Y506825D01*
X833201Y506839D01*
X833292Y506847D01*
X833322Y506859D01*
X833354Y506864D01*
X833434Y506907D01*
X833518Y506943D01*
X833550Y506969D01*
X833571Y506980D01*
X833593Y507003D01*
X833649Y507048D01*
X851692Y525091D01*
X851745Y525165D01*
X851805Y525234D01*
X851817Y525264D01*
X851836Y525290D01*
X851863Y525377D01*
X851897Y525462D01*
X851901Y525503D01*
X851908Y525526D01*
X851907Y525558D01*
X851915Y525629D01*
X851915Y531492D01*
X852808Y532385D01*
X874392Y532385D01*
X875285Y531492D01*
X875285Y509908D01*
X874392Y509015D01*
X868529Y509015D01*
X868439Y509001D01*
X868348Y508993D01*
X868318Y508981D01*
X868286Y508976D01*
X868206Y508933D01*
X868122Y508897D01*
X868090Y508871D01*
X868069Y508860D01*
X868047Y508837D01*
X867991Y508792D01*
X848077Y488879D01*
X844728Y485530D01*
X840492Y483775D01*
X785108Y483775D01*
G37*
%LPD*%
%LPC*%
G36*
X150908Y483775D02*
X150908Y483775D01*
X146672Y485530D01*
X143323Y488879D01*
X120875Y511327D01*
X120821Y511365D01*
X120774Y511411D01*
X120702Y511451D01*
X120675Y511471D01*
X120656Y511476D01*
X120628Y511492D01*
X120381Y511594D01*
X117094Y514881D01*
X115315Y519176D01*
X115315Y523824D01*
X117094Y528119D01*
X120381Y531406D01*
X124676Y533185D01*
X129324Y533185D01*
X133619Y531406D01*
X136906Y528119D01*
X137008Y527872D01*
X137042Y527817D01*
X137068Y527756D01*
X137120Y527692D01*
X137137Y527663D01*
X137153Y527651D01*
X137173Y527625D01*
X157751Y507048D01*
X157825Y506995D01*
X157894Y506935D01*
X157924Y506923D01*
X157950Y506904D01*
X158037Y506877D01*
X158122Y506843D01*
X158163Y506839D01*
X158186Y506832D01*
X158218Y506833D01*
X158289Y506825D01*
X205492Y506825D01*
X209728Y505070D01*
X212970Y501828D01*
X214725Y497592D01*
X214725Y493008D01*
X212970Y488772D01*
X209728Y485530D01*
X205492Y483775D01*
X150908Y483775D01*
G37*
%LPD*%
%LPC*%
G36*
X116208Y445515D02*
X116208Y445515D01*
X115315Y446408D01*
X115315Y467992D01*
X116208Y468885D01*
X122071Y468885D01*
X122161Y468899D01*
X122252Y468907D01*
X122282Y468919D01*
X122314Y468924D01*
X122394Y468967D01*
X122478Y469003D01*
X122510Y469029D01*
X122531Y469040D01*
X122553Y469063D01*
X122609Y469108D01*
X129823Y476321D01*
X133172Y479670D01*
X137408Y481425D01*
X205492Y481425D01*
X209728Y479670D01*
X212970Y476428D01*
X214725Y472192D01*
X214725Y467608D01*
X212970Y463372D01*
X209728Y460130D01*
X205492Y458375D01*
X144789Y458375D01*
X144699Y458361D01*
X144608Y458353D01*
X144578Y458341D01*
X144546Y458336D01*
X144466Y458293D01*
X144382Y458257D01*
X144350Y458231D01*
X144329Y458220D01*
X144307Y458197D01*
X144251Y458152D01*
X138908Y452809D01*
X138855Y452735D01*
X138795Y452666D01*
X138783Y452636D01*
X138764Y452610D01*
X138737Y452523D01*
X138703Y452438D01*
X138699Y452397D01*
X138692Y452374D01*
X138693Y452342D01*
X138685Y452271D01*
X138685Y446408D01*
X137792Y445515D01*
X116208Y445515D01*
G37*
%LPD*%
%LPC*%
G36*
X861276Y444715D02*
X861276Y444715D01*
X856981Y446494D01*
X853694Y449781D01*
X853592Y450028D01*
X853558Y450083D01*
X853532Y450144D01*
X853480Y450208D01*
X853463Y450237D01*
X853447Y450249D01*
X853427Y450275D01*
X845549Y458152D01*
X845475Y458205D01*
X845406Y458265D01*
X845376Y458277D01*
X845350Y458296D01*
X845263Y458323D01*
X845178Y458357D01*
X845137Y458361D01*
X845114Y458368D01*
X845082Y458367D01*
X845011Y458375D01*
X785108Y458375D01*
X780872Y460130D01*
X777630Y463372D01*
X775875Y467608D01*
X775875Y472192D01*
X777630Y476428D01*
X780872Y479670D01*
X785108Y481425D01*
X852392Y481425D01*
X856628Y479670D01*
X869725Y466573D01*
X869779Y466535D01*
X869826Y466489D01*
X869898Y466449D01*
X869925Y466429D01*
X869944Y466424D01*
X869972Y466408D01*
X870219Y466306D01*
X873506Y463019D01*
X875285Y458724D01*
X875285Y454076D01*
X873506Y449781D01*
X870219Y446494D01*
X865924Y444715D01*
X861276Y444715D01*
G37*
%LPD*%
%LPC*%
G36*
X632708Y432975D02*
X632708Y432975D01*
X628472Y434730D01*
X625230Y437972D01*
X623475Y442208D01*
X623475Y472192D01*
X625230Y476428D01*
X628472Y479670D01*
X632708Y481425D01*
X662692Y481425D01*
X666928Y479670D01*
X670170Y476428D01*
X671925Y472192D01*
X671925Y467608D01*
X670170Y463372D01*
X666928Y460130D01*
X662692Y458375D01*
X647286Y458375D01*
X647266Y458372D01*
X647247Y458374D01*
X647145Y458352D01*
X647043Y458336D01*
X647026Y458326D01*
X647006Y458322D01*
X646917Y458269D01*
X646826Y458220D01*
X646812Y458206D01*
X646795Y458196D01*
X646728Y458117D01*
X646656Y458042D01*
X646648Y458024D01*
X646635Y458009D01*
X646596Y457913D01*
X646553Y457819D01*
X646551Y457799D01*
X646543Y457781D01*
X646525Y457614D01*
X646525Y456786D01*
X646528Y456766D01*
X646526Y456747D01*
X646548Y456645D01*
X646564Y456543D01*
X646574Y456526D01*
X646578Y456506D01*
X646631Y456417D01*
X646680Y456326D01*
X646694Y456312D01*
X646704Y456295D01*
X646783Y456228D01*
X646858Y456156D01*
X646876Y456148D01*
X646891Y456135D01*
X646987Y456096D01*
X647081Y456053D01*
X647101Y456051D01*
X647119Y456043D01*
X647286Y456025D01*
X662692Y456025D01*
X666928Y454270D01*
X670170Y451028D01*
X671925Y446792D01*
X671925Y442208D01*
X670170Y437972D01*
X666928Y434730D01*
X662692Y432975D01*
X632708Y432975D01*
G37*
%LPD*%
%LPC*%
G36*
X302508Y483775D02*
X302508Y483775D01*
X298272Y485530D01*
X295030Y488772D01*
X293275Y493008D01*
X293275Y522992D01*
X295030Y527228D01*
X298272Y530470D01*
X302508Y532225D01*
X332492Y532225D01*
X336728Y530470D01*
X339970Y527228D01*
X341725Y522992D01*
X341725Y518408D01*
X339970Y514172D01*
X336728Y510930D01*
X332492Y509175D01*
X317086Y509175D01*
X317066Y509172D01*
X317047Y509174D01*
X316945Y509152D01*
X316843Y509136D01*
X316826Y509126D01*
X316806Y509122D01*
X316717Y509069D01*
X316626Y509020D01*
X316612Y509006D01*
X316595Y508996D01*
X316528Y508917D01*
X316456Y508842D01*
X316448Y508824D01*
X316435Y508809D01*
X316396Y508713D01*
X316353Y508619D01*
X316351Y508599D01*
X316343Y508581D01*
X316325Y508414D01*
X316325Y507586D01*
X316328Y507566D01*
X316326Y507547D01*
X316348Y507445D01*
X316364Y507343D01*
X316374Y507326D01*
X316378Y507306D01*
X316431Y507217D01*
X316480Y507126D01*
X316494Y507112D01*
X316504Y507095D01*
X316583Y507028D01*
X316658Y506956D01*
X316676Y506948D01*
X316691Y506935D01*
X316787Y506896D01*
X316881Y506853D01*
X316901Y506851D01*
X316919Y506843D01*
X317086Y506825D01*
X332492Y506825D01*
X336728Y505070D01*
X339970Y501828D01*
X341725Y497592D01*
X341725Y493008D01*
X339970Y488772D01*
X336728Y485530D01*
X332492Y483775D01*
X302508Y483775D01*
G37*
%LPD*%
%LPC*%
G36*
X251708Y153575D02*
X251708Y153575D01*
X247472Y155330D01*
X244230Y158572D01*
X242475Y162808D01*
X242475Y218192D01*
X244230Y222428D01*
X247472Y225670D01*
X251708Y227425D01*
X256292Y227425D01*
X260528Y225670D01*
X263770Y222428D01*
X265525Y218192D01*
X265525Y162808D01*
X263770Y158572D01*
X260528Y155330D01*
X256292Y153575D01*
X251708Y153575D01*
G37*
%LPD*%
%LPC*%
G36*
X327908Y153575D02*
X327908Y153575D01*
X323672Y155330D01*
X320430Y158572D01*
X318675Y162808D01*
X318675Y218192D01*
X320430Y222428D01*
X323672Y225670D01*
X327908Y227425D01*
X332492Y227425D01*
X336728Y225670D01*
X339970Y222428D01*
X341725Y218192D01*
X341725Y162808D01*
X339970Y158572D01*
X336728Y155330D01*
X332492Y153575D01*
X327908Y153575D01*
G37*
%LPD*%
%LPC*%
G36*
X409468Y548275D02*
X409468Y548275D01*
X408575Y549168D01*
X408575Y568432D01*
X409468Y569325D01*
X428732Y569325D01*
X429625Y568432D01*
X429625Y549168D01*
X428732Y548275D01*
X409468Y548275D01*
G37*
%LPD*%
%LPC*%
G36*
X947901Y939446D02*
X947901Y939446D01*
X944021Y941052D01*
X941052Y944021D01*
X939446Y947901D01*
X939446Y952099D01*
X941052Y955979D01*
X944021Y958948D01*
X947901Y960554D01*
X952099Y960554D01*
X955979Y958948D01*
X958948Y955979D01*
X960554Y952099D01*
X960554Y947901D01*
X958948Y944021D01*
X955979Y941052D01*
X952099Y939446D01*
X947901Y939446D01*
G37*
%LPD*%
%LPC*%
G36*
X47901Y939446D02*
X47901Y939446D01*
X44021Y941052D01*
X41052Y944021D01*
X39446Y947901D01*
X39446Y952099D01*
X41052Y955979D01*
X44021Y958948D01*
X47901Y960554D01*
X52099Y960554D01*
X55979Y958948D01*
X58948Y955979D01*
X60554Y952099D01*
X60554Y947901D01*
X58948Y944021D01*
X55979Y941052D01*
X52099Y939446D01*
X47901Y939446D01*
G37*
%LPD*%
%LPC*%
G36*
X947901Y39446D02*
X947901Y39446D01*
X944021Y41052D01*
X941052Y44021D01*
X939446Y47901D01*
X939446Y52099D01*
X941052Y55979D01*
X944021Y58948D01*
X947901Y60554D01*
X952099Y60554D01*
X955979Y58948D01*
X958948Y55979D01*
X960554Y52099D01*
X960554Y47901D01*
X958948Y44021D01*
X955979Y41052D01*
X952099Y39446D01*
X947901Y39446D01*
G37*
%LPD*%
%LPC*%
G36*
X47901Y39446D02*
X47901Y39446D01*
X44021Y41052D01*
X41052Y44021D01*
X39446Y47901D01*
X39446Y52099D01*
X41052Y55979D01*
X44021Y58948D01*
X47901Y60554D01*
X52099Y60554D01*
X55979Y58948D01*
X58948Y55979D01*
X60554Y52099D01*
X60554Y47901D01*
X58948Y44021D01*
X55979Y41052D01*
X52099Y39446D01*
X47901Y39446D01*
G37*
%LPD*%
%LPC*%
G36*
X417007Y522875D02*
X417007Y522875D01*
X413138Y524478D01*
X410178Y527438D01*
X408575Y531307D01*
X408575Y535493D01*
X410178Y539362D01*
X413138Y542322D01*
X417007Y543925D01*
X421193Y543925D01*
X425062Y542322D01*
X428022Y539362D01*
X429625Y535493D01*
X429625Y531307D01*
X428022Y527438D01*
X425062Y524478D01*
X421193Y522875D01*
X417007Y522875D01*
G37*
%LPD*%
%LPC*%
G36*
X569407Y446675D02*
X569407Y446675D01*
X565538Y448278D01*
X562578Y451238D01*
X560975Y455107D01*
X560975Y459293D01*
X562578Y463162D01*
X565538Y466122D01*
X569407Y467725D01*
X573593Y467725D01*
X577462Y466122D01*
X580422Y463162D01*
X582025Y459293D01*
X582025Y455107D01*
X580422Y451238D01*
X577462Y448278D01*
X573593Y446675D01*
X569407Y446675D01*
G37*
%LPD*%
%LPC*%
G36*
X569407Y421275D02*
X569407Y421275D01*
X565538Y422878D01*
X562578Y425838D01*
X560975Y429707D01*
X560975Y433893D01*
X562578Y437762D01*
X565538Y440722D01*
X569407Y442325D01*
X573593Y442325D01*
X577462Y440722D01*
X580422Y437762D01*
X582025Y433893D01*
X582025Y429707D01*
X580422Y425838D01*
X577462Y422878D01*
X573593Y421275D01*
X569407Y421275D01*
G37*
%LPD*%
%LPC*%
G36*
X569407Y395875D02*
X569407Y395875D01*
X565538Y397478D01*
X562578Y400438D01*
X560975Y404307D01*
X560975Y408493D01*
X562578Y412362D01*
X565538Y415322D01*
X569407Y416925D01*
X573593Y416925D01*
X577462Y415322D01*
X580422Y412362D01*
X582025Y408493D01*
X582025Y404307D01*
X580422Y400438D01*
X577462Y397478D01*
X573593Y395875D01*
X569407Y395875D01*
G37*
%LPD*%
%LPC*%
G36*
X569407Y370475D02*
X569407Y370475D01*
X565538Y372078D01*
X562578Y375038D01*
X560975Y378907D01*
X560975Y383093D01*
X562578Y386962D01*
X565538Y389922D01*
X569407Y391525D01*
X573593Y391525D01*
X577462Y389922D01*
X580422Y386962D01*
X582025Y383093D01*
X582025Y378907D01*
X580422Y375038D01*
X577462Y372078D01*
X573593Y370475D01*
X569407Y370475D01*
G37*
%LPD*%
%LPC*%
G36*
X569407Y345075D02*
X569407Y345075D01*
X565538Y346678D01*
X562578Y349638D01*
X560975Y353507D01*
X560975Y357693D01*
X562578Y361562D01*
X565538Y364522D01*
X569407Y366125D01*
X573593Y366125D01*
X577462Y364522D01*
X580422Y361562D01*
X582025Y357693D01*
X582025Y353507D01*
X580422Y349638D01*
X577462Y346678D01*
X573593Y345075D01*
X569407Y345075D01*
G37*
%LPD*%
%LPC*%
G36*
X569407Y319675D02*
X569407Y319675D01*
X565538Y321278D01*
X562578Y324238D01*
X560975Y328107D01*
X560975Y332293D01*
X562578Y336162D01*
X565538Y339122D01*
X569407Y340725D01*
X573593Y340725D01*
X577462Y339122D01*
X580422Y336162D01*
X582025Y332293D01*
X582025Y328107D01*
X580422Y324238D01*
X577462Y321278D01*
X573593Y319675D01*
X569407Y319675D01*
G37*
%LPD*%
%LPC*%
G36*
X569407Y294275D02*
X569407Y294275D01*
X565538Y295878D01*
X562578Y298838D01*
X560975Y302707D01*
X560975Y306893D01*
X562578Y310762D01*
X565538Y313722D01*
X569407Y315325D01*
X573593Y315325D01*
X577462Y313722D01*
X580422Y310762D01*
X582025Y306893D01*
X582025Y302707D01*
X580422Y298838D01*
X577462Y295878D01*
X573593Y294275D01*
X569407Y294275D01*
G37*
%LPD*%
%LPC*%
G36*
X569407Y268875D02*
X569407Y268875D01*
X565538Y270478D01*
X562578Y273438D01*
X560975Y277307D01*
X560975Y281493D01*
X562578Y285362D01*
X565538Y288322D01*
X569407Y289925D01*
X573593Y289925D01*
X577462Y288322D01*
X580422Y285362D01*
X582025Y281493D01*
X582025Y277307D01*
X580422Y273438D01*
X577462Y270478D01*
X573593Y268875D01*
X569407Y268875D01*
G37*
%LPD*%
%LPC*%
G36*
X569407Y243475D02*
X569407Y243475D01*
X565538Y245078D01*
X562578Y248038D01*
X560975Y251907D01*
X560975Y256093D01*
X562578Y259962D01*
X565538Y262922D01*
X569407Y264525D01*
X573593Y264525D01*
X577462Y262922D01*
X580422Y259962D01*
X582025Y256093D01*
X582025Y251907D01*
X580422Y248038D01*
X577462Y245078D01*
X573593Y243475D01*
X569407Y243475D01*
G37*
%LPD*%
%LPC*%
G36*
X417007Y218075D02*
X417007Y218075D01*
X413138Y219678D01*
X410178Y222638D01*
X408575Y226507D01*
X408575Y230693D01*
X410178Y234562D01*
X413138Y237522D01*
X417007Y239125D01*
X421193Y239125D01*
X425062Y237522D01*
X428022Y234562D01*
X429625Y230693D01*
X429625Y226507D01*
X428022Y222638D01*
X425062Y219678D01*
X421193Y218075D01*
X417007Y218075D01*
G37*
%LPD*%
%LPC*%
G36*
X569407Y192675D02*
X569407Y192675D01*
X565538Y194278D01*
X562578Y197238D01*
X560975Y201107D01*
X560975Y205293D01*
X562578Y209162D01*
X565538Y212122D01*
X569407Y213725D01*
X573593Y213725D01*
X577462Y212122D01*
X580422Y209162D01*
X582025Y205293D01*
X582025Y201107D01*
X580422Y197238D01*
X577462Y194278D01*
X573593Y192675D01*
X569407Y192675D01*
G37*
%LPD*%
%LPC*%
G36*
X417007Y192675D02*
X417007Y192675D01*
X413138Y194278D01*
X410178Y197238D01*
X408575Y201107D01*
X408575Y205293D01*
X410178Y209162D01*
X413138Y212122D01*
X417007Y213725D01*
X421193Y213725D01*
X425062Y212122D01*
X428022Y209162D01*
X429625Y205293D01*
X429625Y201107D01*
X428022Y197238D01*
X425062Y194278D01*
X421193Y192675D01*
X417007Y192675D01*
G37*
%LPD*%
%LPC*%
G36*
X569407Y218075D02*
X569407Y218075D01*
X565538Y219678D01*
X562578Y222638D01*
X560975Y226507D01*
X560975Y230693D01*
X562578Y234562D01*
X565538Y237522D01*
X569407Y239125D01*
X573593Y239125D01*
X577462Y237522D01*
X580422Y234562D01*
X582025Y230693D01*
X582025Y226507D01*
X580422Y222638D01*
X577462Y219678D01*
X573593Y218075D01*
X569407Y218075D01*
G37*
%LPD*%
%LPC*%
G36*
X569407Y548275D02*
X569407Y548275D01*
X565538Y549878D01*
X562578Y552838D01*
X560975Y556707D01*
X560975Y560893D01*
X562578Y564762D01*
X565538Y567722D01*
X569407Y569325D01*
X573593Y569325D01*
X577462Y567722D01*
X580422Y564762D01*
X582025Y560893D01*
X582025Y556707D01*
X580422Y552838D01*
X577462Y549878D01*
X573593Y548275D01*
X569407Y548275D01*
G37*
%LPD*%
%LPC*%
G36*
X569407Y497475D02*
X569407Y497475D01*
X565538Y499078D01*
X562578Y502038D01*
X560975Y505907D01*
X560975Y510093D01*
X562578Y513962D01*
X565538Y516922D01*
X569407Y518525D01*
X573593Y518525D01*
X577462Y516922D01*
X580422Y513962D01*
X582025Y510093D01*
X582025Y505907D01*
X580422Y502038D01*
X577462Y499078D01*
X573593Y497475D01*
X569407Y497475D01*
G37*
%LPD*%
%LPC*%
G36*
X417007Y497475D02*
X417007Y497475D01*
X413138Y499078D01*
X410178Y502038D01*
X408575Y505907D01*
X408575Y510093D01*
X410178Y513962D01*
X413138Y516922D01*
X417007Y518525D01*
X421193Y518525D01*
X425062Y516922D01*
X428022Y513962D01*
X429625Y510093D01*
X429625Y505907D01*
X428022Y502038D01*
X425062Y499078D01*
X421193Y497475D01*
X417007Y497475D01*
G37*
%LPD*%
%LPC*%
G36*
X321918Y384525D02*
X321918Y384525D01*
X321025Y385418D01*
X321025Y401982D01*
X321918Y402875D01*
X338482Y402875D01*
X339375Y401982D01*
X339375Y385418D01*
X338482Y384525D01*
X321918Y384525D01*
G37*
%LPD*%
%LPC*%
G36*
X652118Y562325D02*
X652118Y562325D01*
X651225Y563218D01*
X651225Y579782D01*
X652118Y580675D01*
X668682Y580675D01*
X669575Y579782D01*
X669575Y563218D01*
X668682Y562325D01*
X652118Y562325D01*
G37*
%LPD*%
%LPC*%
G36*
X328375Y409925D02*
X328375Y409925D01*
X325003Y411322D01*
X322422Y413903D01*
X321025Y417275D01*
X321025Y420925D01*
X322422Y424297D01*
X325003Y426878D01*
X328375Y428275D01*
X332025Y428275D01*
X335397Y426878D01*
X337978Y424297D01*
X339375Y420925D01*
X339375Y417275D01*
X337978Y413903D01*
X335397Y411322D01*
X332025Y409925D01*
X328375Y409925D01*
G37*
%LPD*%
%LPC*%
G36*
X658575Y511525D02*
X658575Y511525D01*
X655203Y512922D01*
X652622Y515503D01*
X651225Y518875D01*
X651225Y522525D01*
X652622Y525897D01*
X655203Y528478D01*
X658575Y529875D01*
X662225Y529875D01*
X665597Y528478D01*
X668178Y525897D01*
X669575Y522525D01*
X669575Y518875D01*
X668178Y515503D01*
X665597Y512922D01*
X662225Y511525D01*
X658575Y511525D01*
G37*
%LPD*%
%LPC*%
G36*
X328375Y435325D02*
X328375Y435325D01*
X325003Y436722D01*
X322422Y439303D01*
X321025Y442675D01*
X321025Y446325D01*
X322422Y449697D01*
X325003Y452278D01*
X328375Y453675D01*
X332025Y453675D01*
X335397Y452278D01*
X337978Y449697D01*
X339375Y446325D01*
X339375Y442675D01*
X337978Y439303D01*
X335397Y436722D01*
X332025Y435325D01*
X328375Y435325D01*
G37*
%LPD*%
%LPC*%
G36*
X328375Y460725D02*
X328375Y460725D01*
X325003Y462122D01*
X322422Y464703D01*
X321025Y468075D01*
X321025Y471725D01*
X322422Y475097D01*
X325003Y477678D01*
X328375Y479075D01*
X332025Y479075D01*
X335397Y477678D01*
X337978Y475097D01*
X339375Y471725D01*
X339375Y468075D01*
X337978Y464703D01*
X335397Y462122D01*
X332025Y460725D01*
X328375Y460725D01*
G37*
%LPD*%
%LPC*%
G36*
X658575Y536925D02*
X658575Y536925D01*
X655203Y538322D01*
X652622Y540903D01*
X651225Y544275D01*
X651225Y547925D01*
X652622Y551297D01*
X655203Y553878D01*
X658575Y555275D01*
X662225Y555275D01*
X665597Y553878D01*
X668178Y551297D01*
X669575Y547925D01*
X669575Y544275D01*
X668178Y540903D01*
X665597Y538322D01*
X662225Y536925D01*
X658575Y536925D01*
G37*
%LPD*%
%LPC*%
G36*
X658575Y486125D02*
X658575Y486125D01*
X655203Y487522D01*
X652622Y490103D01*
X651225Y493475D01*
X651225Y497125D01*
X652622Y500497D01*
X655203Y503078D01*
X658575Y504475D01*
X662225Y504475D01*
X665597Y503078D01*
X668178Y500497D01*
X669575Y497125D01*
X669575Y493475D01*
X668178Y490103D01*
X665597Y487522D01*
X662225Y486125D01*
X658575Y486125D01*
G37*
%LPD*%
%LPC*%
G36*
X623823Y890523D02*
X623823Y890523D01*
X623823Y901701D01*
X632794Y901701D01*
X633441Y901528D01*
X634020Y901193D01*
X634493Y900720D01*
X634828Y900141D01*
X635001Y899494D01*
X635001Y890523D01*
X623823Y890523D01*
G37*
%LPD*%
%LPC*%
G36*
X609599Y890523D02*
X609599Y890523D01*
X609599Y899494D01*
X609772Y900141D01*
X610107Y900720D01*
X610580Y901193D01*
X611159Y901528D01*
X611806Y901701D01*
X620777Y901701D01*
X620777Y890523D01*
X609599Y890523D01*
G37*
%LPD*%
%LPC*%
G36*
X623823Y876299D02*
X623823Y876299D01*
X623823Y887477D01*
X635001Y887477D01*
X635001Y878506D01*
X634828Y877859D01*
X634493Y877280D01*
X634020Y876807D01*
X633441Y876472D01*
X632794Y876299D01*
X623823Y876299D01*
G37*
%LPD*%
%LPC*%
G36*
X611806Y876299D02*
X611806Y876299D01*
X611159Y876472D01*
X610580Y876807D01*
X610107Y877280D01*
X609772Y877859D01*
X609599Y878506D01*
X609599Y887477D01*
X620777Y887477D01*
X620777Y876299D01*
X611806Y876299D01*
G37*
%LPD*%
%LPC*%
G36*
X356323Y890523D02*
X356323Y890523D01*
X356323Y901618D01*
X357774Y901388D01*
X359675Y900770D01*
X361457Y899863D01*
X363074Y898687D01*
X364487Y897274D01*
X365663Y895657D01*
X366570Y893875D01*
X367188Y891974D01*
X367418Y890523D01*
X356323Y890523D01*
G37*
%LPD*%
%LPC*%
G36*
X673823Y890523D02*
X673823Y890523D01*
X673823Y901618D01*
X675274Y901388D01*
X677175Y900770D01*
X678957Y899863D01*
X680574Y898687D01*
X681987Y897274D01*
X683163Y895657D01*
X684070Y893875D01*
X684688Y891974D01*
X684918Y890523D01*
X673823Y890523D01*
G37*
%LPD*%
%LPC*%
G36*
X584923Y65023D02*
X584923Y65023D01*
X584923Y76118D01*
X586374Y75888D01*
X588275Y75270D01*
X590057Y74363D01*
X591674Y73187D01*
X593087Y71774D01*
X594263Y70157D01*
X595170Y68375D01*
X595788Y66474D01*
X596018Y65023D01*
X584923Y65023D01*
G37*
%LPD*%
%LPC*%
G36*
X865123Y116623D02*
X865123Y116623D01*
X865123Y127718D01*
X866574Y127488D01*
X868475Y126870D01*
X870257Y125963D01*
X871874Y124787D01*
X873287Y123374D01*
X874463Y121757D01*
X875370Y119975D01*
X875988Y118074D01*
X876218Y116623D01*
X865123Y116623D01*
G37*
%LPD*%
%LPC*%
G36*
X128523Y116623D02*
X128523Y116623D01*
X128523Y127718D01*
X129974Y127488D01*
X131875Y126870D01*
X133657Y125963D01*
X135274Y124787D01*
X136687Y123374D01*
X137863Y121757D01*
X138770Y119975D01*
X139388Y118074D01*
X139618Y116623D01*
X128523Y116623D01*
G37*
%LPD*%
%LPC*%
G36*
X342182Y890523D02*
X342182Y890523D01*
X342412Y891974D01*
X343030Y893875D01*
X343937Y895657D01*
X345113Y897274D01*
X346526Y898687D01*
X348143Y899863D01*
X349925Y900770D01*
X351826Y901388D01*
X353277Y901618D01*
X353277Y890523D01*
X342182Y890523D01*
G37*
%LPD*%
%LPC*%
G36*
X659682Y890523D02*
X659682Y890523D01*
X659912Y891974D01*
X660530Y893875D01*
X661437Y895657D01*
X662613Y897274D01*
X664026Y898687D01*
X665643Y899863D01*
X667425Y900770D01*
X669326Y901388D01*
X670777Y901618D01*
X670777Y890523D01*
X659682Y890523D01*
G37*
%LPD*%
%LPC*%
G36*
X114382Y116623D02*
X114382Y116623D01*
X114612Y118074D01*
X115230Y119975D01*
X116137Y121757D01*
X117313Y123374D01*
X118726Y124787D01*
X120343Y125963D01*
X122125Y126870D01*
X124026Y127488D01*
X125477Y127718D01*
X125477Y116623D01*
X114382Y116623D01*
G37*
%LPD*%
%LPC*%
G36*
X356323Y887477D02*
X356323Y887477D01*
X367418Y887477D01*
X367188Y886026D01*
X366570Y884125D01*
X365663Y882343D01*
X364487Y880726D01*
X363074Y879313D01*
X361457Y878137D01*
X359675Y877230D01*
X357774Y876612D01*
X356323Y876382D01*
X356323Y887477D01*
G37*
%LPD*%
%LPC*%
G36*
X128523Y113577D02*
X128523Y113577D01*
X139618Y113577D01*
X139388Y112126D01*
X138770Y110225D01*
X137863Y108443D01*
X136687Y106826D01*
X135274Y105413D01*
X133657Y104237D01*
X131875Y103330D01*
X129974Y102712D01*
X128523Y102482D01*
X128523Y113577D01*
G37*
%LPD*%
%LPC*%
G36*
X850982Y116623D02*
X850982Y116623D01*
X851212Y118074D01*
X851830Y119975D01*
X852737Y121757D01*
X853913Y123374D01*
X855326Y124787D01*
X856943Y125963D01*
X858725Y126870D01*
X860626Y127488D01*
X862077Y127718D01*
X862077Y116623D01*
X850982Y116623D01*
G37*
%LPD*%
%LPC*%
G36*
X673823Y887477D02*
X673823Y887477D01*
X684918Y887477D01*
X684688Y886026D01*
X684070Y884125D01*
X683163Y882343D01*
X681987Y880726D01*
X680574Y879313D01*
X678957Y878137D01*
X677175Y877230D01*
X675274Y876612D01*
X673823Y876382D01*
X673823Y887477D01*
G37*
%LPD*%
%LPC*%
G36*
X865123Y113577D02*
X865123Y113577D01*
X876218Y113577D01*
X875988Y112126D01*
X875370Y110225D01*
X874463Y108443D01*
X873287Y106826D01*
X871874Y105413D01*
X870257Y104237D01*
X868475Y103330D01*
X866574Y102712D01*
X865123Y102482D01*
X865123Y113577D01*
G37*
%LPD*%
%LPC*%
G36*
X570782Y65023D02*
X570782Y65023D01*
X571012Y66474D01*
X571630Y68375D01*
X572537Y70157D01*
X573713Y71774D01*
X575126Y73187D01*
X576743Y74363D01*
X578525Y75270D01*
X580426Y75888D01*
X581877Y76118D01*
X581877Y65023D01*
X570782Y65023D01*
G37*
%LPD*%
%LPC*%
G36*
X584923Y61977D02*
X584923Y61977D01*
X596018Y61977D01*
X595788Y60526D01*
X595170Y58625D01*
X594263Y56843D01*
X593087Y55226D01*
X591674Y53813D01*
X590057Y52637D01*
X588275Y51730D01*
X586374Y51112D01*
X584923Y50882D01*
X584923Y61977D01*
G37*
%LPD*%
%LPC*%
G36*
X351826Y876612D02*
X351826Y876612D01*
X349925Y877230D01*
X348143Y878137D01*
X346526Y879313D01*
X345113Y880726D01*
X343937Y882343D01*
X343030Y884125D01*
X342412Y886026D01*
X342182Y887477D01*
X353277Y887477D01*
X353277Y876382D01*
X351826Y876612D01*
G37*
%LPD*%
%LPC*%
G36*
X669326Y876612D02*
X669326Y876612D01*
X667425Y877230D01*
X665643Y878137D01*
X664026Y879313D01*
X662613Y880726D01*
X661437Y882343D01*
X660530Y884125D01*
X659912Y886026D01*
X659682Y887477D01*
X670777Y887477D01*
X670777Y876382D01*
X669326Y876612D01*
G37*
%LPD*%
%LPC*%
G36*
X580426Y51112D02*
X580426Y51112D01*
X578525Y51730D01*
X576743Y52637D01*
X575126Y53813D01*
X573713Y55226D01*
X572537Y56843D01*
X571630Y58625D01*
X571012Y60526D01*
X570782Y61977D01*
X581877Y61977D01*
X581877Y50882D01*
X580426Y51112D01*
G37*
%LPD*%
%LPC*%
G36*
X860626Y102712D02*
X860626Y102712D01*
X858725Y103330D01*
X856943Y104237D01*
X855326Y105413D01*
X853913Y106826D01*
X852737Y108443D01*
X851830Y110225D01*
X851212Y112126D01*
X850982Y113577D01*
X862077Y113577D01*
X862077Y102482D01*
X860626Y102712D01*
G37*
%LPD*%
%LPC*%
G36*
X124026Y102712D02*
X124026Y102712D01*
X122125Y103330D01*
X120343Y104237D01*
X118726Y105413D01*
X117313Y106826D01*
X116137Y108443D01*
X115230Y110225D01*
X114612Y112126D01*
X114382Y113577D01*
X125477Y113577D01*
X125477Y102482D01*
X124026Y102712D01*
G37*
%LPD*%
%LPC*%
G36*
X288223Y643823D02*
X288223Y643823D01*
X288223Y654756D01*
X289637Y654532D01*
X291514Y653922D01*
X293273Y653026D01*
X294870Y651866D01*
X296266Y650470D01*
X297426Y648873D01*
X298322Y647114D01*
X298932Y645237D01*
X299156Y643823D01*
X288223Y643823D01*
G37*
%LPD*%
%LPC*%
G36*
X678223Y643823D02*
X678223Y643823D01*
X678223Y654756D01*
X679637Y654532D01*
X681514Y653922D01*
X683273Y653026D01*
X684870Y651866D01*
X686266Y650470D01*
X687426Y648873D01*
X688322Y647114D01*
X688932Y645237D01*
X689156Y643823D01*
X678223Y643823D01*
G37*
%LPD*%
%LPC*%
G36*
X664244Y643823D02*
X664244Y643823D01*
X664468Y645237D01*
X665078Y647114D01*
X665974Y648873D01*
X667134Y650470D01*
X668530Y651866D01*
X670127Y653026D01*
X671886Y653922D01*
X673763Y654532D01*
X675177Y654756D01*
X675177Y643823D01*
X664244Y643823D01*
G37*
%LPD*%
%LPC*%
G36*
X274244Y643823D02*
X274244Y643823D01*
X274468Y645237D01*
X275078Y647114D01*
X275974Y648873D01*
X277134Y650470D01*
X278530Y651866D01*
X280127Y653026D01*
X281886Y653922D01*
X283763Y654532D01*
X285177Y654756D01*
X285177Y643823D01*
X274244Y643823D01*
G37*
%LPD*%
%LPC*%
G36*
X678223Y640777D02*
X678223Y640777D01*
X689156Y640777D01*
X688932Y639363D01*
X688322Y637486D01*
X687426Y635727D01*
X686266Y634130D01*
X684870Y632734D01*
X683273Y631574D01*
X681514Y630678D01*
X679637Y630068D01*
X678223Y629844D01*
X678223Y640777D01*
G37*
%LPD*%
%LPC*%
G36*
X288223Y640777D02*
X288223Y640777D01*
X299156Y640777D01*
X298932Y639363D01*
X298322Y637486D01*
X297426Y635727D01*
X296266Y634130D01*
X294870Y632734D01*
X293273Y631574D01*
X291514Y630678D01*
X289637Y630068D01*
X288223Y629844D01*
X288223Y640777D01*
G37*
%LPD*%
%LPC*%
G36*
X673763Y630068D02*
X673763Y630068D01*
X671886Y630678D01*
X670127Y631574D01*
X668530Y632734D01*
X667134Y634130D01*
X665974Y635727D01*
X665078Y637486D01*
X664468Y639363D01*
X664244Y640777D01*
X675177Y640777D01*
X675177Y629844D01*
X673763Y630068D01*
G37*
%LPD*%
%LPC*%
G36*
X283763Y630068D02*
X283763Y630068D01*
X281886Y630678D01*
X280127Y631574D01*
X278530Y632734D01*
X277134Y634130D01*
X275974Y635727D01*
X275078Y637486D01*
X274468Y639363D01*
X274244Y640777D01*
X285177Y640777D01*
X285177Y629844D01*
X283763Y630068D01*
G37*
%LPD*%
%LPC*%
G36*
X331723Y141223D02*
X331723Y141223D01*
X331723Y151546D01*
X332996Y151345D01*
X334783Y150764D01*
X336457Y149911D01*
X337978Y148806D01*
X339306Y147478D01*
X340411Y145957D01*
X341264Y144283D01*
X341845Y142496D01*
X342046Y141223D01*
X331723Y141223D01*
G37*
%LPD*%
%LPC*%
G36*
X255523Y141223D02*
X255523Y141223D01*
X255523Y151546D01*
X256796Y151345D01*
X258583Y150764D01*
X260257Y149911D01*
X261778Y148806D01*
X263106Y147478D01*
X264211Y145957D01*
X265064Y144283D01*
X265645Y142496D01*
X265846Y141223D01*
X255523Y141223D01*
G37*
%LPD*%
%LPC*%
G36*
X331723Y138177D02*
X331723Y138177D01*
X342046Y138177D01*
X341845Y136904D01*
X341264Y135117D01*
X340411Y133443D01*
X339306Y131922D01*
X337978Y130594D01*
X336457Y129489D01*
X334783Y128636D01*
X332996Y128055D01*
X331723Y127854D01*
X331723Y138177D01*
G37*
%LPD*%
%LPC*%
G36*
X255523Y138177D02*
X255523Y138177D01*
X265846Y138177D01*
X265645Y136904D01*
X265064Y135117D01*
X264211Y133443D01*
X263106Y131922D01*
X261778Y130594D01*
X260257Y129489D01*
X258583Y128636D01*
X256796Y128055D01*
X255523Y127854D01*
X255523Y138177D01*
G37*
%LPD*%
%LPC*%
G36*
X318354Y141223D02*
X318354Y141223D01*
X318555Y142496D01*
X319136Y144283D01*
X319989Y145957D01*
X321094Y147478D01*
X322422Y148806D01*
X323943Y149911D01*
X325617Y150764D01*
X327404Y151345D01*
X328677Y151546D01*
X328677Y141223D01*
X318354Y141223D01*
G37*
%LPD*%
%LPC*%
G36*
X242154Y141223D02*
X242154Y141223D01*
X242355Y142496D01*
X242936Y144283D01*
X243789Y145957D01*
X244894Y147478D01*
X246222Y148806D01*
X247743Y149911D01*
X249417Y150764D01*
X251204Y151345D01*
X252477Y151546D01*
X252477Y141223D01*
X242154Y141223D01*
G37*
%LPD*%
%LPC*%
G36*
X251204Y128055D02*
X251204Y128055D01*
X249417Y128636D01*
X247743Y129489D01*
X246222Y130594D01*
X244894Y131922D01*
X243789Y133443D01*
X242936Y135117D01*
X242355Y136904D01*
X242154Y138177D01*
X252477Y138177D01*
X252477Y127854D01*
X251204Y128055D01*
G37*
%LPD*%
%LPC*%
G36*
X327404Y128055D02*
X327404Y128055D01*
X325617Y128636D01*
X323943Y129489D01*
X322422Y130594D01*
X321094Y131922D01*
X319989Y133443D01*
X319136Y135117D01*
X318555Y136904D01*
X318354Y138177D01*
X328677Y138177D01*
X328677Y127854D01*
X327404Y128055D01*
G37*
%LPD*%
%LPC*%
G36*
X573023Y534923D02*
X573023Y534923D01*
X573023Y544843D01*
X574202Y544657D01*
X575930Y544095D01*
X577549Y543271D01*
X579018Y542203D01*
X580303Y540918D01*
X581371Y539449D01*
X582195Y537830D01*
X582757Y536102D01*
X582943Y534923D01*
X573023Y534923D01*
G37*
%LPD*%
%LPC*%
G36*
X420623Y484123D02*
X420623Y484123D01*
X420623Y494043D01*
X421802Y493857D01*
X423530Y493295D01*
X425149Y492471D01*
X426618Y491403D01*
X427903Y490118D01*
X428971Y488649D01*
X429795Y487030D01*
X430357Y485302D01*
X430543Y484123D01*
X420623Y484123D01*
G37*
%LPD*%
%LPC*%
G36*
X420623Y481077D02*
X420623Y481077D01*
X430543Y481077D01*
X430357Y479898D01*
X429795Y478170D01*
X428971Y476551D01*
X427903Y475082D01*
X426618Y473797D01*
X425149Y472729D01*
X423530Y471905D01*
X421802Y471343D01*
X420623Y471157D01*
X420623Y481077D01*
G37*
%LPD*%
%LPC*%
G36*
X407657Y484123D02*
X407657Y484123D01*
X407843Y485302D01*
X408405Y487030D01*
X409229Y488649D01*
X410297Y490118D01*
X411582Y491403D01*
X413051Y492471D01*
X414670Y493295D01*
X416398Y493857D01*
X417577Y494043D01*
X417577Y484123D01*
X407657Y484123D01*
G37*
%LPD*%
%LPC*%
G36*
X573023Y531877D02*
X573023Y531877D01*
X582943Y531877D01*
X582757Y530698D01*
X582195Y528970D01*
X581371Y527351D01*
X580303Y525882D01*
X579018Y524597D01*
X577549Y523529D01*
X575930Y522705D01*
X574202Y522143D01*
X573023Y521957D01*
X573023Y531877D01*
G37*
%LPD*%
%LPC*%
G36*
X560057Y534923D02*
X560057Y534923D01*
X560243Y536102D01*
X560805Y537830D01*
X561629Y539449D01*
X562697Y540918D01*
X563982Y542203D01*
X565451Y543271D01*
X567070Y544095D01*
X568798Y544657D01*
X569977Y544843D01*
X569977Y534923D01*
X560057Y534923D01*
G37*
%LPD*%
%LPC*%
G36*
X568798Y522143D02*
X568798Y522143D01*
X567070Y522705D01*
X565451Y523529D01*
X563982Y524597D01*
X562697Y525882D01*
X561629Y527351D01*
X560805Y528970D01*
X560243Y530698D01*
X560057Y531877D01*
X569977Y531877D01*
X569977Y521957D01*
X568798Y522143D01*
G37*
%LPD*%
%LPC*%
G36*
X416398Y471343D02*
X416398Y471343D01*
X414670Y471905D01*
X413051Y472729D01*
X411582Y473797D01*
X410297Y475082D01*
X409229Y476551D01*
X408405Y478170D01*
X407843Y479898D01*
X407657Y481077D01*
X417577Y481077D01*
X417577Y471157D01*
X416398Y471343D01*
G37*
%LPD*%
%LPC*%
G36*
X204723Y420623D02*
X204723Y420623D01*
X204723Y429177D01*
X205586Y429040D01*
X207112Y428544D01*
X208541Y427816D01*
X209839Y426873D01*
X210973Y425739D01*
X211916Y424441D01*
X212644Y423012D01*
X213140Y421486D01*
X213277Y420623D01*
X204723Y420623D01*
G37*
%LPD*%
%LPC*%
G36*
X204723Y573023D02*
X204723Y573023D01*
X204723Y581577D01*
X205586Y581440D01*
X207112Y580944D01*
X208541Y580216D01*
X209839Y579273D01*
X210973Y578139D01*
X211916Y576841D01*
X212644Y575412D01*
X213140Y573886D01*
X213277Y573023D01*
X204723Y573023D01*
G37*
%LPD*%
%LPC*%
G36*
X788923Y395223D02*
X788923Y395223D01*
X788923Y403777D01*
X789786Y403640D01*
X791312Y403144D01*
X792741Y402416D01*
X794039Y401473D01*
X795173Y400339D01*
X796116Y399041D01*
X796844Y397612D01*
X797340Y396086D01*
X797477Y395223D01*
X788923Y395223D01*
G37*
%LPD*%
%LPC*%
G36*
X788923Y544577D02*
X788923Y544577D01*
X797477Y544577D01*
X797340Y543714D01*
X796844Y542188D01*
X796116Y540759D01*
X795173Y539461D01*
X794039Y538327D01*
X792741Y537384D01*
X791312Y536656D01*
X789786Y536160D01*
X788923Y536023D01*
X788923Y544577D01*
G37*
%LPD*%
%LPC*%
G36*
X204723Y569977D02*
X204723Y569977D01*
X213277Y569977D01*
X213140Y569114D01*
X212644Y567588D01*
X211916Y566159D01*
X210973Y564861D01*
X209839Y563727D01*
X208541Y562784D01*
X207112Y562056D01*
X205586Y561560D01*
X204723Y561423D01*
X204723Y569977D01*
G37*
%LPD*%
%LPC*%
G36*
X788923Y392177D02*
X788923Y392177D01*
X797477Y392177D01*
X797340Y391314D01*
X796844Y389788D01*
X796116Y388359D01*
X795173Y387061D01*
X794039Y385927D01*
X792741Y384984D01*
X791312Y384256D01*
X789786Y383760D01*
X788923Y383623D01*
X788923Y392177D01*
G37*
%LPD*%
%LPC*%
G36*
X193123Y420623D02*
X193123Y420623D01*
X193260Y421486D01*
X193756Y423012D01*
X194484Y424441D01*
X195427Y425739D01*
X196561Y426873D01*
X197859Y427816D01*
X199288Y428544D01*
X200814Y429040D01*
X201677Y429177D01*
X201677Y420623D01*
X193123Y420623D01*
G37*
%LPD*%
%LPC*%
G36*
X193123Y573023D02*
X193123Y573023D01*
X193260Y573886D01*
X193756Y575412D01*
X194484Y576841D01*
X195427Y578139D01*
X196561Y579273D01*
X197859Y580216D01*
X199288Y580944D01*
X200814Y581440D01*
X201677Y581577D01*
X201677Y573023D01*
X193123Y573023D01*
G37*
%LPD*%
%LPC*%
G36*
X777323Y395223D02*
X777323Y395223D01*
X777460Y396086D01*
X777956Y397612D01*
X778684Y399041D01*
X779627Y400339D01*
X780761Y401473D01*
X782059Y402416D01*
X783488Y403144D01*
X785014Y403640D01*
X785877Y403777D01*
X785877Y395223D01*
X777323Y395223D01*
G37*
%LPD*%
%LPC*%
G36*
X785014Y536160D02*
X785014Y536160D01*
X783488Y536656D01*
X782059Y537384D01*
X780761Y538327D01*
X779627Y539461D01*
X778684Y540759D01*
X777956Y542188D01*
X777460Y543714D01*
X777323Y544577D01*
X785877Y544577D01*
X785877Y536023D01*
X785014Y536160D01*
G37*
%LPD*%
%LPC*%
G36*
X200814Y561560D02*
X200814Y561560D01*
X199288Y562056D01*
X197859Y562784D01*
X196561Y563727D01*
X195427Y564861D01*
X194484Y566159D01*
X193756Y567588D01*
X193260Y569114D01*
X193123Y569977D01*
X201677Y569977D01*
X201677Y561423D01*
X200814Y561560D01*
G37*
%LPD*%
%LPC*%
G36*
X785014Y383760D02*
X785014Y383760D01*
X783488Y384256D01*
X782059Y384984D01*
X780761Y385927D01*
X779627Y387061D01*
X778684Y388359D01*
X777956Y389788D01*
X777460Y391314D01*
X777323Y392177D01*
X785877Y392177D01*
X785877Y383623D01*
X785014Y383760D01*
G37*
%LPD*%
%LPC*%
G36*
X622299Y888999D02*
X622299Y888999D01*
X622299Y889001D01*
X622301Y889001D01*
X622301Y888999D01*
X622299Y888999D01*
G37*
%LPD*%
%LPC*%
G36*
X354799Y888999D02*
X354799Y888999D01*
X354799Y889001D01*
X354801Y889001D01*
X354801Y888999D01*
X354799Y888999D01*
G37*
%LPD*%
%LPC*%
G36*
X676699Y642299D02*
X676699Y642299D01*
X676699Y642301D01*
X676701Y642301D01*
X676701Y642299D01*
X676699Y642299D01*
G37*
%LPD*%
%LPC*%
G36*
X286699Y642299D02*
X286699Y642299D01*
X286699Y642301D01*
X286701Y642301D01*
X286701Y642299D01*
X286699Y642299D01*
G37*
%LPD*%
%LPC*%
G36*
X330199Y139699D02*
X330199Y139699D01*
X330199Y139701D01*
X330201Y139701D01*
X330201Y139699D01*
X330199Y139699D01*
G37*
%LPD*%
%LPC*%
G36*
X253999Y139699D02*
X253999Y139699D01*
X253999Y139701D01*
X254001Y139701D01*
X254001Y139699D01*
X253999Y139699D01*
G37*
%LPD*%
%LPC*%
G36*
X787399Y393699D02*
X787399Y393699D01*
X787399Y393701D01*
X787401Y393701D01*
X787401Y393699D01*
X787399Y393699D01*
G37*
%LPD*%
%LPC*%
G36*
X203199Y571499D02*
X203199Y571499D01*
X203199Y571501D01*
X203201Y571501D01*
X203201Y571499D01*
X203199Y571499D01*
G37*
%LPD*%
%LPC*%
G36*
X126999Y115099D02*
X126999Y115099D01*
X126999Y115101D01*
X127001Y115101D01*
X127001Y115099D01*
X126999Y115099D01*
G37*
%LPD*%
%LPC*%
G36*
X419099Y482599D02*
X419099Y482599D01*
X419099Y482601D01*
X419101Y482601D01*
X419101Y482599D01*
X419099Y482599D01*
G37*
%LPD*%
%LPC*%
G36*
X863599Y115099D02*
X863599Y115099D01*
X863599Y115101D01*
X863601Y115101D01*
X863601Y115099D01*
X863599Y115099D01*
G37*
%LPD*%
%LPC*%
G36*
X583399Y63499D02*
X583399Y63499D01*
X583399Y63501D01*
X583401Y63501D01*
X583401Y63499D01*
X583399Y63499D01*
G37*
%LPD*%
%LPC*%
G36*
X672299Y888999D02*
X672299Y888999D01*
X672299Y889001D01*
X672301Y889001D01*
X672301Y888999D01*
X672299Y888999D01*
G37*
%LPD*%
%LPC*%
G36*
X571499Y533399D02*
X571499Y533399D01*
X571499Y533401D01*
X571501Y533401D01*
X571501Y533399D01*
X571499Y533399D01*
G37*
%LPD*%
D10*
X254000Y165100D03*
X254000Y139700D03*
X330200Y165100D03*
X330200Y139700D03*
D11*
X304800Y889000D03*
D12*
X354800Y889000D03*
D11*
X127000Y571500D03*
D12*
X127000Y521500D03*
D11*
X127000Y457200D03*
D12*
X127000Y407200D03*
D11*
X863600Y406400D03*
D12*
X863600Y456400D03*
D11*
X863600Y520700D03*
D12*
X863600Y570700D03*
D11*
X508000Y889000D03*
D12*
X558000Y889000D03*
D11*
X622300Y889000D03*
D12*
X672300Y889000D03*
D10*
X254000Y292100D03*
X254000Y215900D03*
X330200Y292100D03*
X330200Y215900D03*
D13*
X419100Y558800D03*
D14*
X419100Y533400D03*
X419100Y508000D03*
X419100Y482600D03*
X419100Y457200D03*
X419100Y431800D03*
X419100Y406400D03*
X419100Y381000D03*
X419100Y355600D03*
X419100Y330200D03*
X419100Y304800D03*
X419100Y279400D03*
X419100Y254000D03*
X419100Y228600D03*
X419100Y203200D03*
X571500Y203200D03*
X571500Y228600D03*
X571500Y254000D03*
X571500Y279400D03*
X571500Y304800D03*
X571500Y330200D03*
X571500Y355600D03*
X571500Y381000D03*
X571500Y406400D03*
X571500Y431800D03*
X571500Y457200D03*
X571500Y482600D03*
X571500Y508000D03*
X571500Y533400D03*
X571500Y558800D03*
D15*
X286700Y812300D03*
D16*
X286700Y642300D03*
X676700Y642300D03*
X676700Y812300D03*
D17*
X330200Y393700D03*
D18*
X330200Y419100D03*
X330200Y444500D03*
X330200Y469900D03*
X330200Y495300D03*
X330200Y520700D03*
X330200Y546100D03*
X330200Y571500D03*
X203200Y571500D03*
X203200Y546100D03*
X203200Y520700D03*
X203200Y495300D03*
X203200Y469900D03*
X203200Y444500D03*
X203200Y419100D03*
X203200Y393700D03*
D17*
X660400Y571500D03*
D18*
X660400Y546100D03*
X660400Y520700D03*
X660400Y495300D03*
X660400Y469900D03*
X660400Y444500D03*
X660400Y419100D03*
X660400Y393700D03*
X787400Y393700D03*
X787400Y419100D03*
X787400Y444500D03*
X787400Y469900D03*
X787400Y495300D03*
X787400Y520700D03*
X787400Y546100D03*
X787400Y571500D03*
D11*
X127000Y279400D03*
D12*
X127000Y229400D03*
D11*
X127000Y165100D03*
D12*
X127000Y115100D03*
D11*
X419100Y63500D03*
D12*
X469100Y63500D03*
D11*
X533400Y63500D03*
D12*
X583400Y63500D03*
D11*
X863600Y279400D03*
D12*
X863600Y229400D03*
D11*
X863600Y165100D03*
D12*
X863600Y115100D03*
D19*
X286700Y812300D02*
X102100Y812300D01*
D20*
X101600Y812800D01*
X96360Y812800D01*
D19*
X70960Y787400D01*
X70960Y381000D01*
X96360Y355600D01*
X165100Y355600D02*
X203200Y393700D01*
X165100Y355600D02*
X96360Y355600D01*
D20*
X286700Y812300D02*
X287200Y812800D01*
D19*
X520700Y812800D02*
X558800Y850900D01*
X520700Y812800D02*
X287200Y812800D01*
D20*
X558000Y889000D02*
X558800Y889800D01*
D19*
X787400Y901700D02*
X787400Y571500D01*
X787400Y901700D02*
X749300Y939800D01*
X596900Y939800D01*
X558000Y900900D01*
D20*
X558000Y889000D01*
X558800Y888200D01*
D19*
X558800Y850900D01*
D20*
X676200Y812800D02*
X676700Y812300D01*
X596400Y812300D01*
X482600Y698500D01*
X482600Y533400D01*
X533400Y482600D01*
X571500Y482600D01*
X762000Y419100D02*
X787400Y419100D01*
X762000Y419100D02*
X736600Y444500D01*
X736600Y800100D02*
X723900Y812800D01*
X676200Y812800D01*
X736600Y800100D02*
X736600Y444500D01*
X482600Y698500D02*
X406400Y698500D01*
X254000Y546100D02*
X203200Y546100D01*
X254000Y546100D02*
X406400Y698500D01*
X736600Y444500D02*
X736600Y368300D01*
X762000Y342900D02*
X927100Y342900D01*
X952500Y317500D01*
X952500Y279400D01*
X952500Y114300D01*
X863600Y25400D02*
X419100Y25400D01*
X127000Y25400D01*
X76200Y76200D01*
X76200Y254000D01*
X101600Y279400D02*
X127000Y279400D01*
X101600Y279400D02*
X76200Y254000D01*
X736600Y368300D02*
X762000Y342900D01*
X952500Y114300D02*
X863600Y25400D01*
X419100Y25400D02*
X419100Y63500D01*
X863600Y279400D02*
X952500Y279400D01*
X139700Y469900D02*
X127000Y457200D01*
X139700Y469900D02*
X203200Y469900D01*
X164300Y444500D02*
X127000Y407200D01*
X164300Y444500D02*
X203200Y444500D01*
X838200Y495300D02*
X863600Y520700D01*
X838200Y495300D02*
X787400Y495300D01*
X813600Y520700D02*
X863600Y570700D01*
X813600Y520700D02*
X787400Y520700D01*
X419100Y457200D02*
X393700Y457200D01*
X381000Y469900D01*
X381000Y546100D01*
X355600Y571500D01*
X330200Y571500D01*
X558800Y165100D02*
X609600Y165100D01*
X635000Y393700D02*
X660400Y393700D01*
X635000Y393700D02*
X622300Y381000D01*
X622300Y177800D02*
X609600Y165100D01*
X622300Y177800D02*
X622300Y381000D01*
X520700Y355600D02*
X520700Y203200D01*
X520700Y355600D02*
X469900Y406400D01*
X419100Y406400D01*
X520700Y203200D02*
X558800Y165100D01*
X457200Y381000D02*
X419100Y381000D01*
X457200Y381000D02*
X495300Y342900D01*
X495300Y152400D01*
X520700Y127000D01*
X660400Y127000D01*
X698500Y406400D02*
X685800Y419100D01*
X660400Y419100D01*
X698500Y165100D02*
X660400Y127000D01*
X698500Y165100D02*
X698500Y406400D01*
X342900Y546100D02*
X330200Y546100D01*
X342900Y546100D02*
X355600Y533400D01*
X355600Y444500D01*
X368300Y431800D01*
X419100Y431800D01*
X127000Y229400D02*
X127000Y165100D01*
X127000Y229400D02*
X151600Y229400D01*
X152400Y228600D01*
X177800Y228600D01*
X203200Y254000D01*
X393700Y304800D02*
X419100Y304800D01*
X393700Y304800D02*
X342900Y254000D01*
X203200Y254000D01*
X406400Y279400D02*
X419100Y279400D01*
X406400Y279400D02*
X381000Y254000D01*
X381000Y177800D01*
X469100Y63500D02*
X533400Y63500D01*
X469100Y63500D02*
X469100Y88100D01*
X469900Y88900D01*
X381000Y177800D01*
X419100Y254000D02*
X431800Y254000D01*
X457200Y228600D01*
X457200Y152400D01*
X508000Y101600D01*
X774700Y101600D02*
X838200Y165100D01*
X863600Y165100D01*
X774700Y101600D02*
X508000Y101600D01*
X863600Y165100D02*
X863600Y229400D01*
X254000Y215900D02*
X254000Y165100D01*
X330200Y165100D02*
X330200Y215900D01*
X330200Y317500D02*
X342900Y330200D01*
X330200Y317500D02*
X330200Y292100D01*
X342900Y330200D02*
X419100Y330200D01*
X419100Y355600D02*
X279400Y355600D01*
X254000Y330200D01*
X254000Y292100D01*
X304800Y520700D02*
X330200Y520700D01*
X304800Y520700D02*
X304800Y495300D01*
X330200Y495300D01*
X635000Y469900D02*
X660400Y469900D01*
X635000Y469900D02*
X635000Y444500D01*
X660400Y444500D01*
X177800Y520700D02*
X127000Y571500D01*
X177800Y520700D02*
X203200Y520700D01*
X153200Y495300D02*
X127000Y521500D01*
X153200Y495300D02*
X203200Y495300D01*
X787400Y444500D02*
X825500Y444500D01*
X863600Y406400D01*
X850100Y469900D02*
X787400Y469900D01*
X850100Y469900D02*
X863600Y456400D01*
D19*
X304800Y889000D02*
X304800Y914400D01*
X330200Y939800D01*
X482600Y939800D01*
X508000Y914400D01*
X508000Y889000D01*
M02*
