G04 EAGLE Gerber RS-274X export*
G75*
%MOMM*%
%FSLAX34Y34*%
%LPD*%
%IN*%
%IPPOS*%
%AMOC8*
5,1,8,0,0,1.08239X$1,22.5*%
G01*
%ADD10C,0.254000*%


D10*
X0Y0D02*
X1000000Y0D01*
X1000000Y1000000D01*
X0Y1000000D01*
X0Y0D01*
X50394Y49922D02*
X50334Y49777D01*
X50223Y49666D01*
X50078Y49606D01*
X49922Y49606D01*
X49777Y49666D01*
X49666Y49777D01*
X49606Y49922D01*
X49606Y50078D01*
X49666Y50223D01*
X49777Y50334D01*
X49922Y50394D01*
X50078Y50394D01*
X50223Y50334D01*
X50334Y50223D01*
X50394Y50078D01*
X50394Y49922D01*
X950394Y49922D02*
X950334Y49777D01*
X950223Y49666D01*
X950078Y49606D01*
X949922Y49606D01*
X949777Y49666D01*
X949666Y49777D01*
X949606Y49922D01*
X949606Y50078D01*
X949666Y50223D01*
X949777Y50334D01*
X949922Y50394D01*
X950078Y50394D01*
X950223Y50334D01*
X950334Y50223D01*
X950394Y50078D01*
X950394Y49922D01*
X950394Y949922D02*
X950334Y949777D01*
X950223Y949666D01*
X950078Y949606D01*
X949922Y949606D01*
X949777Y949666D01*
X949666Y949777D01*
X949606Y949922D01*
X949606Y950078D01*
X949666Y950223D01*
X949777Y950334D01*
X949922Y950394D01*
X950078Y950394D01*
X950223Y950334D01*
X950334Y950223D01*
X950394Y950078D01*
X950394Y949922D01*
X50394Y949922D02*
X50334Y949777D01*
X50223Y949666D01*
X50078Y949606D01*
X49922Y949606D01*
X49777Y949666D01*
X49666Y949777D01*
X49606Y949922D01*
X49606Y950078D01*
X49666Y950223D01*
X49777Y950334D01*
X49922Y950394D01*
X50078Y950394D01*
X50223Y950334D01*
X50334Y950223D01*
X50394Y950078D01*
X50394Y949922D01*
M02*
