G04 EAGLE Gerber RS-274X export*
G75*
%MOMM*%
%FSLAX34Y34*%
%LPD*%
%INSilkscreen Top*%
%IPPOS*%
%AMOC8*
5,1,8,0,0,1.08239X$1,22.5*%
G01*
%ADD10C,0.203200*%
%ADD11C,0.025400*%
%ADD12C,0.152400*%
%ADD13C,0.127000*%
%ADD14C,0.200000*%
%ADD15C,0.101600*%


D10*
X234950Y127000D02*
X273050Y127000D01*
D11*
X273837Y126162D02*
X272465Y127991D01*
X272466Y127991D02*
X273057Y128450D01*
X273637Y128923D01*
X274205Y129410D01*
X274761Y129911D01*
X275304Y130425D01*
X275835Y130952D01*
X276353Y131492D01*
X276858Y132045D01*
X277348Y132610D01*
X277825Y133187D01*
X278288Y133775D01*
X278736Y134374D01*
X279169Y134985D01*
X279588Y135605D01*
X279990Y136236D01*
X280378Y136876D01*
X280750Y137525D01*
X281105Y138184D01*
X281445Y138851D01*
X281768Y139526D01*
X282074Y140209D01*
X282364Y140899D01*
X282637Y141595D01*
X282892Y142299D01*
X283130Y143008D01*
X283351Y143723D01*
X283555Y144443D01*
X283740Y145168D01*
X283908Y145897D01*
X284058Y146631D01*
X284190Y147367D01*
X284304Y148107D01*
X284400Y148849D01*
X284478Y149593D01*
X284538Y150339D01*
X284579Y151086D01*
X284602Y151834D01*
X284606Y152583D01*
X284593Y153331D01*
X284561Y154079D01*
X284511Y154825D01*
X284442Y155570D01*
X284356Y156314D01*
X284251Y157055D01*
X284128Y157793D01*
X283987Y158528D01*
X283829Y159259D01*
X283652Y159986D01*
X283458Y160709D01*
X283246Y161427D01*
X283016Y162139D01*
X282769Y162845D01*
X282505Y163546D01*
X282224Y164239D01*
X281927Y164926D01*
X281612Y165605D01*
X281281Y166276D01*
X280934Y166939D01*
X280570Y167593D01*
X280191Y168238D01*
X279796Y168873D01*
X279385Y169499D01*
X278960Y170115D01*
X278519Y170720D01*
X278064Y171314D01*
X277594Y171896D01*
X277110Y172467D01*
X276613Y173026D01*
X276102Y173573D01*
X275578Y174107D01*
X275041Y174628D01*
X274491Y175136D01*
X273929Y175630D01*
X273355Y176110D01*
X272770Y176576D01*
X272173Y177028D01*
X271565Y177465D01*
X270947Y177887D01*
X270319Y178294D01*
X269681Y178685D01*
X269034Y179060D01*
X268378Y179420D01*
X267713Y179763D01*
X267040Y180090D01*
X266359Y180401D01*
X265671Y180695D01*
X264975Y180971D01*
X264274Y181231D01*
X263566Y181474D01*
X262852Y181699D01*
X262133Y181907D01*
X261409Y182097D01*
X260681Y182269D01*
X259949Y182423D01*
X259213Y182560D01*
X258474Y182678D01*
X257732Y182779D01*
X256989Y182861D01*
X256243Y182925D01*
X255496Y182970D01*
X254748Y182998D01*
X254000Y183007D01*
X253252Y182998D01*
X252504Y182970D01*
X251757Y182925D01*
X251011Y182861D01*
X250268Y182779D01*
X249526Y182678D01*
X248787Y182560D01*
X248051Y182423D01*
X247319Y182269D01*
X246591Y182097D01*
X245867Y181907D01*
X245148Y181699D01*
X244434Y181474D01*
X243726Y181231D01*
X243025Y180971D01*
X242329Y180695D01*
X241641Y180401D01*
X240960Y180090D01*
X240287Y179763D01*
X239622Y179420D01*
X238966Y179060D01*
X238319Y178685D01*
X237681Y178294D01*
X237053Y177887D01*
X236435Y177465D01*
X235827Y177028D01*
X235230Y176576D01*
X234645Y176110D01*
X234071Y175630D01*
X233509Y175136D01*
X232959Y174628D01*
X232422Y174107D01*
X231898Y173573D01*
X231387Y173026D01*
X230890Y172467D01*
X230406Y171896D01*
X229936Y171314D01*
X229481Y170720D01*
X229040Y170115D01*
X228615Y169499D01*
X228204Y168873D01*
X227809Y168238D01*
X227430Y167593D01*
X227066Y166939D01*
X226719Y166276D01*
X226388Y165605D01*
X226073Y164926D01*
X225776Y164239D01*
X225495Y163546D01*
X225231Y162845D01*
X224984Y162139D01*
X224754Y161427D01*
X224542Y160709D01*
X224348Y159986D01*
X224171Y159259D01*
X224013Y158528D01*
X223872Y157793D01*
X223749Y157055D01*
X223644Y156314D01*
X223558Y155570D01*
X223489Y154825D01*
X223439Y154079D01*
X223407Y153331D01*
X223394Y152583D01*
X223398Y151834D01*
X223421Y151086D01*
X223462Y150339D01*
X223522Y149593D01*
X223600Y148849D01*
X223696Y148107D01*
X223810Y147367D01*
X223942Y146631D01*
X224092Y145897D01*
X224260Y145168D01*
X224445Y144443D01*
X224649Y143723D01*
X224870Y143008D01*
X225108Y142299D01*
X225363Y141595D01*
X225636Y140899D01*
X225926Y140209D01*
X226232Y139526D01*
X226555Y138851D01*
X226895Y138184D01*
X227250Y137525D01*
X227622Y136876D01*
X228010Y136236D01*
X228412Y135605D01*
X228831Y134985D01*
X229264Y134374D01*
X229712Y133775D01*
X230175Y133187D01*
X230652Y132610D01*
X231142Y132045D01*
X231647Y131492D01*
X232165Y130952D01*
X232696Y130425D01*
X233239Y129911D01*
X233795Y129410D01*
X234363Y128923D01*
X234943Y128450D01*
X235534Y127991D01*
X234163Y126162D01*
X233527Y126655D01*
X232904Y127163D01*
X232293Y127687D01*
X231695Y128225D01*
X231111Y128777D01*
X230540Y129344D01*
X229983Y129924D01*
X229441Y130518D01*
X228913Y131125D01*
X228401Y131745D01*
X227903Y132377D01*
X227421Y133021D01*
X226956Y133677D01*
X226506Y134344D01*
X226073Y135022D01*
X225656Y135710D01*
X225256Y136408D01*
X224874Y137115D01*
X224509Y137832D01*
X224162Y138557D01*
X223832Y139291D01*
X223521Y140033D01*
X223227Y140782D01*
X222952Y141537D01*
X222696Y142300D01*
X222458Y143068D01*
X222240Y143842D01*
X222040Y144621D01*
X221859Y145405D01*
X221698Y146193D01*
X221556Y146985D01*
X221433Y147780D01*
X221330Y148577D01*
X221246Y149377D01*
X221182Y150179D01*
X221138Y150982D01*
X221113Y151786D01*
X221108Y152590D01*
X221122Y153395D01*
X221156Y154198D01*
X221210Y155001D01*
X221283Y155802D01*
X221376Y156601D01*
X221489Y157397D01*
X221621Y158190D01*
X221772Y158980D01*
X221942Y159766D01*
X222132Y160548D01*
X222341Y161325D01*
X222569Y162096D01*
X222815Y162862D01*
X223080Y163621D01*
X223364Y164374D01*
X223666Y165119D01*
X223986Y165857D01*
X224324Y166587D01*
X224680Y167309D01*
X225053Y168021D01*
X225444Y168724D01*
X225851Y169417D01*
X226276Y170101D01*
X226717Y170773D01*
X227174Y171435D01*
X227648Y172085D01*
X228137Y172723D01*
X228641Y173350D01*
X229161Y173964D01*
X229696Y174564D01*
X230245Y175152D01*
X230809Y175726D01*
X231386Y176286D01*
X231977Y176832D01*
X232581Y177363D01*
X233197Y177879D01*
X233827Y178380D01*
X234468Y178866D01*
X235121Y179336D01*
X235785Y179789D01*
X236460Y180226D01*
X237146Y180647D01*
X237841Y181051D01*
X238547Y181437D01*
X239261Y181806D01*
X239985Y182158D01*
X240717Y182492D01*
X241456Y182807D01*
X242204Y183105D01*
X242958Y183384D01*
X243719Y183645D01*
X244486Y183887D01*
X245259Y184110D01*
X246037Y184314D01*
X246819Y184500D01*
X247606Y184666D01*
X248397Y184812D01*
X249191Y184940D01*
X249988Y185047D01*
X250788Y185136D01*
X251589Y185205D01*
X252392Y185254D01*
X253196Y185283D01*
X254000Y185293D01*
X254804Y185283D01*
X255608Y185254D01*
X256411Y185205D01*
X257212Y185136D01*
X258012Y185047D01*
X258809Y184940D01*
X259603Y184812D01*
X260394Y184666D01*
X261181Y184500D01*
X261963Y184314D01*
X262741Y184110D01*
X263514Y183887D01*
X264281Y183645D01*
X265042Y183384D01*
X265796Y183105D01*
X266544Y182807D01*
X267283Y182492D01*
X268015Y182158D01*
X268739Y181806D01*
X269453Y181437D01*
X270159Y181051D01*
X270854Y180647D01*
X271540Y180226D01*
X272215Y179789D01*
X272879Y179336D01*
X273532Y178866D01*
X274173Y178380D01*
X274803Y177879D01*
X275419Y177363D01*
X276023Y176832D01*
X276614Y176286D01*
X277191Y175726D01*
X277755Y175152D01*
X278304Y174564D01*
X278839Y173964D01*
X279359Y173350D01*
X279863Y172723D01*
X280352Y172085D01*
X280826Y171435D01*
X281283Y170773D01*
X281724Y170101D01*
X282149Y169417D01*
X282556Y168724D01*
X282947Y168021D01*
X283320Y167309D01*
X283676Y166587D01*
X284014Y165857D01*
X284334Y165119D01*
X284636Y164374D01*
X284920Y163621D01*
X285185Y162862D01*
X285431Y162096D01*
X285659Y161325D01*
X285868Y160548D01*
X286058Y159766D01*
X286228Y158980D01*
X286379Y158190D01*
X286511Y157397D01*
X286624Y156601D01*
X286717Y155802D01*
X286790Y155001D01*
X286844Y154198D01*
X286878Y153395D01*
X286892Y152590D01*
X286887Y151786D01*
X286862Y150982D01*
X286818Y150179D01*
X286754Y149377D01*
X286670Y148577D01*
X286567Y147780D01*
X286444Y146985D01*
X286302Y146193D01*
X286141Y145405D01*
X285960Y144621D01*
X285760Y143842D01*
X285542Y143068D01*
X285304Y142300D01*
X285048Y141537D01*
X284773Y140782D01*
X284479Y140033D01*
X284168Y139291D01*
X283838Y138557D01*
X283491Y137832D01*
X283126Y137115D01*
X282744Y136408D01*
X282344Y135710D01*
X281927Y135022D01*
X281494Y134344D01*
X281044Y133677D01*
X280579Y133021D01*
X280097Y132377D01*
X279599Y131745D01*
X279087Y131125D01*
X278559Y130518D01*
X278017Y129924D01*
X277460Y129344D01*
X276889Y128777D01*
X276305Y128225D01*
X275707Y127687D01*
X275096Y127163D01*
X274473Y126655D01*
X273837Y126162D01*
X273693Y126354D01*
X274324Y126843D01*
X274943Y127348D01*
X275549Y127867D01*
X276143Y128402D01*
X276723Y128950D01*
X277289Y129513D01*
X277842Y130089D01*
X278380Y130679D01*
X278904Y131281D01*
X279413Y131897D01*
X279907Y132524D01*
X280385Y133163D01*
X280848Y133814D01*
X281294Y134476D01*
X281724Y135149D01*
X282138Y135832D01*
X282534Y136525D01*
X282914Y137227D01*
X283276Y137939D01*
X283621Y138659D01*
X283948Y139387D01*
X284257Y140124D01*
X284548Y140867D01*
X284821Y141617D01*
X285076Y142374D01*
X285312Y143137D01*
X285529Y143905D01*
X285727Y144679D01*
X285906Y145457D01*
X286067Y146239D01*
X286208Y147025D01*
X286329Y147814D01*
X286432Y148606D01*
X286515Y149400D01*
X286579Y150196D01*
X286623Y150993D01*
X286647Y151791D01*
X286652Y152590D01*
X286638Y153388D01*
X286604Y154186D01*
X286551Y154982D01*
X286478Y155777D01*
X286386Y156570D01*
X286274Y157361D01*
X286143Y158149D01*
X285993Y158933D01*
X285824Y159713D01*
X285635Y160489D01*
X285428Y161260D01*
X285202Y162026D01*
X284957Y162786D01*
X284694Y163540D01*
X284412Y164287D01*
X284113Y165027D01*
X283795Y165760D01*
X283459Y166484D01*
X283106Y167200D01*
X282736Y167907D01*
X282348Y168605D01*
X281943Y169294D01*
X281522Y169972D01*
X281084Y170639D01*
X280630Y171296D01*
X280160Y171942D01*
X279674Y172575D01*
X279173Y173197D01*
X278657Y173806D01*
X278127Y174403D01*
X277581Y174986D01*
X277022Y175556D01*
X276449Y176112D01*
X275862Y176654D01*
X275263Y177181D01*
X274651Y177694D01*
X274026Y178191D01*
X273389Y178673D01*
X272741Y179139D01*
X272082Y179589D01*
X271412Y180023D01*
X270731Y180441D01*
X270040Y180842D01*
X269340Y181225D01*
X268631Y181592D01*
X267913Y181941D01*
X267186Y182272D01*
X266452Y182586D01*
X265710Y182881D01*
X264961Y183158D01*
X264206Y183417D01*
X263445Y183657D01*
X262678Y183879D01*
X261905Y184082D01*
X261128Y184265D01*
X260347Y184430D01*
X259562Y184576D01*
X258774Y184702D01*
X257982Y184809D01*
X257189Y184897D01*
X256393Y184965D01*
X255596Y185014D01*
X254798Y185043D01*
X254000Y185053D01*
X253202Y185043D01*
X252404Y185014D01*
X251607Y184965D01*
X250811Y184897D01*
X250018Y184809D01*
X249226Y184702D01*
X248438Y184576D01*
X247653Y184430D01*
X246872Y184265D01*
X246095Y184082D01*
X245322Y183879D01*
X244555Y183657D01*
X243794Y183417D01*
X243039Y183158D01*
X242290Y182881D01*
X241548Y182586D01*
X240814Y182272D01*
X240087Y181941D01*
X239369Y181592D01*
X238660Y181225D01*
X237960Y180842D01*
X237269Y180441D01*
X236588Y180023D01*
X235918Y179589D01*
X235259Y179139D01*
X234611Y178673D01*
X233974Y178191D01*
X233349Y177694D01*
X232737Y177181D01*
X232138Y176654D01*
X231551Y176112D01*
X230978Y175556D01*
X230419Y174986D01*
X229873Y174403D01*
X229343Y173806D01*
X228827Y173197D01*
X228326Y172575D01*
X227840Y171942D01*
X227370Y171296D01*
X226916Y170639D01*
X226478Y169972D01*
X226057Y169294D01*
X225652Y168605D01*
X225264Y167907D01*
X224894Y167200D01*
X224541Y166484D01*
X224205Y165760D01*
X223887Y165027D01*
X223588Y164287D01*
X223306Y163540D01*
X223043Y162786D01*
X222798Y162026D01*
X222572Y161260D01*
X222365Y160489D01*
X222176Y159713D01*
X222007Y158933D01*
X221857Y158149D01*
X221726Y157361D01*
X221614Y156570D01*
X221522Y155777D01*
X221449Y154982D01*
X221396Y154186D01*
X221362Y153388D01*
X221348Y152590D01*
X221353Y151791D01*
X221377Y150993D01*
X221421Y150196D01*
X221485Y149400D01*
X221568Y148606D01*
X221671Y147814D01*
X221792Y147025D01*
X221933Y146239D01*
X222094Y145457D01*
X222273Y144679D01*
X222471Y143905D01*
X222688Y143137D01*
X222924Y142374D01*
X223179Y141617D01*
X223452Y140867D01*
X223743Y140124D01*
X224052Y139387D01*
X224379Y138659D01*
X224724Y137939D01*
X225086Y137227D01*
X225466Y136525D01*
X225862Y135832D01*
X226276Y135149D01*
X226706Y134476D01*
X227152Y133814D01*
X227615Y133163D01*
X228093Y132524D01*
X228587Y131897D01*
X229096Y131281D01*
X229620Y130679D01*
X230158Y130089D01*
X230711Y129513D01*
X231277Y128950D01*
X231857Y128402D01*
X232451Y127867D01*
X233057Y127348D01*
X233676Y126843D01*
X234307Y126354D01*
X234451Y126546D01*
X233824Y127032D01*
X233210Y127533D01*
X232608Y128048D01*
X232019Y128579D01*
X231444Y129123D01*
X230881Y129682D01*
X230333Y130254D01*
X229798Y130839D01*
X229278Y131437D01*
X228773Y132048D01*
X228283Y132671D01*
X227808Y133305D01*
X227349Y133952D01*
X226906Y134609D01*
X226479Y135276D01*
X226069Y135955D01*
X225675Y136642D01*
X225298Y137340D01*
X224939Y138046D01*
X224596Y138761D01*
X224272Y139484D01*
X223965Y140214D01*
X223676Y140952D01*
X223405Y141697D01*
X223152Y142449D01*
X222918Y143206D01*
X222703Y143968D01*
X222506Y144736D01*
X222328Y145509D01*
X222169Y146285D01*
X222029Y147065D01*
X221908Y147848D01*
X221806Y148634D01*
X221724Y149423D01*
X221661Y150213D01*
X221617Y151004D01*
X221593Y151796D01*
X221588Y152589D01*
X221602Y153381D01*
X221636Y154173D01*
X221689Y154964D01*
X221761Y155753D01*
X221853Y156540D01*
X221963Y157325D01*
X222093Y158107D01*
X222242Y158885D01*
X222411Y159660D01*
X222597Y160430D01*
X222803Y161196D01*
X223028Y161956D01*
X223270Y162710D01*
X223532Y163458D01*
X223811Y164200D01*
X224109Y164935D01*
X224424Y165662D01*
X224757Y166381D01*
X225108Y167092D01*
X225476Y167794D01*
X225861Y168487D01*
X226262Y169170D01*
X226681Y169843D01*
X227115Y170506D01*
X227566Y171158D01*
X228033Y171798D01*
X228515Y172427D01*
X229012Y173045D01*
X229524Y173649D01*
X230051Y174241D01*
X230592Y174820D01*
X231147Y175386D01*
X231716Y175938D01*
X232298Y176476D01*
X232894Y176999D01*
X233501Y177508D01*
X234121Y178002D01*
X234753Y178480D01*
X235397Y178943D01*
X236051Y179390D01*
X236716Y179820D01*
X237392Y180235D01*
X238078Y180633D01*
X238773Y181013D01*
X239477Y181377D01*
X240190Y181724D01*
X240911Y182053D01*
X241640Y182364D01*
X242376Y182657D01*
X243119Y182932D01*
X243869Y183189D01*
X244625Y183428D01*
X245386Y183648D01*
X246153Y183849D01*
X246924Y184031D01*
X247700Y184195D01*
X248479Y184339D01*
X249262Y184465D01*
X250047Y184571D01*
X250835Y184658D01*
X251624Y184726D01*
X252415Y184774D01*
X253207Y184803D01*
X254000Y184813D01*
X254793Y184803D01*
X255585Y184774D01*
X256376Y184726D01*
X257165Y184658D01*
X257953Y184571D01*
X258738Y184465D01*
X259521Y184339D01*
X260300Y184195D01*
X261076Y184031D01*
X261847Y183849D01*
X262614Y183648D01*
X263375Y183428D01*
X264131Y183189D01*
X264881Y182932D01*
X265624Y182657D01*
X266360Y182364D01*
X267089Y182053D01*
X267810Y181724D01*
X268523Y181377D01*
X269227Y181013D01*
X269922Y180633D01*
X270608Y180235D01*
X271284Y179820D01*
X271949Y179390D01*
X272603Y178943D01*
X273247Y178480D01*
X273879Y178002D01*
X274499Y177508D01*
X275106Y176999D01*
X275702Y176476D01*
X276284Y175938D01*
X276853Y175386D01*
X277408Y174820D01*
X277949Y174241D01*
X278476Y173649D01*
X278988Y173045D01*
X279485Y172427D01*
X279967Y171798D01*
X280434Y171158D01*
X280885Y170506D01*
X281319Y169843D01*
X281738Y169170D01*
X282139Y168487D01*
X282524Y167794D01*
X282892Y167092D01*
X283243Y166381D01*
X283576Y165662D01*
X283891Y164935D01*
X284189Y164200D01*
X284468Y163458D01*
X284730Y162710D01*
X284972Y161956D01*
X285197Y161196D01*
X285403Y160430D01*
X285589Y159660D01*
X285758Y158885D01*
X285907Y158107D01*
X286037Y157325D01*
X286147Y156540D01*
X286239Y155753D01*
X286311Y154964D01*
X286364Y154173D01*
X286398Y153381D01*
X286412Y152589D01*
X286407Y151796D01*
X286383Y151004D01*
X286339Y150213D01*
X286276Y149423D01*
X286194Y148634D01*
X286092Y147848D01*
X285971Y147065D01*
X285831Y146285D01*
X285672Y145509D01*
X285494Y144736D01*
X285297Y143968D01*
X285082Y143206D01*
X284848Y142449D01*
X284595Y141697D01*
X284324Y140952D01*
X284035Y140214D01*
X283728Y139484D01*
X283404Y138761D01*
X283061Y138046D01*
X282702Y137340D01*
X282325Y136642D01*
X281931Y135955D01*
X281521Y135276D01*
X281094Y134609D01*
X280651Y133952D01*
X280192Y133305D01*
X279717Y132671D01*
X279227Y132048D01*
X278722Y131437D01*
X278202Y130839D01*
X277667Y130254D01*
X277119Y129682D01*
X276556Y129123D01*
X275981Y128579D01*
X275392Y128048D01*
X274790Y127533D01*
X274176Y127032D01*
X273549Y126546D01*
X273405Y126738D01*
X274027Y127220D01*
X274637Y127717D01*
X275234Y128229D01*
X275818Y128756D01*
X276390Y129296D01*
X276948Y129851D01*
X277493Y130418D01*
X278023Y130999D01*
X278539Y131593D01*
X279041Y132199D01*
X279527Y132818D01*
X279998Y133448D01*
X280454Y134089D01*
X280894Y134741D01*
X281317Y135404D01*
X281725Y136077D01*
X282116Y136760D01*
X282490Y137452D01*
X282846Y138153D01*
X283186Y138862D01*
X283508Y139580D01*
X283813Y140305D01*
X284100Y141038D01*
X284369Y141777D01*
X284619Y142523D01*
X284852Y143275D01*
X285066Y144032D01*
X285261Y144794D01*
X285438Y145560D01*
X285595Y146331D01*
X285734Y147105D01*
X285854Y147883D01*
X285955Y148663D01*
X286037Y149445D01*
X286100Y150230D01*
X286143Y151015D01*
X286167Y151801D01*
X286172Y152588D01*
X286158Y153375D01*
X286125Y154161D01*
X286072Y154945D01*
X286000Y155729D01*
X285909Y156510D01*
X285799Y157289D01*
X285670Y158065D01*
X285522Y158838D01*
X285355Y159607D01*
X285170Y160371D01*
X284966Y161131D01*
X284743Y161885D01*
X284502Y162634D01*
X284243Y163377D01*
X283965Y164113D01*
X283670Y164842D01*
X283357Y165564D01*
X283026Y166278D01*
X282678Y166983D01*
X282313Y167680D01*
X281931Y168368D01*
X281532Y169046D01*
X281117Y169714D01*
X280685Y170372D01*
X280238Y171019D01*
X279775Y171655D01*
X279296Y172279D01*
X278803Y172892D01*
X278294Y173492D01*
X277771Y174080D01*
X277234Y174655D01*
X276683Y175216D01*
X276119Y175764D01*
X275541Y176298D01*
X274950Y176817D01*
X274347Y177322D01*
X273731Y177812D01*
X273104Y178287D01*
X272465Y178746D01*
X271816Y179190D01*
X271155Y179618D01*
X270485Y180029D01*
X269804Y180424D01*
X269114Y180802D01*
X268415Y181163D01*
X267708Y181507D01*
X266992Y181833D01*
X266269Y182142D01*
X265538Y182433D01*
X264800Y182706D01*
X264056Y182961D01*
X263306Y183198D01*
X262550Y183416D01*
X261789Y183616D01*
X261023Y183797D01*
X260254Y183959D01*
X259480Y184103D01*
X258703Y184227D01*
X257924Y184333D01*
X257142Y184419D01*
X256358Y184486D01*
X255573Y184535D01*
X254787Y184563D01*
X254000Y184573D01*
X253213Y184563D01*
X252427Y184535D01*
X251642Y184486D01*
X250858Y184419D01*
X250076Y184333D01*
X249297Y184227D01*
X248520Y184103D01*
X247746Y183959D01*
X246977Y183797D01*
X246211Y183616D01*
X245450Y183416D01*
X244694Y183198D01*
X243944Y182961D01*
X243200Y182706D01*
X242462Y182433D01*
X241731Y182142D01*
X241008Y181833D01*
X240292Y181507D01*
X239585Y181163D01*
X238886Y180802D01*
X238196Y180424D01*
X237515Y180029D01*
X236845Y179618D01*
X236184Y179190D01*
X235535Y178746D01*
X234896Y178287D01*
X234269Y177812D01*
X233653Y177322D01*
X233050Y176817D01*
X232459Y176298D01*
X231881Y175764D01*
X231317Y175216D01*
X230766Y174655D01*
X230229Y174080D01*
X229706Y173492D01*
X229197Y172892D01*
X228704Y172279D01*
X228225Y171655D01*
X227762Y171019D01*
X227315Y170372D01*
X226883Y169714D01*
X226468Y169046D01*
X226069Y168368D01*
X225687Y167680D01*
X225322Y166983D01*
X224974Y166278D01*
X224643Y165564D01*
X224330Y164842D01*
X224035Y164113D01*
X223757Y163377D01*
X223498Y162634D01*
X223257Y161885D01*
X223034Y161131D01*
X222830Y160371D01*
X222645Y159607D01*
X222478Y158838D01*
X222330Y158065D01*
X222201Y157289D01*
X222091Y156510D01*
X222000Y155729D01*
X221928Y154945D01*
X221875Y154161D01*
X221842Y153375D01*
X221828Y152588D01*
X221833Y151801D01*
X221857Y151015D01*
X221900Y150230D01*
X221963Y149445D01*
X222045Y148663D01*
X222146Y147883D01*
X222266Y147105D01*
X222405Y146331D01*
X222562Y145560D01*
X222739Y144794D01*
X222934Y144032D01*
X223148Y143275D01*
X223381Y142523D01*
X223631Y141777D01*
X223900Y141038D01*
X224187Y140305D01*
X224492Y139580D01*
X224814Y138862D01*
X225154Y138153D01*
X225510Y137452D01*
X225884Y136760D01*
X226275Y136077D01*
X226683Y135404D01*
X227106Y134741D01*
X227546Y134089D01*
X228002Y133448D01*
X228473Y132818D01*
X228959Y132199D01*
X229461Y131593D01*
X229977Y130999D01*
X230507Y130418D01*
X231052Y129851D01*
X231610Y129296D01*
X232182Y128756D01*
X232766Y128229D01*
X233363Y127717D01*
X233973Y127220D01*
X234595Y126738D01*
X234739Y126930D01*
X234122Y127409D01*
X233517Y127902D01*
X232924Y128410D01*
X232344Y128933D01*
X231776Y129469D01*
X231222Y130019D01*
X230682Y130583D01*
X230155Y131160D01*
X229643Y131749D01*
X229146Y132351D01*
X228663Y132964D01*
X228195Y133590D01*
X227743Y134226D01*
X227307Y134874D01*
X226886Y135531D01*
X226482Y136199D01*
X226094Y136877D01*
X225723Y137564D01*
X225368Y138260D01*
X225031Y138964D01*
X224711Y139676D01*
X224409Y140396D01*
X224124Y141123D01*
X223858Y141857D01*
X223609Y142597D01*
X223378Y143343D01*
X223166Y144095D01*
X222972Y144851D01*
X222797Y145612D01*
X222640Y146377D01*
X222502Y147145D01*
X222383Y147917D01*
X222283Y148691D01*
X222202Y149468D01*
X222140Y150246D01*
X222097Y151026D01*
X222073Y151806D01*
X222068Y152587D01*
X222082Y153368D01*
X222115Y154148D01*
X222167Y154927D01*
X222238Y155705D01*
X222329Y156480D01*
X222438Y157253D01*
X222566Y158024D01*
X222713Y158790D01*
X222879Y159553D01*
X223063Y160312D01*
X223265Y161066D01*
X223487Y161815D01*
X223726Y162558D01*
X223983Y163295D01*
X224259Y164026D01*
X224552Y164750D01*
X224863Y165466D01*
X225191Y166175D01*
X225536Y166875D01*
X225899Y167566D01*
X226278Y168249D01*
X226674Y168922D01*
X227086Y169585D01*
X227514Y170238D01*
X227958Y170880D01*
X228418Y171512D01*
X228892Y172131D01*
X229382Y172739D01*
X229887Y173335D01*
X230406Y173918D01*
X230939Y174489D01*
X231486Y175046D01*
X232047Y175590D01*
X232620Y176120D01*
X233207Y176635D01*
X233805Y177136D01*
X234416Y177623D01*
X235039Y178094D01*
X235673Y178550D01*
X236317Y178990D01*
X236973Y179415D01*
X237638Y179823D01*
X238314Y180215D01*
X238999Y180590D01*
X239692Y180948D01*
X240394Y181290D01*
X241105Y181614D01*
X241823Y181920D01*
X242548Y182209D01*
X243281Y182480D01*
X244019Y182733D01*
X244764Y182968D01*
X245514Y183185D01*
X246269Y183383D01*
X247029Y183563D01*
X247793Y183724D01*
X248561Y183866D01*
X249332Y183990D01*
X250106Y184095D01*
X250882Y184180D01*
X251660Y184247D01*
X252439Y184295D01*
X253219Y184323D01*
X254000Y184333D01*
X254781Y184323D01*
X255561Y184295D01*
X256340Y184247D01*
X257118Y184180D01*
X257894Y184095D01*
X258668Y183990D01*
X259439Y183866D01*
X260207Y183724D01*
X260971Y183563D01*
X261731Y183383D01*
X262486Y183185D01*
X263236Y182968D01*
X263981Y182733D01*
X264719Y182480D01*
X265452Y182209D01*
X266177Y181920D01*
X266895Y181614D01*
X267606Y181290D01*
X268308Y180948D01*
X269001Y180590D01*
X269686Y180215D01*
X270362Y179823D01*
X271027Y179415D01*
X271683Y178990D01*
X272327Y178550D01*
X272961Y178094D01*
X273584Y177623D01*
X274195Y177136D01*
X274793Y176635D01*
X275380Y176120D01*
X275953Y175590D01*
X276514Y175046D01*
X277061Y174489D01*
X277594Y173918D01*
X278113Y173335D01*
X278618Y172739D01*
X279108Y172131D01*
X279582Y171512D01*
X280042Y170880D01*
X280486Y170238D01*
X280914Y169585D01*
X281326Y168922D01*
X281722Y168249D01*
X282101Y167566D01*
X282464Y166875D01*
X282809Y166175D01*
X283137Y165466D01*
X283448Y164750D01*
X283741Y164026D01*
X284017Y163295D01*
X284274Y162558D01*
X284513Y161815D01*
X284735Y161066D01*
X284937Y160312D01*
X285121Y159553D01*
X285287Y158790D01*
X285434Y158024D01*
X285562Y157253D01*
X285671Y156480D01*
X285762Y155705D01*
X285833Y154927D01*
X285885Y154148D01*
X285918Y153368D01*
X285932Y152587D01*
X285927Y151806D01*
X285903Y151026D01*
X285860Y150246D01*
X285798Y149468D01*
X285717Y148691D01*
X285617Y147917D01*
X285498Y147145D01*
X285360Y146377D01*
X285203Y145612D01*
X285028Y144851D01*
X284834Y144095D01*
X284622Y143343D01*
X284391Y142597D01*
X284142Y141857D01*
X283876Y141123D01*
X283591Y140396D01*
X283289Y139676D01*
X282969Y138964D01*
X282632Y138260D01*
X282277Y137564D01*
X281906Y136877D01*
X281518Y136199D01*
X281114Y135531D01*
X280693Y134874D01*
X280257Y134226D01*
X279805Y133590D01*
X279337Y132964D01*
X278854Y132351D01*
X278357Y131749D01*
X277845Y131160D01*
X277318Y130583D01*
X276778Y130019D01*
X276224Y129469D01*
X275656Y128933D01*
X275076Y128410D01*
X274483Y127902D01*
X273878Y127409D01*
X273261Y126930D01*
X273117Y127122D01*
X273730Y127597D01*
X274330Y128087D01*
X274918Y128591D01*
X275494Y129110D01*
X276057Y129642D01*
X276607Y130188D01*
X277143Y130748D01*
X277666Y131320D01*
X278174Y131905D01*
X278668Y132502D01*
X279147Y133111D01*
X279611Y133732D01*
X280060Y134363D01*
X280493Y135006D01*
X280911Y135659D01*
X281312Y136322D01*
X281697Y136994D01*
X282065Y137676D01*
X282417Y138367D01*
X282751Y139066D01*
X283069Y139773D01*
X283369Y140487D01*
X283651Y141209D01*
X283916Y141937D01*
X284163Y142672D01*
X284392Y143412D01*
X284602Y144158D01*
X284795Y144908D01*
X284969Y145664D01*
X285124Y146423D01*
X285261Y147186D01*
X285379Y147951D01*
X285479Y148720D01*
X285559Y149491D01*
X285621Y150263D01*
X285664Y151037D01*
X285688Y151811D01*
X285692Y152586D01*
X285678Y153361D01*
X285645Y154135D01*
X285594Y154909D01*
X285523Y155680D01*
X285433Y156450D01*
X285325Y157217D01*
X285198Y157982D01*
X285052Y158743D01*
X284887Y159500D01*
X284705Y160253D01*
X284503Y161002D01*
X284284Y161745D01*
X284046Y162482D01*
X283791Y163214D01*
X283518Y163939D01*
X283227Y164657D01*
X282918Y165368D01*
X282593Y166071D01*
X282250Y166766D01*
X281890Y167453D01*
X281514Y168130D01*
X281121Y168798D01*
X280712Y169456D01*
X280287Y170104D01*
X279846Y170742D01*
X279390Y171368D01*
X278919Y171983D01*
X278432Y172587D01*
X277932Y173178D01*
X277416Y173757D01*
X276887Y174323D01*
X276344Y174876D01*
X275788Y175416D01*
X275219Y175942D01*
X274637Y176453D01*
X274043Y176951D01*
X273436Y177433D01*
X272819Y177901D01*
X272190Y178354D01*
X271550Y178791D01*
X270899Y179212D01*
X270238Y179617D01*
X269568Y180006D01*
X268889Y180378D01*
X268200Y180734D01*
X267503Y181073D01*
X266798Y181394D01*
X266085Y181698D01*
X265365Y181985D01*
X264639Y182254D01*
X263906Y182505D01*
X263167Y182738D01*
X262422Y182953D01*
X261673Y183150D01*
X260918Y183329D01*
X260160Y183489D01*
X259398Y183630D01*
X258633Y183753D01*
X257865Y183856D01*
X257095Y183942D01*
X256323Y184008D01*
X255549Y184055D01*
X254775Y184084D01*
X254000Y184093D01*
X253225Y184084D01*
X252451Y184055D01*
X251677Y184008D01*
X250905Y183942D01*
X250135Y183856D01*
X249367Y183753D01*
X248602Y183630D01*
X247840Y183489D01*
X247082Y183329D01*
X246327Y183150D01*
X245578Y182953D01*
X244833Y182738D01*
X244094Y182505D01*
X243361Y182254D01*
X242635Y181985D01*
X241915Y181698D01*
X241202Y181394D01*
X240497Y181073D01*
X239800Y180734D01*
X239111Y180378D01*
X238432Y180006D01*
X237762Y179617D01*
X237101Y179212D01*
X236450Y178791D01*
X235810Y178354D01*
X235181Y177901D01*
X234564Y177433D01*
X233957Y176951D01*
X233363Y176453D01*
X232781Y175942D01*
X232212Y175416D01*
X231656Y174876D01*
X231113Y174323D01*
X230584Y173757D01*
X230068Y173178D01*
X229568Y172587D01*
X229081Y171983D01*
X228610Y171368D01*
X228154Y170742D01*
X227713Y170104D01*
X227288Y169456D01*
X226879Y168798D01*
X226486Y168130D01*
X226110Y167453D01*
X225750Y166766D01*
X225407Y166071D01*
X225082Y165368D01*
X224773Y164657D01*
X224482Y163939D01*
X224209Y163214D01*
X223954Y162482D01*
X223716Y161745D01*
X223497Y161002D01*
X223295Y160253D01*
X223113Y159500D01*
X222948Y158743D01*
X222802Y157982D01*
X222675Y157217D01*
X222567Y156450D01*
X222477Y155680D01*
X222406Y154909D01*
X222355Y154135D01*
X222322Y153361D01*
X222308Y152586D01*
X222312Y151811D01*
X222336Y151037D01*
X222379Y150263D01*
X222441Y149491D01*
X222521Y148720D01*
X222621Y147951D01*
X222739Y147186D01*
X222876Y146423D01*
X223031Y145664D01*
X223205Y144908D01*
X223398Y144158D01*
X223608Y143412D01*
X223837Y142672D01*
X224084Y141937D01*
X224349Y141209D01*
X224631Y140487D01*
X224931Y139773D01*
X225249Y139066D01*
X225583Y138367D01*
X225935Y137676D01*
X226303Y136994D01*
X226688Y136322D01*
X227089Y135659D01*
X227507Y135006D01*
X227940Y134363D01*
X228389Y133732D01*
X228853Y133111D01*
X229332Y132502D01*
X229826Y131905D01*
X230334Y131320D01*
X230857Y130748D01*
X231393Y130188D01*
X231943Y129642D01*
X232506Y129110D01*
X233082Y128591D01*
X233670Y128087D01*
X234270Y127597D01*
X234883Y127122D01*
X235027Y127314D01*
X234419Y127785D01*
X233823Y128271D01*
X233239Y128772D01*
X232668Y129287D01*
X232109Y129815D01*
X231563Y130357D01*
X231031Y130912D01*
X230513Y131480D01*
X230008Y132061D01*
X229518Y132653D01*
X229043Y133258D01*
X228582Y133874D01*
X228137Y134501D01*
X227707Y135138D01*
X227293Y135786D01*
X226895Y136444D01*
X226513Y137112D01*
X226147Y137788D01*
X225798Y138474D01*
X225466Y139167D01*
X225151Y139869D01*
X224853Y140578D01*
X224573Y141294D01*
X224310Y142017D01*
X224065Y142746D01*
X223838Y143481D01*
X223629Y144221D01*
X223438Y144966D01*
X223266Y145715D01*
X223111Y146469D01*
X222976Y147226D01*
X222858Y147986D01*
X222760Y148748D01*
X222680Y149513D01*
X222619Y150280D01*
X222576Y151048D01*
X222552Y151817D01*
X222548Y152586D01*
X222561Y153354D01*
X222594Y154123D01*
X222646Y154890D01*
X222716Y155656D01*
X222805Y156420D01*
X222913Y157181D01*
X223039Y157940D01*
X223183Y158695D01*
X223347Y159447D01*
X223528Y160194D01*
X223728Y160937D01*
X223945Y161674D01*
X224181Y162407D01*
X224435Y163133D01*
X224706Y163852D01*
X224995Y164565D01*
X225301Y165271D01*
X225624Y165968D01*
X225964Y166658D01*
X226321Y167339D01*
X226695Y168011D01*
X227085Y168674D01*
X227491Y169328D01*
X227912Y169971D01*
X228350Y170603D01*
X228803Y171225D01*
X229270Y171835D01*
X229753Y172434D01*
X230250Y173021D01*
X230761Y173595D01*
X231286Y174157D01*
X231825Y174706D01*
X232377Y175242D01*
X232942Y175763D01*
X233519Y176271D01*
X234109Y176765D01*
X234711Y177244D01*
X235324Y177708D01*
X235948Y178157D01*
X236584Y178591D01*
X237229Y179009D01*
X237885Y179411D01*
X238550Y179797D01*
X239224Y180166D01*
X239908Y180519D01*
X240599Y180855D01*
X241299Y181175D01*
X242006Y181477D01*
X242721Y181761D01*
X243442Y182028D01*
X244170Y182277D01*
X244903Y182509D01*
X245642Y182722D01*
X246386Y182917D01*
X247134Y183094D01*
X247887Y183253D01*
X248643Y183393D01*
X249402Y183515D01*
X250164Y183618D01*
X250929Y183703D01*
X251695Y183768D01*
X252462Y183815D01*
X253231Y183844D01*
X254000Y183853D01*
X254769Y183844D01*
X255538Y183815D01*
X256305Y183768D01*
X257071Y183703D01*
X257836Y183618D01*
X258598Y183515D01*
X259357Y183393D01*
X260113Y183253D01*
X260866Y183094D01*
X261614Y182917D01*
X262358Y182722D01*
X263097Y182509D01*
X263830Y182277D01*
X264558Y182028D01*
X265279Y181761D01*
X265994Y181477D01*
X266701Y181175D01*
X267401Y180855D01*
X268092Y180519D01*
X268776Y180166D01*
X269450Y179797D01*
X270115Y179411D01*
X270771Y179009D01*
X271416Y178591D01*
X272052Y178157D01*
X272676Y177708D01*
X273289Y177244D01*
X273891Y176765D01*
X274481Y176271D01*
X275058Y175763D01*
X275623Y175242D01*
X276175Y174706D01*
X276714Y174157D01*
X277239Y173595D01*
X277750Y173021D01*
X278247Y172434D01*
X278730Y171835D01*
X279197Y171225D01*
X279650Y170603D01*
X280088Y169971D01*
X280509Y169328D01*
X280915Y168674D01*
X281305Y168011D01*
X281679Y167339D01*
X282036Y166658D01*
X282376Y165968D01*
X282699Y165271D01*
X283005Y164565D01*
X283294Y163852D01*
X283565Y163133D01*
X283819Y162407D01*
X284055Y161674D01*
X284272Y160937D01*
X284472Y160194D01*
X284653Y159447D01*
X284817Y158695D01*
X284961Y157940D01*
X285087Y157181D01*
X285195Y156420D01*
X285284Y155656D01*
X285354Y154890D01*
X285406Y154123D01*
X285439Y153354D01*
X285452Y152586D01*
X285448Y151817D01*
X285424Y151048D01*
X285381Y150280D01*
X285320Y149513D01*
X285240Y148748D01*
X285142Y147986D01*
X285024Y147226D01*
X284889Y146469D01*
X284734Y145715D01*
X284562Y144966D01*
X284371Y144221D01*
X284162Y143481D01*
X283935Y142746D01*
X283690Y142017D01*
X283427Y141294D01*
X283147Y140578D01*
X282849Y139869D01*
X282534Y139167D01*
X282202Y138474D01*
X281853Y137788D01*
X281487Y137112D01*
X281105Y136444D01*
X280707Y135786D01*
X280293Y135138D01*
X279863Y134501D01*
X279418Y133874D01*
X278957Y133258D01*
X278482Y132653D01*
X277992Y132061D01*
X277487Y131480D01*
X276969Y130912D01*
X276437Y130357D01*
X275891Y129815D01*
X275332Y129287D01*
X274761Y128772D01*
X274177Y128271D01*
X273581Y127785D01*
X272973Y127314D01*
X272829Y127506D01*
X273432Y127974D01*
X274024Y128456D01*
X274603Y128953D01*
X275170Y129464D01*
X275725Y129988D01*
X276266Y130526D01*
X276794Y131077D01*
X277309Y131640D01*
X277809Y132217D01*
X278296Y132805D01*
X278767Y133405D01*
X279224Y134016D01*
X279666Y134638D01*
X280093Y135271D01*
X280504Y135914D01*
X280899Y136567D01*
X281278Y137229D01*
X281641Y137901D01*
X281987Y138581D01*
X282317Y139269D01*
X282629Y139965D01*
X282925Y140669D01*
X283203Y141380D01*
X283464Y142097D01*
X283707Y142820D01*
X283932Y143550D01*
X284139Y144284D01*
X284329Y145023D01*
X284500Y145767D01*
X284653Y146515D01*
X284788Y147266D01*
X284904Y148020D01*
X285002Y148777D01*
X285081Y149536D01*
X285142Y150297D01*
X285184Y151059D01*
X285208Y151822D01*
X285212Y152585D01*
X285199Y153348D01*
X285166Y154110D01*
X285115Y154872D01*
X285045Y155632D01*
X284957Y156390D01*
X284850Y157145D01*
X284725Y157898D01*
X284581Y158648D01*
X284419Y159394D01*
X284239Y160135D01*
X284041Y160872D01*
X283825Y161604D01*
X283591Y162331D01*
X283339Y163051D01*
X283070Y163765D01*
X282784Y164473D01*
X282480Y165173D01*
X282159Y165865D01*
X281822Y166550D01*
X281467Y167226D01*
X281097Y167893D01*
X280710Y168551D01*
X280307Y169199D01*
X279888Y169837D01*
X279454Y170465D01*
X279005Y171082D01*
X278541Y171687D01*
X278062Y172282D01*
X277569Y172864D01*
X277061Y173434D01*
X276540Y173992D01*
X276006Y174536D01*
X275458Y175068D01*
X274897Y175585D01*
X274324Y176089D01*
X273739Y176579D01*
X273142Y177055D01*
X272533Y177515D01*
X271914Y177961D01*
X271283Y178391D01*
X270643Y178806D01*
X269992Y179205D01*
X269332Y179588D01*
X268663Y179955D01*
X267985Y180305D01*
X267298Y180638D01*
X266604Y180955D01*
X265902Y181255D01*
X265193Y181537D01*
X264477Y181802D01*
X263755Y182049D01*
X263027Y182279D01*
X262294Y182491D01*
X261556Y182685D01*
X260813Y182860D01*
X260067Y183018D01*
X259316Y183157D01*
X258563Y183278D01*
X257806Y183380D01*
X257048Y183464D01*
X256288Y183529D01*
X255526Y183576D01*
X254763Y183604D01*
X254000Y183613D01*
X253237Y183604D01*
X252474Y183576D01*
X251712Y183529D01*
X250952Y183464D01*
X250194Y183380D01*
X249437Y183278D01*
X248684Y183157D01*
X247933Y183018D01*
X247187Y182860D01*
X246444Y182685D01*
X245706Y182491D01*
X244973Y182279D01*
X244245Y182049D01*
X243523Y181802D01*
X242807Y181537D01*
X242098Y181255D01*
X241396Y180955D01*
X240702Y180638D01*
X240015Y180305D01*
X239337Y179955D01*
X238668Y179588D01*
X238008Y179205D01*
X237357Y178806D01*
X236717Y178391D01*
X236086Y177961D01*
X235467Y177515D01*
X234858Y177055D01*
X234261Y176579D01*
X233676Y176089D01*
X233103Y175585D01*
X232542Y175068D01*
X231994Y174536D01*
X231460Y173992D01*
X230939Y173434D01*
X230431Y172864D01*
X229938Y172282D01*
X229459Y171687D01*
X228995Y171082D01*
X228546Y170465D01*
X228112Y169837D01*
X227693Y169199D01*
X227290Y168551D01*
X226903Y167893D01*
X226533Y167226D01*
X226178Y166550D01*
X225841Y165865D01*
X225520Y165173D01*
X225216Y164473D01*
X224930Y163765D01*
X224661Y163051D01*
X224409Y162331D01*
X224175Y161604D01*
X223959Y160872D01*
X223761Y160135D01*
X223581Y159394D01*
X223419Y158648D01*
X223275Y157898D01*
X223150Y157145D01*
X223043Y156390D01*
X222955Y155632D01*
X222885Y154872D01*
X222834Y154110D01*
X222801Y153348D01*
X222788Y152585D01*
X222792Y151822D01*
X222816Y151059D01*
X222858Y150297D01*
X222919Y149536D01*
X222998Y148777D01*
X223096Y148020D01*
X223212Y147266D01*
X223347Y146515D01*
X223500Y145767D01*
X223671Y145023D01*
X223861Y144284D01*
X224068Y143550D01*
X224293Y142820D01*
X224536Y142097D01*
X224797Y141380D01*
X225075Y140669D01*
X225371Y139965D01*
X225683Y139269D01*
X226013Y138581D01*
X226359Y137901D01*
X226722Y137229D01*
X227101Y136567D01*
X227496Y135914D01*
X227907Y135271D01*
X228334Y134638D01*
X228776Y134016D01*
X229233Y133405D01*
X229704Y132805D01*
X230191Y132217D01*
X230691Y131640D01*
X231206Y131077D01*
X231734Y130526D01*
X232275Y129988D01*
X232830Y129464D01*
X233397Y128953D01*
X233976Y128456D01*
X234568Y127974D01*
X235171Y127506D01*
X235315Y127698D01*
X234716Y128162D01*
X234130Y128641D01*
X233555Y129134D01*
X232992Y129641D01*
X232442Y130161D01*
X231905Y130695D01*
X231380Y131241D01*
X230870Y131801D01*
X230373Y132372D01*
X229891Y132956D01*
X229423Y133551D01*
X228969Y134158D01*
X228531Y134775D01*
X228107Y135403D01*
X227699Y136041D01*
X227307Y136689D01*
X226931Y137347D01*
X226571Y138013D01*
X226228Y138688D01*
X225901Y139371D01*
X225591Y140062D01*
X225297Y140760D01*
X225021Y141465D01*
X224763Y142177D01*
X224522Y142895D01*
X224298Y143618D01*
X224092Y144347D01*
X223904Y145081D01*
X223734Y145819D01*
X223582Y146561D01*
X223449Y147306D01*
X223333Y148054D01*
X223236Y148805D01*
X223158Y149559D01*
X223097Y150314D01*
X223056Y151070D01*
X223032Y151827D01*
X223028Y152584D01*
X223041Y153341D01*
X223074Y154098D01*
X223124Y154853D01*
X223194Y155607D01*
X223281Y156360D01*
X223387Y157110D01*
X223511Y157857D01*
X223654Y158600D01*
X223815Y159340D01*
X223993Y160076D01*
X224190Y160808D01*
X224404Y161534D01*
X224637Y162255D01*
X224886Y162970D01*
X225153Y163678D01*
X225438Y164380D01*
X225739Y165075D01*
X226058Y165762D01*
X226393Y166441D01*
X226744Y167112D01*
X227112Y167774D01*
X227496Y168427D01*
X227896Y169070D01*
X228311Y169703D01*
X228742Y170326D01*
X229187Y170938D01*
X229648Y171539D01*
X230123Y172129D01*
X230613Y172707D01*
X231116Y173273D01*
X231633Y173826D01*
X232164Y174366D01*
X232707Y174893D01*
X233264Y175407D01*
X233832Y175907D01*
X234413Y176393D01*
X235006Y176865D01*
X235609Y177322D01*
X236224Y177764D01*
X236850Y178191D01*
X237485Y178603D01*
X238131Y178999D01*
X238786Y179379D01*
X239450Y179743D01*
X240123Y180090D01*
X240804Y180421D01*
X241493Y180736D01*
X242190Y181033D01*
X242893Y181313D01*
X243603Y181576D01*
X244320Y181821D01*
X245042Y182049D01*
X245770Y182259D01*
X246502Y182452D01*
X247239Y182626D01*
X247980Y182782D01*
X248725Y182920D01*
X249472Y183040D01*
X250223Y183142D01*
X250976Y183225D01*
X251730Y183290D01*
X252486Y183336D01*
X253243Y183364D01*
X254000Y183373D01*
X254757Y183364D01*
X255514Y183336D01*
X256270Y183290D01*
X257024Y183225D01*
X257777Y183142D01*
X258528Y183040D01*
X259275Y182920D01*
X260020Y182782D01*
X260761Y182626D01*
X261498Y182452D01*
X262230Y182259D01*
X262958Y182049D01*
X263680Y181821D01*
X264397Y181576D01*
X265107Y181313D01*
X265810Y181033D01*
X266507Y180736D01*
X267196Y180421D01*
X267877Y180090D01*
X268550Y179743D01*
X269214Y179379D01*
X269869Y178999D01*
X270515Y178603D01*
X271150Y178191D01*
X271776Y177764D01*
X272391Y177322D01*
X272994Y176865D01*
X273587Y176393D01*
X274168Y175907D01*
X274736Y175407D01*
X275293Y174893D01*
X275836Y174366D01*
X276367Y173826D01*
X276884Y173273D01*
X277387Y172707D01*
X277877Y172129D01*
X278352Y171539D01*
X278813Y170938D01*
X279258Y170326D01*
X279689Y169703D01*
X280104Y169070D01*
X280504Y168427D01*
X280888Y167774D01*
X281256Y167112D01*
X281607Y166441D01*
X281942Y165762D01*
X282261Y165075D01*
X282562Y164380D01*
X282847Y163678D01*
X283114Y162970D01*
X283363Y162255D01*
X283596Y161534D01*
X283810Y160808D01*
X284007Y160076D01*
X284185Y159340D01*
X284346Y158600D01*
X284489Y157857D01*
X284613Y157110D01*
X284719Y156360D01*
X284806Y155607D01*
X284876Y154853D01*
X284926Y154098D01*
X284959Y153341D01*
X284972Y152584D01*
X284968Y151827D01*
X284944Y151070D01*
X284903Y150314D01*
X284842Y149559D01*
X284764Y148805D01*
X284667Y148054D01*
X284551Y147306D01*
X284418Y146561D01*
X284266Y145819D01*
X284096Y145081D01*
X283908Y144347D01*
X283702Y143618D01*
X283478Y142895D01*
X283237Y142177D01*
X282979Y141465D01*
X282703Y140760D01*
X282409Y140062D01*
X282099Y139371D01*
X281772Y138688D01*
X281429Y138013D01*
X281069Y137347D01*
X280693Y136689D01*
X280301Y136041D01*
X279893Y135403D01*
X279469Y134775D01*
X279031Y134158D01*
X278577Y133551D01*
X278109Y132956D01*
X277627Y132372D01*
X277130Y131801D01*
X276620Y131241D01*
X276095Y130695D01*
X275558Y130161D01*
X275008Y129641D01*
X274445Y129134D01*
X273870Y128641D01*
X273284Y128162D01*
X272685Y127698D01*
X272541Y127890D01*
X273135Y128351D01*
X273717Y128826D01*
X274288Y129315D01*
X274846Y129818D01*
X275392Y130334D01*
X275925Y130864D01*
X276445Y131406D01*
X276951Y131961D01*
X277444Y132528D01*
X277923Y133107D01*
X278388Y133698D01*
X278838Y134300D01*
X279273Y134913D01*
X279693Y135536D01*
X280097Y136169D01*
X280486Y136812D01*
X280859Y137464D01*
X281217Y138125D01*
X281557Y138795D01*
X281882Y139472D01*
X282190Y140158D01*
X282480Y140851D01*
X282754Y141551D01*
X283011Y142257D01*
X283250Y142969D01*
X283472Y143687D01*
X283676Y144410D01*
X283863Y145138D01*
X284031Y145870D01*
X284182Y146607D01*
X284315Y147346D01*
X284429Y148089D01*
X284525Y148834D01*
X284603Y149581D01*
X284663Y150330D01*
X284705Y151081D01*
X284728Y151832D01*
X284732Y152583D01*
X284719Y153334D01*
X284687Y154085D01*
X284636Y154835D01*
X284568Y155583D01*
X284481Y156330D01*
X284376Y157074D01*
X284252Y157815D01*
X284111Y158553D01*
X283951Y159287D01*
X283774Y160017D01*
X283579Y160743D01*
X283366Y161464D01*
X283136Y162179D01*
X282888Y162888D01*
X282623Y163591D01*
X282341Y164288D01*
X282042Y164977D01*
X281726Y165659D01*
X281393Y166333D01*
X281045Y166998D01*
X280680Y167655D01*
X280299Y168303D01*
X279902Y168941D01*
X279490Y169569D01*
X279062Y170187D01*
X278620Y170795D01*
X278163Y171391D01*
X277691Y171976D01*
X277206Y172550D01*
X276706Y173111D01*
X276193Y173660D01*
X275667Y174196D01*
X275127Y174719D01*
X274575Y175229D01*
X274011Y175725D01*
X273435Y176208D01*
X272847Y176676D01*
X272248Y177129D01*
X271638Y177568D01*
X271017Y177992D01*
X270386Y178400D01*
X269746Y178793D01*
X269096Y179170D01*
X268437Y179531D01*
X267769Y179876D01*
X267093Y180204D01*
X266410Y180516D01*
X265719Y180811D01*
X265021Y181089D01*
X264316Y181350D01*
X263605Y181593D01*
X262888Y181820D01*
X262167Y182028D01*
X261440Y182219D01*
X260709Y182392D01*
X259973Y182547D01*
X259234Y182684D01*
X258492Y182803D01*
X257748Y182904D01*
X257001Y182986D01*
X256252Y183050D01*
X255502Y183096D01*
X254751Y183124D01*
X254000Y183133D01*
X253249Y183124D01*
X252498Y183096D01*
X251748Y183050D01*
X250999Y182986D01*
X250252Y182904D01*
X249508Y182803D01*
X248766Y182684D01*
X248027Y182547D01*
X247291Y182392D01*
X246560Y182219D01*
X245833Y182028D01*
X245112Y181820D01*
X244395Y181593D01*
X243684Y181350D01*
X242979Y181089D01*
X242281Y180811D01*
X241590Y180516D01*
X240907Y180204D01*
X240231Y179876D01*
X239563Y179531D01*
X238904Y179170D01*
X238254Y178793D01*
X237614Y178400D01*
X236983Y177992D01*
X236362Y177568D01*
X235752Y177129D01*
X235153Y176676D01*
X234565Y176208D01*
X233989Y175725D01*
X233425Y175229D01*
X232873Y174719D01*
X232333Y174196D01*
X231807Y173660D01*
X231294Y173111D01*
X230794Y172550D01*
X230309Y171976D01*
X229837Y171391D01*
X229380Y170795D01*
X228938Y170187D01*
X228510Y169569D01*
X228098Y168941D01*
X227701Y168303D01*
X227320Y167655D01*
X226955Y166998D01*
X226607Y166333D01*
X226274Y165659D01*
X225958Y164977D01*
X225659Y164288D01*
X225377Y163591D01*
X225112Y162888D01*
X224864Y162179D01*
X224634Y161464D01*
X224421Y160743D01*
X224226Y160017D01*
X224049Y159287D01*
X223889Y158553D01*
X223748Y157815D01*
X223624Y157074D01*
X223519Y156330D01*
X223432Y155583D01*
X223364Y154835D01*
X223313Y154085D01*
X223281Y153334D01*
X223268Y152583D01*
X223272Y151832D01*
X223295Y151081D01*
X223337Y150330D01*
X223397Y149581D01*
X223475Y148834D01*
X223571Y148089D01*
X223685Y147346D01*
X223818Y146607D01*
X223969Y145870D01*
X224137Y145138D01*
X224324Y144410D01*
X224528Y143687D01*
X224750Y142969D01*
X224989Y142257D01*
X225246Y141551D01*
X225520Y140851D01*
X225810Y140158D01*
X226118Y139472D01*
X226443Y138795D01*
X226783Y138125D01*
X227141Y137464D01*
X227514Y136812D01*
X227903Y136169D01*
X228307Y135536D01*
X228727Y134913D01*
X229162Y134300D01*
X229612Y133698D01*
X230077Y133107D01*
X230556Y132528D01*
X231049Y131961D01*
X231555Y131406D01*
X232075Y130864D01*
X232608Y130334D01*
X233154Y129818D01*
X233712Y129315D01*
X234283Y128826D01*
X234865Y128351D01*
X235459Y127890D01*
D12*
X228600Y152400D02*
X228608Y153023D01*
X228631Y153646D01*
X228669Y154269D01*
X228722Y154890D01*
X228791Y155509D01*
X228875Y156127D01*
X228974Y156742D01*
X229088Y157355D01*
X229217Y157965D01*
X229361Y158572D01*
X229520Y159175D01*
X229694Y159773D01*
X229882Y160368D01*
X230085Y160957D01*
X230302Y161541D01*
X230533Y162120D01*
X230779Y162693D01*
X231039Y163260D01*
X231312Y163820D01*
X231599Y164373D01*
X231900Y164920D01*
X232214Y165458D01*
X232541Y165989D01*
X232881Y166511D01*
X233233Y167026D01*
X233599Y167531D01*
X233976Y168027D01*
X234366Y168514D01*
X234767Y168991D01*
X235180Y169458D01*
X235604Y169914D01*
X236039Y170361D01*
X236486Y170796D01*
X236942Y171220D01*
X237409Y171633D01*
X237886Y172034D01*
X238373Y172424D01*
X238869Y172801D01*
X239374Y173167D01*
X239889Y173519D01*
X240411Y173859D01*
X240942Y174186D01*
X241480Y174500D01*
X242027Y174801D01*
X242580Y175088D01*
X243140Y175361D01*
X243707Y175621D01*
X244280Y175867D01*
X244859Y176098D01*
X245443Y176315D01*
X246032Y176518D01*
X246627Y176706D01*
X247225Y176880D01*
X247828Y177039D01*
X248435Y177183D01*
X249045Y177312D01*
X249658Y177426D01*
X250273Y177525D01*
X250891Y177609D01*
X251510Y177678D01*
X252131Y177731D01*
X252754Y177769D01*
X253377Y177792D01*
X254000Y177800D01*
X254623Y177792D01*
X255246Y177769D01*
X255869Y177731D01*
X256490Y177678D01*
X257109Y177609D01*
X257727Y177525D01*
X258342Y177426D01*
X258955Y177312D01*
X259565Y177183D01*
X260172Y177039D01*
X260775Y176880D01*
X261373Y176706D01*
X261968Y176518D01*
X262557Y176315D01*
X263141Y176098D01*
X263720Y175867D01*
X264293Y175621D01*
X264860Y175361D01*
X265420Y175088D01*
X265973Y174801D01*
X266520Y174500D01*
X267058Y174186D01*
X267589Y173859D01*
X268111Y173519D01*
X268626Y173167D01*
X269131Y172801D01*
X269627Y172424D01*
X270114Y172034D01*
X270591Y171633D01*
X271058Y171220D01*
X271514Y170796D01*
X271961Y170361D01*
X272396Y169914D01*
X272820Y169458D01*
X273233Y168991D01*
X273634Y168514D01*
X274024Y168027D01*
X274401Y167531D01*
X274767Y167026D01*
X275119Y166511D01*
X275459Y165989D01*
X275786Y165458D01*
X276100Y164920D01*
X276401Y164373D01*
X276688Y163820D01*
X276961Y163260D01*
X277221Y162693D01*
X277467Y162120D01*
X277698Y161541D01*
X277915Y160957D01*
X278118Y160368D01*
X278306Y159773D01*
X278480Y159175D01*
X278639Y158572D01*
X278783Y157965D01*
X278912Y157355D01*
X279026Y156742D01*
X279125Y156127D01*
X279209Y155509D01*
X279278Y154890D01*
X279331Y154269D01*
X279369Y153646D01*
X279392Y153023D01*
X279400Y152400D01*
X279392Y151777D01*
X279369Y151154D01*
X279331Y150531D01*
X279278Y149910D01*
X279209Y149291D01*
X279125Y148673D01*
X279026Y148058D01*
X278912Y147445D01*
X278783Y146835D01*
X278639Y146228D01*
X278480Y145625D01*
X278306Y145027D01*
X278118Y144432D01*
X277915Y143843D01*
X277698Y143259D01*
X277467Y142680D01*
X277221Y142107D01*
X276961Y141540D01*
X276688Y140980D01*
X276401Y140427D01*
X276100Y139880D01*
X275786Y139342D01*
X275459Y138811D01*
X275119Y138289D01*
X274767Y137774D01*
X274401Y137269D01*
X274024Y136773D01*
X273634Y136286D01*
X273233Y135809D01*
X272820Y135342D01*
X272396Y134886D01*
X271961Y134439D01*
X271514Y134004D01*
X271058Y133580D01*
X270591Y133167D01*
X270114Y132766D01*
X269627Y132376D01*
X269131Y131999D01*
X268626Y131633D01*
X268111Y131281D01*
X267589Y130941D01*
X267058Y130614D01*
X266520Y130300D01*
X265973Y129999D01*
X265420Y129712D01*
X264860Y129439D01*
X264293Y129179D01*
X263720Y128933D01*
X263141Y128702D01*
X262557Y128485D01*
X261968Y128282D01*
X261373Y128094D01*
X260775Y127920D01*
X260172Y127761D01*
X259565Y127617D01*
X258955Y127488D01*
X258342Y127374D01*
X257727Y127275D01*
X257109Y127191D01*
X256490Y127122D01*
X255869Y127069D01*
X255246Y127031D01*
X254623Y127008D01*
X254000Y127000D01*
X253377Y127008D01*
X252754Y127031D01*
X252131Y127069D01*
X251510Y127122D01*
X250891Y127191D01*
X250273Y127275D01*
X249658Y127374D01*
X249045Y127488D01*
X248435Y127617D01*
X247828Y127761D01*
X247225Y127920D01*
X246627Y128094D01*
X246032Y128282D01*
X245443Y128485D01*
X244859Y128702D01*
X244280Y128933D01*
X243707Y129179D01*
X243140Y129439D01*
X242580Y129712D01*
X242027Y129999D01*
X241480Y130300D01*
X240942Y130614D01*
X240411Y130941D01*
X239889Y131281D01*
X239374Y131633D01*
X238869Y131999D01*
X238373Y132376D01*
X237886Y132766D01*
X237409Y133167D01*
X236942Y133580D01*
X236486Y134004D01*
X236039Y134439D01*
X235604Y134886D01*
X235180Y135342D01*
X234767Y135809D01*
X234366Y136286D01*
X233976Y136773D01*
X233599Y137269D01*
X233233Y137774D01*
X232881Y138289D01*
X232541Y138811D01*
X232214Y139342D01*
X231900Y139880D01*
X231599Y140427D01*
X231312Y140980D01*
X231039Y141540D01*
X230779Y142107D01*
X230533Y142680D01*
X230302Y143259D01*
X230085Y143843D01*
X229882Y144432D01*
X229694Y145027D01*
X229520Y145625D01*
X229361Y146228D01*
X229217Y146835D01*
X229088Y147445D01*
X228974Y148058D01*
X228875Y148673D01*
X228791Y149291D01*
X228722Y149910D01*
X228669Y150531D01*
X228631Y151154D01*
X228608Y151777D01*
X228600Y152400D01*
D13*
X288544Y148225D02*
X293370Y148225D01*
X288544Y148225D02*
X288544Y149565D01*
X288546Y149635D01*
X288551Y149705D01*
X288561Y149775D01*
X288573Y149844D01*
X288590Y149912D01*
X288610Y149979D01*
X288633Y150046D01*
X288660Y150110D01*
X288690Y150174D01*
X288724Y150236D01*
X288760Y150295D01*
X288800Y150353D01*
X288843Y150409D01*
X288888Y150462D01*
X288937Y150513D01*
X288988Y150562D01*
X289041Y150607D01*
X289097Y150650D01*
X289155Y150690D01*
X289215Y150726D01*
X289276Y150760D01*
X289340Y150790D01*
X289404Y150817D01*
X289471Y150840D01*
X289538Y150860D01*
X289606Y150877D01*
X289675Y150889D01*
X289745Y150899D01*
X289815Y150904D01*
X289885Y150906D01*
X292029Y150906D01*
X292099Y150904D01*
X292169Y150899D01*
X292239Y150889D01*
X292308Y150877D01*
X292376Y150860D01*
X292443Y150840D01*
X292510Y150817D01*
X292574Y150790D01*
X292638Y150760D01*
X292700Y150726D01*
X292759Y150690D01*
X292817Y150650D01*
X292873Y150607D01*
X292926Y150562D01*
X292977Y150513D01*
X293026Y150462D01*
X293071Y150409D01*
X293114Y150353D01*
X293154Y150295D01*
X293190Y150235D01*
X293224Y150174D01*
X293254Y150110D01*
X293281Y150046D01*
X293304Y149979D01*
X293324Y149912D01*
X293341Y149844D01*
X293353Y149775D01*
X293363Y149705D01*
X293368Y149635D01*
X293370Y149565D01*
X293370Y148225D01*
X289616Y153894D02*
X288544Y155235D01*
X293370Y155235D01*
X293370Y156575D02*
X293370Y153894D01*
D10*
X311150Y127000D02*
X349250Y127000D01*
D11*
X350037Y126162D02*
X348665Y127991D01*
X348666Y127991D02*
X349257Y128450D01*
X349837Y128923D01*
X350405Y129410D01*
X350961Y129911D01*
X351504Y130425D01*
X352035Y130952D01*
X352553Y131492D01*
X353058Y132045D01*
X353548Y132610D01*
X354025Y133187D01*
X354488Y133775D01*
X354936Y134374D01*
X355369Y134985D01*
X355788Y135605D01*
X356190Y136236D01*
X356578Y136876D01*
X356950Y137525D01*
X357305Y138184D01*
X357645Y138851D01*
X357968Y139526D01*
X358274Y140209D01*
X358564Y140899D01*
X358837Y141595D01*
X359092Y142299D01*
X359330Y143008D01*
X359551Y143723D01*
X359755Y144443D01*
X359940Y145168D01*
X360108Y145897D01*
X360258Y146631D01*
X360390Y147367D01*
X360504Y148107D01*
X360600Y148849D01*
X360678Y149593D01*
X360738Y150339D01*
X360779Y151086D01*
X360802Y151834D01*
X360806Y152583D01*
X360793Y153331D01*
X360761Y154079D01*
X360711Y154825D01*
X360642Y155570D01*
X360556Y156314D01*
X360451Y157055D01*
X360328Y157793D01*
X360187Y158528D01*
X360029Y159259D01*
X359852Y159986D01*
X359658Y160709D01*
X359446Y161427D01*
X359216Y162139D01*
X358969Y162845D01*
X358705Y163546D01*
X358424Y164239D01*
X358127Y164926D01*
X357812Y165605D01*
X357481Y166276D01*
X357134Y166939D01*
X356770Y167593D01*
X356391Y168238D01*
X355996Y168873D01*
X355585Y169499D01*
X355160Y170115D01*
X354719Y170720D01*
X354264Y171314D01*
X353794Y171896D01*
X353310Y172467D01*
X352813Y173026D01*
X352302Y173573D01*
X351778Y174107D01*
X351241Y174628D01*
X350691Y175136D01*
X350129Y175630D01*
X349555Y176110D01*
X348970Y176576D01*
X348373Y177028D01*
X347765Y177465D01*
X347147Y177887D01*
X346519Y178294D01*
X345881Y178685D01*
X345234Y179060D01*
X344578Y179420D01*
X343913Y179763D01*
X343240Y180090D01*
X342559Y180401D01*
X341871Y180695D01*
X341175Y180971D01*
X340474Y181231D01*
X339766Y181474D01*
X339052Y181699D01*
X338333Y181907D01*
X337609Y182097D01*
X336881Y182269D01*
X336149Y182423D01*
X335413Y182560D01*
X334674Y182678D01*
X333932Y182779D01*
X333189Y182861D01*
X332443Y182925D01*
X331696Y182970D01*
X330948Y182998D01*
X330200Y183007D01*
X329452Y182998D01*
X328704Y182970D01*
X327957Y182925D01*
X327211Y182861D01*
X326468Y182779D01*
X325726Y182678D01*
X324987Y182560D01*
X324251Y182423D01*
X323519Y182269D01*
X322791Y182097D01*
X322067Y181907D01*
X321348Y181699D01*
X320634Y181474D01*
X319926Y181231D01*
X319225Y180971D01*
X318529Y180695D01*
X317841Y180401D01*
X317160Y180090D01*
X316487Y179763D01*
X315822Y179420D01*
X315166Y179060D01*
X314519Y178685D01*
X313881Y178294D01*
X313253Y177887D01*
X312635Y177465D01*
X312027Y177028D01*
X311430Y176576D01*
X310845Y176110D01*
X310271Y175630D01*
X309709Y175136D01*
X309159Y174628D01*
X308622Y174107D01*
X308098Y173573D01*
X307587Y173026D01*
X307090Y172467D01*
X306606Y171896D01*
X306136Y171314D01*
X305681Y170720D01*
X305240Y170115D01*
X304815Y169499D01*
X304404Y168873D01*
X304009Y168238D01*
X303630Y167593D01*
X303266Y166939D01*
X302919Y166276D01*
X302588Y165605D01*
X302273Y164926D01*
X301976Y164239D01*
X301695Y163546D01*
X301431Y162845D01*
X301184Y162139D01*
X300954Y161427D01*
X300742Y160709D01*
X300548Y159986D01*
X300371Y159259D01*
X300213Y158528D01*
X300072Y157793D01*
X299949Y157055D01*
X299844Y156314D01*
X299758Y155570D01*
X299689Y154825D01*
X299639Y154079D01*
X299607Y153331D01*
X299594Y152583D01*
X299598Y151834D01*
X299621Y151086D01*
X299662Y150339D01*
X299722Y149593D01*
X299800Y148849D01*
X299896Y148107D01*
X300010Y147367D01*
X300142Y146631D01*
X300292Y145897D01*
X300460Y145168D01*
X300645Y144443D01*
X300849Y143723D01*
X301070Y143008D01*
X301308Y142299D01*
X301563Y141595D01*
X301836Y140899D01*
X302126Y140209D01*
X302432Y139526D01*
X302755Y138851D01*
X303095Y138184D01*
X303450Y137525D01*
X303822Y136876D01*
X304210Y136236D01*
X304612Y135605D01*
X305031Y134985D01*
X305464Y134374D01*
X305912Y133775D01*
X306375Y133187D01*
X306852Y132610D01*
X307342Y132045D01*
X307847Y131492D01*
X308365Y130952D01*
X308896Y130425D01*
X309439Y129911D01*
X309995Y129410D01*
X310563Y128923D01*
X311143Y128450D01*
X311734Y127991D01*
X310363Y126162D01*
X309727Y126655D01*
X309104Y127163D01*
X308493Y127687D01*
X307895Y128225D01*
X307311Y128777D01*
X306740Y129344D01*
X306183Y129924D01*
X305641Y130518D01*
X305113Y131125D01*
X304601Y131745D01*
X304103Y132377D01*
X303621Y133021D01*
X303156Y133677D01*
X302706Y134344D01*
X302273Y135022D01*
X301856Y135710D01*
X301456Y136408D01*
X301074Y137115D01*
X300709Y137832D01*
X300362Y138557D01*
X300032Y139291D01*
X299721Y140033D01*
X299427Y140782D01*
X299152Y141537D01*
X298896Y142300D01*
X298658Y143068D01*
X298440Y143842D01*
X298240Y144621D01*
X298059Y145405D01*
X297898Y146193D01*
X297756Y146985D01*
X297633Y147780D01*
X297530Y148577D01*
X297446Y149377D01*
X297382Y150179D01*
X297338Y150982D01*
X297313Y151786D01*
X297308Y152590D01*
X297322Y153395D01*
X297356Y154198D01*
X297410Y155001D01*
X297483Y155802D01*
X297576Y156601D01*
X297689Y157397D01*
X297821Y158190D01*
X297972Y158980D01*
X298142Y159766D01*
X298332Y160548D01*
X298541Y161325D01*
X298769Y162096D01*
X299015Y162862D01*
X299280Y163621D01*
X299564Y164374D01*
X299866Y165119D01*
X300186Y165857D01*
X300524Y166587D01*
X300880Y167309D01*
X301253Y168021D01*
X301644Y168724D01*
X302051Y169417D01*
X302476Y170101D01*
X302917Y170773D01*
X303374Y171435D01*
X303848Y172085D01*
X304337Y172723D01*
X304841Y173350D01*
X305361Y173964D01*
X305896Y174564D01*
X306445Y175152D01*
X307009Y175726D01*
X307586Y176286D01*
X308177Y176832D01*
X308781Y177363D01*
X309397Y177879D01*
X310027Y178380D01*
X310668Y178866D01*
X311321Y179336D01*
X311985Y179789D01*
X312660Y180226D01*
X313346Y180647D01*
X314041Y181051D01*
X314747Y181437D01*
X315461Y181806D01*
X316185Y182158D01*
X316917Y182492D01*
X317656Y182807D01*
X318404Y183105D01*
X319158Y183384D01*
X319919Y183645D01*
X320686Y183887D01*
X321459Y184110D01*
X322237Y184314D01*
X323019Y184500D01*
X323806Y184666D01*
X324597Y184812D01*
X325391Y184940D01*
X326188Y185047D01*
X326988Y185136D01*
X327789Y185205D01*
X328592Y185254D01*
X329396Y185283D01*
X330200Y185293D01*
X331004Y185283D01*
X331808Y185254D01*
X332611Y185205D01*
X333412Y185136D01*
X334212Y185047D01*
X335009Y184940D01*
X335803Y184812D01*
X336594Y184666D01*
X337381Y184500D01*
X338163Y184314D01*
X338941Y184110D01*
X339714Y183887D01*
X340481Y183645D01*
X341242Y183384D01*
X341996Y183105D01*
X342744Y182807D01*
X343483Y182492D01*
X344215Y182158D01*
X344939Y181806D01*
X345653Y181437D01*
X346359Y181051D01*
X347054Y180647D01*
X347740Y180226D01*
X348415Y179789D01*
X349079Y179336D01*
X349732Y178866D01*
X350373Y178380D01*
X351003Y177879D01*
X351619Y177363D01*
X352223Y176832D01*
X352814Y176286D01*
X353391Y175726D01*
X353955Y175152D01*
X354504Y174564D01*
X355039Y173964D01*
X355559Y173350D01*
X356063Y172723D01*
X356552Y172085D01*
X357026Y171435D01*
X357483Y170773D01*
X357924Y170101D01*
X358349Y169417D01*
X358756Y168724D01*
X359147Y168021D01*
X359520Y167309D01*
X359876Y166587D01*
X360214Y165857D01*
X360534Y165119D01*
X360836Y164374D01*
X361120Y163621D01*
X361385Y162862D01*
X361631Y162096D01*
X361859Y161325D01*
X362068Y160548D01*
X362258Y159766D01*
X362428Y158980D01*
X362579Y158190D01*
X362711Y157397D01*
X362824Y156601D01*
X362917Y155802D01*
X362990Y155001D01*
X363044Y154198D01*
X363078Y153395D01*
X363092Y152590D01*
X363087Y151786D01*
X363062Y150982D01*
X363018Y150179D01*
X362954Y149377D01*
X362870Y148577D01*
X362767Y147780D01*
X362644Y146985D01*
X362502Y146193D01*
X362341Y145405D01*
X362160Y144621D01*
X361960Y143842D01*
X361742Y143068D01*
X361504Y142300D01*
X361248Y141537D01*
X360973Y140782D01*
X360679Y140033D01*
X360368Y139291D01*
X360038Y138557D01*
X359691Y137832D01*
X359326Y137115D01*
X358944Y136408D01*
X358544Y135710D01*
X358127Y135022D01*
X357694Y134344D01*
X357244Y133677D01*
X356779Y133021D01*
X356297Y132377D01*
X355799Y131745D01*
X355287Y131125D01*
X354759Y130518D01*
X354217Y129924D01*
X353660Y129344D01*
X353089Y128777D01*
X352505Y128225D01*
X351907Y127687D01*
X351296Y127163D01*
X350673Y126655D01*
X350037Y126162D01*
X349893Y126354D01*
X350524Y126843D01*
X351143Y127348D01*
X351749Y127867D01*
X352343Y128402D01*
X352923Y128950D01*
X353489Y129513D01*
X354042Y130089D01*
X354580Y130679D01*
X355104Y131281D01*
X355613Y131897D01*
X356107Y132524D01*
X356585Y133163D01*
X357048Y133814D01*
X357494Y134476D01*
X357924Y135149D01*
X358338Y135832D01*
X358734Y136525D01*
X359114Y137227D01*
X359476Y137939D01*
X359821Y138659D01*
X360148Y139387D01*
X360457Y140124D01*
X360748Y140867D01*
X361021Y141617D01*
X361276Y142374D01*
X361512Y143137D01*
X361729Y143905D01*
X361927Y144679D01*
X362106Y145457D01*
X362267Y146239D01*
X362408Y147025D01*
X362529Y147814D01*
X362632Y148606D01*
X362715Y149400D01*
X362779Y150196D01*
X362823Y150993D01*
X362847Y151791D01*
X362852Y152590D01*
X362838Y153388D01*
X362804Y154186D01*
X362751Y154982D01*
X362678Y155777D01*
X362586Y156570D01*
X362474Y157361D01*
X362343Y158149D01*
X362193Y158933D01*
X362024Y159713D01*
X361835Y160489D01*
X361628Y161260D01*
X361402Y162026D01*
X361157Y162786D01*
X360894Y163540D01*
X360612Y164287D01*
X360313Y165027D01*
X359995Y165760D01*
X359659Y166484D01*
X359306Y167200D01*
X358936Y167907D01*
X358548Y168605D01*
X358143Y169294D01*
X357722Y169972D01*
X357284Y170639D01*
X356830Y171296D01*
X356360Y171942D01*
X355874Y172575D01*
X355373Y173197D01*
X354857Y173806D01*
X354327Y174403D01*
X353781Y174986D01*
X353222Y175556D01*
X352649Y176112D01*
X352062Y176654D01*
X351463Y177181D01*
X350851Y177694D01*
X350226Y178191D01*
X349589Y178673D01*
X348941Y179139D01*
X348282Y179589D01*
X347612Y180023D01*
X346931Y180441D01*
X346240Y180842D01*
X345540Y181225D01*
X344831Y181592D01*
X344113Y181941D01*
X343386Y182272D01*
X342652Y182586D01*
X341910Y182881D01*
X341161Y183158D01*
X340406Y183417D01*
X339645Y183657D01*
X338878Y183879D01*
X338105Y184082D01*
X337328Y184265D01*
X336547Y184430D01*
X335762Y184576D01*
X334974Y184702D01*
X334182Y184809D01*
X333389Y184897D01*
X332593Y184965D01*
X331796Y185014D01*
X330998Y185043D01*
X330200Y185053D01*
X329402Y185043D01*
X328604Y185014D01*
X327807Y184965D01*
X327011Y184897D01*
X326218Y184809D01*
X325426Y184702D01*
X324638Y184576D01*
X323853Y184430D01*
X323072Y184265D01*
X322295Y184082D01*
X321522Y183879D01*
X320755Y183657D01*
X319994Y183417D01*
X319239Y183158D01*
X318490Y182881D01*
X317748Y182586D01*
X317014Y182272D01*
X316287Y181941D01*
X315569Y181592D01*
X314860Y181225D01*
X314160Y180842D01*
X313469Y180441D01*
X312788Y180023D01*
X312118Y179589D01*
X311459Y179139D01*
X310811Y178673D01*
X310174Y178191D01*
X309549Y177694D01*
X308937Y177181D01*
X308338Y176654D01*
X307751Y176112D01*
X307178Y175556D01*
X306619Y174986D01*
X306073Y174403D01*
X305543Y173806D01*
X305027Y173197D01*
X304526Y172575D01*
X304040Y171942D01*
X303570Y171296D01*
X303116Y170639D01*
X302678Y169972D01*
X302257Y169294D01*
X301852Y168605D01*
X301464Y167907D01*
X301094Y167200D01*
X300741Y166484D01*
X300405Y165760D01*
X300087Y165027D01*
X299788Y164287D01*
X299506Y163540D01*
X299243Y162786D01*
X298998Y162026D01*
X298772Y161260D01*
X298565Y160489D01*
X298376Y159713D01*
X298207Y158933D01*
X298057Y158149D01*
X297926Y157361D01*
X297814Y156570D01*
X297722Y155777D01*
X297649Y154982D01*
X297596Y154186D01*
X297562Y153388D01*
X297548Y152590D01*
X297553Y151791D01*
X297577Y150993D01*
X297621Y150196D01*
X297685Y149400D01*
X297768Y148606D01*
X297871Y147814D01*
X297992Y147025D01*
X298133Y146239D01*
X298294Y145457D01*
X298473Y144679D01*
X298671Y143905D01*
X298888Y143137D01*
X299124Y142374D01*
X299379Y141617D01*
X299652Y140867D01*
X299943Y140124D01*
X300252Y139387D01*
X300579Y138659D01*
X300924Y137939D01*
X301286Y137227D01*
X301666Y136525D01*
X302062Y135832D01*
X302476Y135149D01*
X302906Y134476D01*
X303352Y133814D01*
X303815Y133163D01*
X304293Y132524D01*
X304787Y131897D01*
X305296Y131281D01*
X305820Y130679D01*
X306358Y130089D01*
X306911Y129513D01*
X307477Y128950D01*
X308057Y128402D01*
X308651Y127867D01*
X309257Y127348D01*
X309876Y126843D01*
X310507Y126354D01*
X310651Y126546D01*
X310024Y127032D01*
X309410Y127533D01*
X308808Y128048D01*
X308219Y128579D01*
X307644Y129123D01*
X307081Y129682D01*
X306533Y130254D01*
X305998Y130839D01*
X305478Y131437D01*
X304973Y132048D01*
X304483Y132671D01*
X304008Y133305D01*
X303549Y133952D01*
X303106Y134609D01*
X302679Y135276D01*
X302269Y135955D01*
X301875Y136642D01*
X301498Y137340D01*
X301139Y138046D01*
X300796Y138761D01*
X300472Y139484D01*
X300165Y140214D01*
X299876Y140952D01*
X299605Y141697D01*
X299352Y142449D01*
X299118Y143206D01*
X298903Y143968D01*
X298706Y144736D01*
X298528Y145509D01*
X298369Y146285D01*
X298229Y147065D01*
X298108Y147848D01*
X298006Y148634D01*
X297924Y149423D01*
X297861Y150213D01*
X297817Y151004D01*
X297793Y151796D01*
X297788Y152589D01*
X297802Y153381D01*
X297836Y154173D01*
X297889Y154964D01*
X297961Y155753D01*
X298053Y156540D01*
X298163Y157325D01*
X298293Y158107D01*
X298442Y158885D01*
X298611Y159660D01*
X298797Y160430D01*
X299003Y161196D01*
X299228Y161956D01*
X299470Y162710D01*
X299732Y163458D01*
X300011Y164200D01*
X300309Y164935D01*
X300624Y165662D01*
X300957Y166381D01*
X301308Y167092D01*
X301676Y167794D01*
X302061Y168487D01*
X302462Y169170D01*
X302881Y169843D01*
X303315Y170506D01*
X303766Y171158D01*
X304233Y171798D01*
X304715Y172427D01*
X305212Y173045D01*
X305724Y173649D01*
X306251Y174241D01*
X306792Y174820D01*
X307347Y175386D01*
X307916Y175938D01*
X308498Y176476D01*
X309094Y176999D01*
X309701Y177508D01*
X310321Y178002D01*
X310953Y178480D01*
X311597Y178943D01*
X312251Y179390D01*
X312916Y179820D01*
X313592Y180235D01*
X314278Y180633D01*
X314973Y181013D01*
X315677Y181377D01*
X316390Y181724D01*
X317111Y182053D01*
X317840Y182364D01*
X318576Y182657D01*
X319319Y182932D01*
X320069Y183189D01*
X320825Y183428D01*
X321586Y183648D01*
X322353Y183849D01*
X323124Y184031D01*
X323900Y184195D01*
X324679Y184339D01*
X325462Y184465D01*
X326247Y184571D01*
X327035Y184658D01*
X327824Y184726D01*
X328615Y184774D01*
X329407Y184803D01*
X330200Y184813D01*
X330993Y184803D01*
X331785Y184774D01*
X332576Y184726D01*
X333365Y184658D01*
X334153Y184571D01*
X334938Y184465D01*
X335721Y184339D01*
X336500Y184195D01*
X337276Y184031D01*
X338047Y183849D01*
X338814Y183648D01*
X339575Y183428D01*
X340331Y183189D01*
X341081Y182932D01*
X341824Y182657D01*
X342560Y182364D01*
X343289Y182053D01*
X344010Y181724D01*
X344723Y181377D01*
X345427Y181013D01*
X346122Y180633D01*
X346808Y180235D01*
X347484Y179820D01*
X348149Y179390D01*
X348803Y178943D01*
X349447Y178480D01*
X350079Y178002D01*
X350699Y177508D01*
X351306Y176999D01*
X351902Y176476D01*
X352484Y175938D01*
X353053Y175386D01*
X353608Y174820D01*
X354149Y174241D01*
X354676Y173649D01*
X355188Y173045D01*
X355685Y172427D01*
X356167Y171798D01*
X356634Y171158D01*
X357085Y170506D01*
X357519Y169843D01*
X357938Y169170D01*
X358339Y168487D01*
X358724Y167794D01*
X359092Y167092D01*
X359443Y166381D01*
X359776Y165662D01*
X360091Y164935D01*
X360389Y164200D01*
X360668Y163458D01*
X360930Y162710D01*
X361172Y161956D01*
X361397Y161196D01*
X361603Y160430D01*
X361789Y159660D01*
X361958Y158885D01*
X362107Y158107D01*
X362237Y157325D01*
X362347Y156540D01*
X362439Y155753D01*
X362511Y154964D01*
X362564Y154173D01*
X362598Y153381D01*
X362612Y152589D01*
X362607Y151796D01*
X362583Y151004D01*
X362539Y150213D01*
X362476Y149423D01*
X362394Y148634D01*
X362292Y147848D01*
X362171Y147065D01*
X362031Y146285D01*
X361872Y145509D01*
X361694Y144736D01*
X361497Y143968D01*
X361282Y143206D01*
X361048Y142449D01*
X360795Y141697D01*
X360524Y140952D01*
X360235Y140214D01*
X359928Y139484D01*
X359604Y138761D01*
X359261Y138046D01*
X358902Y137340D01*
X358525Y136642D01*
X358131Y135955D01*
X357721Y135276D01*
X357294Y134609D01*
X356851Y133952D01*
X356392Y133305D01*
X355917Y132671D01*
X355427Y132048D01*
X354922Y131437D01*
X354402Y130839D01*
X353867Y130254D01*
X353319Y129682D01*
X352756Y129123D01*
X352181Y128579D01*
X351592Y128048D01*
X350990Y127533D01*
X350376Y127032D01*
X349749Y126546D01*
X349605Y126738D01*
X350227Y127220D01*
X350837Y127717D01*
X351434Y128229D01*
X352018Y128756D01*
X352590Y129296D01*
X353148Y129851D01*
X353693Y130418D01*
X354223Y130999D01*
X354739Y131593D01*
X355241Y132199D01*
X355727Y132818D01*
X356198Y133448D01*
X356654Y134089D01*
X357094Y134741D01*
X357517Y135404D01*
X357925Y136077D01*
X358316Y136760D01*
X358690Y137452D01*
X359046Y138153D01*
X359386Y138862D01*
X359708Y139580D01*
X360013Y140305D01*
X360300Y141038D01*
X360569Y141777D01*
X360819Y142523D01*
X361052Y143275D01*
X361266Y144032D01*
X361461Y144794D01*
X361638Y145560D01*
X361795Y146331D01*
X361934Y147105D01*
X362054Y147883D01*
X362155Y148663D01*
X362237Y149445D01*
X362300Y150230D01*
X362343Y151015D01*
X362367Y151801D01*
X362372Y152588D01*
X362358Y153375D01*
X362325Y154161D01*
X362272Y154945D01*
X362200Y155729D01*
X362109Y156510D01*
X361999Y157289D01*
X361870Y158065D01*
X361722Y158838D01*
X361555Y159607D01*
X361370Y160371D01*
X361166Y161131D01*
X360943Y161885D01*
X360702Y162634D01*
X360443Y163377D01*
X360165Y164113D01*
X359870Y164842D01*
X359557Y165564D01*
X359226Y166278D01*
X358878Y166983D01*
X358513Y167680D01*
X358131Y168368D01*
X357732Y169046D01*
X357317Y169714D01*
X356885Y170372D01*
X356438Y171019D01*
X355975Y171655D01*
X355496Y172279D01*
X355003Y172892D01*
X354494Y173492D01*
X353971Y174080D01*
X353434Y174655D01*
X352883Y175216D01*
X352319Y175764D01*
X351741Y176298D01*
X351150Y176817D01*
X350547Y177322D01*
X349931Y177812D01*
X349304Y178287D01*
X348665Y178746D01*
X348016Y179190D01*
X347355Y179618D01*
X346685Y180029D01*
X346004Y180424D01*
X345314Y180802D01*
X344615Y181163D01*
X343908Y181507D01*
X343192Y181833D01*
X342469Y182142D01*
X341738Y182433D01*
X341000Y182706D01*
X340256Y182961D01*
X339506Y183198D01*
X338750Y183416D01*
X337989Y183616D01*
X337223Y183797D01*
X336454Y183959D01*
X335680Y184103D01*
X334903Y184227D01*
X334124Y184333D01*
X333342Y184419D01*
X332558Y184486D01*
X331773Y184535D01*
X330987Y184563D01*
X330200Y184573D01*
X329413Y184563D01*
X328627Y184535D01*
X327842Y184486D01*
X327058Y184419D01*
X326276Y184333D01*
X325497Y184227D01*
X324720Y184103D01*
X323946Y183959D01*
X323177Y183797D01*
X322411Y183616D01*
X321650Y183416D01*
X320894Y183198D01*
X320144Y182961D01*
X319400Y182706D01*
X318662Y182433D01*
X317931Y182142D01*
X317208Y181833D01*
X316492Y181507D01*
X315785Y181163D01*
X315086Y180802D01*
X314396Y180424D01*
X313715Y180029D01*
X313045Y179618D01*
X312384Y179190D01*
X311735Y178746D01*
X311096Y178287D01*
X310469Y177812D01*
X309853Y177322D01*
X309250Y176817D01*
X308659Y176298D01*
X308081Y175764D01*
X307517Y175216D01*
X306966Y174655D01*
X306429Y174080D01*
X305906Y173492D01*
X305397Y172892D01*
X304904Y172279D01*
X304425Y171655D01*
X303962Y171019D01*
X303515Y170372D01*
X303083Y169714D01*
X302668Y169046D01*
X302269Y168368D01*
X301887Y167680D01*
X301522Y166983D01*
X301174Y166278D01*
X300843Y165564D01*
X300530Y164842D01*
X300235Y164113D01*
X299957Y163377D01*
X299698Y162634D01*
X299457Y161885D01*
X299234Y161131D01*
X299030Y160371D01*
X298845Y159607D01*
X298678Y158838D01*
X298530Y158065D01*
X298401Y157289D01*
X298291Y156510D01*
X298200Y155729D01*
X298128Y154945D01*
X298075Y154161D01*
X298042Y153375D01*
X298028Y152588D01*
X298033Y151801D01*
X298057Y151015D01*
X298100Y150230D01*
X298163Y149445D01*
X298245Y148663D01*
X298346Y147883D01*
X298466Y147105D01*
X298605Y146331D01*
X298762Y145560D01*
X298939Y144794D01*
X299134Y144032D01*
X299348Y143275D01*
X299581Y142523D01*
X299831Y141777D01*
X300100Y141038D01*
X300387Y140305D01*
X300692Y139580D01*
X301014Y138862D01*
X301354Y138153D01*
X301710Y137452D01*
X302084Y136760D01*
X302475Y136077D01*
X302883Y135404D01*
X303306Y134741D01*
X303746Y134089D01*
X304202Y133448D01*
X304673Y132818D01*
X305159Y132199D01*
X305661Y131593D01*
X306177Y130999D01*
X306707Y130418D01*
X307252Y129851D01*
X307810Y129296D01*
X308382Y128756D01*
X308966Y128229D01*
X309563Y127717D01*
X310173Y127220D01*
X310795Y126738D01*
X310939Y126930D01*
X310322Y127409D01*
X309717Y127902D01*
X309124Y128410D01*
X308544Y128933D01*
X307976Y129469D01*
X307422Y130019D01*
X306882Y130583D01*
X306355Y131160D01*
X305843Y131749D01*
X305346Y132351D01*
X304863Y132964D01*
X304395Y133590D01*
X303943Y134226D01*
X303507Y134874D01*
X303086Y135531D01*
X302682Y136199D01*
X302294Y136877D01*
X301923Y137564D01*
X301568Y138260D01*
X301231Y138964D01*
X300911Y139676D01*
X300609Y140396D01*
X300324Y141123D01*
X300058Y141857D01*
X299809Y142597D01*
X299578Y143343D01*
X299366Y144095D01*
X299172Y144851D01*
X298997Y145612D01*
X298840Y146377D01*
X298702Y147145D01*
X298583Y147917D01*
X298483Y148691D01*
X298402Y149468D01*
X298340Y150246D01*
X298297Y151026D01*
X298273Y151806D01*
X298268Y152587D01*
X298282Y153368D01*
X298315Y154148D01*
X298367Y154927D01*
X298438Y155705D01*
X298529Y156480D01*
X298638Y157253D01*
X298766Y158024D01*
X298913Y158790D01*
X299079Y159553D01*
X299263Y160312D01*
X299465Y161066D01*
X299687Y161815D01*
X299926Y162558D01*
X300183Y163295D01*
X300459Y164026D01*
X300752Y164750D01*
X301063Y165466D01*
X301391Y166175D01*
X301736Y166875D01*
X302099Y167566D01*
X302478Y168249D01*
X302874Y168922D01*
X303286Y169585D01*
X303714Y170238D01*
X304158Y170880D01*
X304618Y171512D01*
X305092Y172131D01*
X305582Y172739D01*
X306087Y173335D01*
X306606Y173918D01*
X307139Y174489D01*
X307686Y175046D01*
X308247Y175590D01*
X308820Y176120D01*
X309407Y176635D01*
X310005Y177136D01*
X310616Y177623D01*
X311239Y178094D01*
X311873Y178550D01*
X312517Y178990D01*
X313173Y179415D01*
X313838Y179823D01*
X314514Y180215D01*
X315199Y180590D01*
X315892Y180948D01*
X316594Y181290D01*
X317305Y181614D01*
X318023Y181920D01*
X318748Y182209D01*
X319481Y182480D01*
X320219Y182733D01*
X320964Y182968D01*
X321714Y183185D01*
X322469Y183383D01*
X323229Y183563D01*
X323993Y183724D01*
X324761Y183866D01*
X325532Y183990D01*
X326306Y184095D01*
X327082Y184180D01*
X327860Y184247D01*
X328639Y184295D01*
X329419Y184323D01*
X330200Y184333D01*
X330981Y184323D01*
X331761Y184295D01*
X332540Y184247D01*
X333318Y184180D01*
X334094Y184095D01*
X334868Y183990D01*
X335639Y183866D01*
X336407Y183724D01*
X337171Y183563D01*
X337931Y183383D01*
X338686Y183185D01*
X339436Y182968D01*
X340181Y182733D01*
X340919Y182480D01*
X341652Y182209D01*
X342377Y181920D01*
X343095Y181614D01*
X343806Y181290D01*
X344508Y180948D01*
X345201Y180590D01*
X345886Y180215D01*
X346562Y179823D01*
X347227Y179415D01*
X347883Y178990D01*
X348527Y178550D01*
X349161Y178094D01*
X349784Y177623D01*
X350395Y177136D01*
X350993Y176635D01*
X351580Y176120D01*
X352153Y175590D01*
X352714Y175046D01*
X353261Y174489D01*
X353794Y173918D01*
X354313Y173335D01*
X354818Y172739D01*
X355308Y172131D01*
X355782Y171512D01*
X356242Y170880D01*
X356686Y170238D01*
X357114Y169585D01*
X357526Y168922D01*
X357922Y168249D01*
X358301Y167566D01*
X358664Y166875D01*
X359009Y166175D01*
X359337Y165466D01*
X359648Y164750D01*
X359941Y164026D01*
X360217Y163295D01*
X360474Y162558D01*
X360713Y161815D01*
X360935Y161066D01*
X361137Y160312D01*
X361321Y159553D01*
X361487Y158790D01*
X361634Y158024D01*
X361762Y157253D01*
X361871Y156480D01*
X361962Y155705D01*
X362033Y154927D01*
X362085Y154148D01*
X362118Y153368D01*
X362132Y152587D01*
X362127Y151806D01*
X362103Y151026D01*
X362060Y150246D01*
X361998Y149468D01*
X361917Y148691D01*
X361817Y147917D01*
X361698Y147145D01*
X361560Y146377D01*
X361403Y145612D01*
X361228Y144851D01*
X361034Y144095D01*
X360822Y143343D01*
X360591Y142597D01*
X360342Y141857D01*
X360076Y141123D01*
X359791Y140396D01*
X359489Y139676D01*
X359169Y138964D01*
X358832Y138260D01*
X358477Y137564D01*
X358106Y136877D01*
X357718Y136199D01*
X357314Y135531D01*
X356893Y134874D01*
X356457Y134226D01*
X356005Y133590D01*
X355537Y132964D01*
X355054Y132351D01*
X354557Y131749D01*
X354045Y131160D01*
X353518Y130583D01*
X352978Y130019D01*
X352424Y129469D01*
X351856Y128933D01*
X351276Y128410D01*
X350683Y127902D01*
X350078Y127409D01*
X349461Y126930D01*
X349317Y127122D01*
X349930Y127597D01*
X350530Y128087D01*
X351118Y128591D01*
X351694Y129110D01*
X352257Y129642D01*
X352807Y130188D01*
X353343Y130748D01*
X353866Y131320D01*
X354374Y131905D01*
X354868Y132502D01*
X355347Y133111D01*
X355811Y133732D01*
X356260Y134363D01*
X356693Y135006D01*
X357111Y135659D01*
X357512Y136322D01*
X357897Y136994D01*
X358265Y137676D01*
X358617Y138367D01*
X358951Y139066D01*
X359269Y139773D01*
X359569Y140487D01*
X359851Y141209D01*
X360116Y141937D01*
X360363Y142672D01*
X360592Y143412D01*
X360802Y144158D01*
X360995Y144908D01*
X361169Y145664D01*
X361324Y146423D01*
X361461Y147186D01*
X361579Y147951D01*
X361679Y148720D01*
X361759Y149491D01*
X361821Y150263D01*
X361864Y151037D01*
X361888Y151811D01*
X361892Y152586D01*
X361878Y153361D01*
X361845Y154135D01*
X361794Y154909D01*
X361723Y155680D01*
X361633Y156450D01*
X361525Y157217D01*
X361398Y157982D01*
X361252Y158743D01*
X361087Y159500D01*
X360905Y160253D01*
X360703Y161002D01*
X360484Y161745D01*
X360246Y162482D01*
X359991Y163214D01*
X359718Y163939D01*
X359427Y164657D01*
X359118Y165368D01*
X358793Y166071D01*
X358450Y166766D01*
X358090Y167453D01*
X357714Y168130D01*
X357321Y168798D01*
X356912Y169456D01*
X356487Y170104D01*
X356046Y170742D01*
X355590Y171368D01*
X355119Y171983D01*
X354632Y172587D01*
X354132Y173178D01*
X353616Y173757D01*
X353087Y174323D01*
X352544Y174876D01*
X351988Y175416D01*
X351419Y175942D01*
X350837Y176453D01*
X350243Y176951D01*
X349636Y177433D01*
X349019Y177901D01*
X348390Y178354D01*
X347750Y178791D01*
X347099Y179212D01*
X346438Y179617D01*
X345768Y180006D01*
X345089Y180378D01*
X344400Y180734D01*
X343703Y181073D01*
X342998Y181394D01*
X342285Y181698D01*
X341565Y181985D01*
X340839Y182254D01*
X340106Y182505D01*
X339367Y182738D01*
X338622Y182953D01*
X337873Y183150D01*
X337118Y183329D01*
X336360Y183489D01*
X335598Y183630D01*
X334833Y183753D01*
X334065Y183856D01*
X333295Y183942D01*
X332523Y184008D01*
X331749Y184055D01*
X330975Y184084D01*
X330200Y184093D01*
X329425Y184084D01*
X328651Y184055D01*
X327877Y184008D01*
X327105Y183942D01*
X326335Y183856D01*
X325567Y183753D01*
X324802Y183630D01*
X324040Y183489D01*
X323282Y183329D01*
X322527Y183150D01*
X321778Y182953D01*
X321033Y182738D01*
X320294Y182505D01*
X319561Y182254D01*
X318835Y181985D01*
X318115Y181698D01*
X317402Y181394D01*
X316697Y181073D01*
X316000Y180734D01*
X315311Y180378D01*
X314632Y180006D01*
X313962Y179617D01*
X313301Y179212D01*
X312650Y178791D01*
X312010Y178354D01*
X311381Y177901D01*
X310764Y177433D01*
X310157Y176951D01*
X309563Y176453D01*
X308981Y175942D01*
X308412Y175416D01*
X307856Y174876D01*
X307313Y174323D01*
X306784Y173757D01*
X306268Y173178D01*
X305768Y172587D01*
X305281Y171983D01*
X304810Y171368D01*
X304354Y170742D01*
X303913Y170104D01*
X303488Y169456D01*
X303079Y168798D01*
X302686Y168130D01*
X302310Y167453D01*
X301950Y166766D01*
X301607Y166071D01*
X301282Y165368D01*
X300973Y164657D01*
X300682Y163939D01*
X300409Y163214D01*
X300154Y162482D01*
X299916Y161745D01*
X299697Y161002D01*
X299495Y160253D01*
X299313Y159500D01*
X299148Y158743D01*
X299002Y157982D01*
X298875Y157217D01*
X298767Y156450D01*
X298677Y155680D01*
X298606Y154909D01*
X298555Y154135D01*
X298522Y153361D01*
X298508Y152586D01*
X298512Y151811D01*
X298536Y151037D01*
X298579Y150263D01*
X298641Y149491D01*
X298721Y148720D01*
X298821Y147951D01*
X298939Y147186D01*
X299076Y146423D01*
X299231Y145664D01*
X299405Y144908D01*
X299598Y144158D01*
X299808Y143412D01*
X300037Y142672D01*
X300284Y141937D01*
X300549Y141209D01*
X300831Y140487D01*
X301131Y139773D01*
X301449Y139066D01*
X301783Y138367D01*
X302135Y137676D01*
X302503Y136994D01*
X302888Y136322D01*
X303289Y135659D01*
X303707Y135006D01*
X304140Y134363D01*
X304589Y133732D01*
X305053Y133111D01*
X305532Y132502D01*
X306026Y131905D01*
X306534Y131320D01*
X307057Y130748D01*
X307593Y130188D01*
X308143Y129642D01*
X308706Y129110D01*
X309282Y128591D01*
X309870Y128087D01*
X310470Y127597D01*
X311083Y127122D01*
X311227Y127314D01*
X310619Y127785D01*
X310023Y128271D01*
X309439Y128772D01*
X308868Y129287D01*
X308309Y129815D01*
X307763Y130357D01*
X307231Y130912D01*
X306713Y131480D01*
X306208Y132061D01*
X305718Y132653D01*
X305243Y133258D01*
X304782Y133874D01*
X304337Y134501D01*
X303907Y135138D01*
X303493Y135786D01*
X303095Y136444D01*
X302713Y137112D01*
X302347Y137788D01*
X301998Y138474D01*
X301666Y139167D01*
X301351Y139869D01*
X301053Y140578D01*
X300773Y141294D01*
X300510Y142017D01*
X300265Y142746D01*
X300038Y143481D01*
X299829Y144221D01*
X299638Y144966D01*
X299466Y145715D01*
X299311Y146469D01*
X299176Y147226D01*
X299058Y147986D01*
X298960Y148748D01*
X298880Y149513D01*
X298819Y150280D01*
X298776Y151048D01*
X298752Y151817D01*
X298748Y152586D01*
X298761Y153354D01*
X298794Y154123D01*
X298846Y154890D01*
X298916Y155656D01*
X299005Y156420D01*
X299113Y157181D01*
X299239Y157940D01*
X299383Y158695D01*
X299547Y159447D01*
X299728Y160194D01*
X299928Y160937D01*
X300145Y161674D01*
X300381Y162407D01*
X300635Y163133D01*
X300906Y163852D01*
X301195Y164565D01*
X301501Y165271D01*
X301824Y165968D01*
X302164Y166658D01*
X302521Y167339D01*
X302895Y168011D01*
X303285Y168674D01*
X303691Y169328D01*
X304112Y169971D01*
X304550Y170603D01*
X305003Y171225D01*
X305470Y171835D01*
X305953Y172434D01*
X306450Y173021D01*
X306961Y173595D01*
X307486Y174157D01*
X308025Y174706D01*
X308577Y175242D01*
X309142Y175763D01*
X309719Y176271D01*
X310309Y176765D01*
X310911Y177244D01*
X311524Y177708D01*
X312148Y178157D01*
X312784Y178591D01*
X313429Y179009D01*
X314085Y179411D01*
X314750Y179797D01*
X315424Y180166D01*
X316108Y180519D01*
X316799Y180855D01*
X317499Y181175D01*
X318206Y181477D01*
X318921Y181761D01*
X319642Y182028D01*
X320370Y182277D01*
X321103Y182509D01*
X321842Y182722D01*
X322586Y182917D01*
X323334Y183094D01*
X324087Y183253D01*
X324843Y183393D01*
X325602Y183515D01*
X326364Y183618D01*
X327129Y183703D01*
X327895Y183768D01*
X328662Y183815D01*
X329431Y183844D01*
X330200Y183853D01*
X330969Y183844D01*
X331738Y183815D01*
X332505Y183768D01*
X333271Y183703D01*
X334036Y183618D01*
X334798Y183515D01*
X335557Y183393D01*
X336313Y183253D01*
X337066Y183094D01*
X337814Y182917D01*
X338558Y182722D01*
X339297Y182509D01*
X340030Y182277D01*
X340758Y182028D01*
X341479Y181761D01*
X342194Y181477D01*
X342901Y181175D01*
X343601Y180855D01*
X344292Y180519D01*
X344976Y180166D01*
X345650Y179797D01*
X346315Y179411D01*
X346971Y179009D01*
X347616Y178591D01*
X348252Y178157D01*
X348876Y177708D01*
X349489Y177244D01*
X350091Y176765D01*
X350681Y176271D01*
X351258Y175763D01*
X351823Y175242D01*
X352375Y174706D01*
X352914Y174157D01*
X353439Y173595D01*
X353950Y173021D01*
X354447Y172434D01*
X354930Y171835D01*
X355397Y171225D01*
X355850Y170603D01*
X356288Y169971D01*
X356709Y169328D01*
X357115Y168674D01*
X357505Y168011D01*
X357879Y167339D01*
X358236Y166658D01*
X358576Y165968D01*
X358899Y165271D01*
X359205Y164565D01*
X359494Y163852D01*
X359765Y163133D01*
X360019Y162407D01*
X360255Y161674D01*
X360472Y160937D01*
X360672Y160194D01*
X360853Y159447D01*
X361017Y158695D01*
X361161Y157940D01*
X361287Y157181D01*
X361395Y156420D01*
X361484Y155656D01*
X361554Y154890D01*
X361606Y154123D01*
X361639Y153354D01*
X361652Y152586D01*
X361648Y151817D01*
X361624Y151048D01*
X361581Y150280D01*
X361520Y149513D01*
X361440Y148748D01*
X361342Y147986D01*
X361224Y147226D01*
X361089Y146469D01*
X360934Y145715D01*
X360762Y144966D01*
X360571Y144221D01*
X360362Y143481D01*
X360135Y142746D01*
X359890Y142017D01*
X359627Y141294D01*
X359347Y140578D01*
X359049Y139869D01*
X358734Y139167D01*
X358402Y138474D01*
X358053Y137788D01*
X357687Y137112D01*
X357305Y136444D01*
X356907Y135786D01*
X356493Y135138D01*
X356063Y134501D01*
X355618Y133874D01*
X355157Y133258D01*
X354682Y132653D01*
X354192Y132061D01*
X353687Y131480D01*
X353169Y130912D01*
X352637Y130357D01*
X352091Y129815D01*
X351532Y129287D01*
X350961Y128772D01*
X350377Y128271D01*
X349781Y127785D01*
X349173Y127314D01*
X349029Y127506D01*
X349632Y127974D01*
X350224Y128456D01*
X350803Y128953D01*
X351370Y129464D01*
X351925Y129988D01*
X352466Y130526D01*
X352994Y131077D01*
X353509Y131640D01*
X354009Y132217D01*
X354496Y132805D01*
X354967Y133405D01*
X355424Y134016D01*
X355866Y134638D01*
X356293Y135271D01*
X356704Y135914D01*
X357099Y136567D01*
X357478Y137229D01*
X357841Y137901D01*
X358187Y138581D01*
X358517Y139269D01*
X358829Y139965D01*
X359125Y140669D01*
X359403Y141380D01*
X359664Y142097D01*
X359907Y142820D01*
X360132Y143550D01*
X360339Y144284D01*
X360529Y145023D01*
X360700Y145767D01*
X360853Y146515D01*
X360988Y147266D01*
X361104Y148020D01*
X361202Y148777D01*
X361281Y149536D01*
X361342Y150297D01*
X361384Y151059D01*
X361408Y151822D01*
X361412Y152585D01*
X361399Y153348D01*
X361366Y154110D01*
X361315Y154872D01*
X361245Y155632D01*
X361157Y156390D01*
X361050Y157145D01*
X360925Y157898D01*
X360781Y158648D01*
X360619Y159394D01*
X360439Y160135D01*
X360241Y160872D01*
X360025Y161604D01*
X359791Y162331D01*
X359539Y163051D01*
X359270Y163765D01*
X358984Y164473D01*
X358680Y165173D01*
X358359Y165865D01*
X358022Y166550D01*
X357667Y167226D01*
X357297Y167893D01*
X356910Y168551D01*
X356507Y169199D01*
X356088Y169837D01*
X355654Y170465D01*
X355205Y171082D01*
X354741Y171687D01*
X354262Y172282D01*
X353769Y172864D01*
X353261Y173434D01*
X352740Y173992D01*
X352206Y174536D01*
X351658Y175068D01*
X351097Y175585D01*
X350524Y176089D01*
X349939Y176579D01*
X349342Y177055D01*
X348733Y177515D01*
X348114Y177961D01*
X347483Y178391D01*
X346843Y178806D01*
X346192Y179205D01*
X345532Y179588D01*
X344863Y179955D01*
X344185Y180305D01*
X343498Y180638D01*
X342804Y180955D01*
X342102Y181255D01*
X341393Y181537D01*
X340677Y181802D01*
X339955Y182049D01*
X339227Y182279D01*
X338494Y182491D01*
X337756Y182685D01*
X337013Y182860D01*
X336267Y183018D01*
X335516Y183157D01*
X334763Y183278D01*
X334006Y183380D01*
X333248Y183464D01*
X332488Y183529D01*
X331726Y183576D01*
X330963Y183604D01*
X330200Y183613D01*
X329437Y183604D01*
X328674Y183576D01*
X327912Y183529D01*
X327152Y183464D01*
X326394Y183380D01*
X325637Y183278D01*
X324884Y183157D01*
X324133Y183018D01*
X323387Y182860D01*
X322644Y182685D01*
X321906Y182491D01*
X321173Y182279D01*
X320445Y182049D01*
X319723Y181802D01*
X319007Y181537D01*
X318298Y181255D01*
X317596Y180955D01*
X316902Y180638D01*
X316215Y180305D01*
X315537Y179955D01*
X314868Y179588D01*
X314208Y179205D01*
X313557Y178806D01*
X312917Y178391D01*
X312286Y177961D01*
X311667Y177515D01*
X311058Y177055D01*
X310461Y176579D01*
X309876Y176089D01*
X309303Y175585D01*
X308742Y175068D01*
X308194Y174536D01*
X307660Y173992D01*
X307139Y173434D01*
X306631Y172864D01*
X306138Y172282D01*
X305659Y171687D01*
X305195Y171082D01*
X304746Y170465D01*
X304312Y169837D01*
X303893Y169199D01*
X303490Y168551D01*
X303103Y167893D01*
X302733Y167226D01*
X302378Y166550D01*
X302041Y165865D01*
X301720Y165173D01*
X301416Y164473D01*
X301130Y163765D01*
X300861Y163051D01*
X300609Y162331D01*
X300375Y161604D01*
X300159Y160872D01*
X299961Y160135D01*
X299781Y159394D01*
X299619Y158648D01*
X299475Y157898D01*
X299350Y157145D01*
X299243Y156390D01*
X299155Y155632D01*
X299085Y154872D01*
X299034Y154110D01*
X299001Y153348D01*
X298988Y152585D01*
X298992Y151822D01*
X299016Y151059D01*
X299058Y150297D01*
X299119Y149536D01*
X299198Y148777D01*
X299296Y148020D01*
X299412Y147266D01*
X299547Y146515D01*
X299700Y145767D01*
X299871Y145023D01*
X300061Y144284D01*
X300268Y143550D01*
X300493Y142820D01*
X300736Y142097D01*
X300997Y141380D01*
X301275Y140669D01*
X301571Y139965D01*
X301883Y139269D01*
X302213Y138581D01*
X302559Y137901D01*
X302922Y137229D01*
X303301Y136567D01*
X303696Y135914D01*
X304107Y135271D01*
X304534Y134638D01*
X304976Y134016D01*
X305433Y133405D01*
X305904Y132805D01*
X306391Y132217D01*
X306891Y131640D01*
X307406Y131077D01*
X307934Y130526D01*
X308475Y129988D01*
X309030Y129464D01*
X309597Y128953D01*
X310176Y128456D01*
X310768Y127974D01*
X311371Y127506D01*
X311515Y127698D01*
X310916Y128162D01*
X310330Y128641D01*
X309755Y129134D01*
X309192Y129641D01*
X308642Y130161D01*
X308105Y130695D01*
X307580Y131241D01*
X307070Y131801D01*
X306573Y132372D01*
X306091Y132956D01*
X305623Y133551D01*
X305169Y134158D01*
X304731Y134775D01*
X304307Y135403D01*
X303899Y136041D01*
X303507Y136689D01*
X303131Y137347D01*
X302771Y138013D01*
X302428Y138688D01*
X302101Y139371D01*
X301791Y140062D01*
X301497Y140760D01*
X301221Y141465D01*
X300963Y142177D01*
X300722Y142895D01*
X300498Y143618D01*
X300292Y144347D01*
X300104Y145081D01*
X299934Y145819D01*
X299782Y146561D01*
X299649Y147306D01*
X299533Y148054D01*
X299436Y148805D01*
X299358Y149559D01*
X299297Y150314D01*
X299256Y151070D01*
X299232Y151827D01*
X299228Y152584D01*
X299241Y153341D01*
X299274Y154098D01*
X299324Y154853D01*
X299394Y155607D01*
X299481Y156360D01*
X299587Y157110D01*
X299711Y157857D01*
X299854Y158600D01*
X300015Y159340D01*
X300193Y160076D01*
X300390Y160808D01*
X300604Y161534D01*
X300837Y162255D01*
X301086Y162970D01*
X301353Y163678D01*
X301638Y164380D01*
X301939Y165075D01*
X302258Y165762D01*
X302593Y166441D01*
X302944Y167112D01*
X303312Y167774D01*
X303696Y168427D01*
X304096Y169070D01*
X304511Y169703D01*
X304942Y170326D01*
X305387Y170938D01*
X305848Y171539D01*
X306323Y172129D01*
X306813Y172707D01*
X307316Y173273D01*
X307833Y173826D01*
X308364Y174366D01*
X308907Y174893D01*
X309464Y175407D01*
X310032Y175907D01*
X310613Y176393D01*
X311206Y176865D01*
X311809Y177322D01*
X312424Y177764D01*
X313050Y178191D01*
X313685Y178603D01*
X314331Y178999D01*
X314986Y179379D01*
X315650Y179743D01*
X316323Y180090D01*
X317004Y180421D01*
X317693Y180736D01*
X318390Y181033D01*
X319093Y181313D01*
X319803Y181576D01*
X320520Y181821D01*
X321242Y182049D01*
X321970Y182259D01*
X322702Y182452D01*
X323439Y182626D01*
X324180Y182782D01*
X324925Y182920D01*
X325672Y183040D01*
X326423Y183142D01*
X327176Y183225D01*
X327930Y183290D01*
X328686Y183336D01*
X329443Y183364D01*
X330200Y183373D01*
X330957Y183364D01*
X331714Y183336D01*
X332470Y183290D01*
X333224Y183225D01*
X333977Y183142D01*
X334728Y183040D01*
X335475Y182920D01*
X336220Y182782D01*
X336961Y182626D01*
X337698Y182452D01*
X338430Y182259D01*
X339158Y182049D01*
X339880Y181821D01*
X340597Y181576D01*
X341307Y181313D01*
X342010Y181033D01*
X342707Y180736D01*
X343396Y180421D01*
X344077Y180090D01*
X344750Y179743D01*
X345414Y179379D01*
X346069Y178999D01*
X346715Y178603D01*
X347350Y178191D01*
X347976Y177764D01*
X348591Y177322D01*
X349194Y176865D01*
X349787Y176393D01*
X350368Y175907D01*
X350936Y175407D01*
X351493Y174893D01*
X352036Y174366D01*
X352567Y173826D01*
X353084Y173273D01*
X353587Y172707D01*
X354077Y172129D01*
X354552Y171539D01*
X355013Y170938D01*
X355458Y170326D01*
X355889Y169703D01*
X356304Y169070D01*
X356704Y168427D01*
X357088Y167774D01*
X357456Y167112D01*
X357807Y166441D01*
X358142Y165762D01*
X358461Y165075D01*
X358762Y164380D01*
X359047Y163678D01*
X359314Y162970D01*
X359563Y162255D01*
X359796Y161534D01*
X360010Y160808D01*
X360207Y160076D01*
X360385Y159340D01*
X360546Y158600D01*
X360689Y157857D01*
X360813Y157110D01*
X360919Y156360D01*
X361006Y155607D01*
X361076Y154853D01*
X361126Y154098D01*
X361159Y153341D01*
X361172Y152584D01*
X361168Y151827D01*
X361144Y151070D01*
X361103Y150314D01*
X361042Y149559D01*
X360964Y148805D01*
X360867Y148054D01*
X360751Y147306D01*
X360618Y146561D01*
X360466Y145819D01*
X360296Y145081D01*
X360108Y144347D01*
X359902Y143618D01*
X359678Y142895D01*
X359437Y142177D01*
X359179Y141465D01*
X358903Y140760D01*
X358609Y140062D01*
X358299Y139371D01*
X357972Y138688D01*
X357629Y138013D01*
X357269Y137347D01*
X356893Y136689D01*
X356501Y136041D01*
X356093Y135403D01*
X355669Y134775D01*
X355231Y134158D01*
X354777Y133551D01*
X354309Y132956D01*
X353827Y132372D01*
X353330Y131801D01*
X352820Y131241D01*
X352295Y130695D01*
X351758Y130161D01*
X351208Y129641D01*
X350645Y129134D01*
X350070Y128641D01*
X349484Y128162D01*
X348885Y127698D01*
X348741Y127890D01*
X349335Y128351D01*
X349917Y128826D01*
X350488Y129315D01*
X351046Y129818D01*
X351592Y130334D01*
X352125Y130864D01*
X352645Y131406D01*
X353151Y131961D01*
X353644Y132528D01*
X354123Y133107D01*
X354588Y133698D01*
X355038Y134300D01*
X355473Y134913D01*
X355893Y135536D01*
X356297Y136169D01*
X356686Y136812D01*
X357059Y137464D01*
X357417Y138125D01*
X357757Y138795D01*
X358082Y139472D01*
X358390Y140158D01*
X358680Y140851D01*
X358954Y141551D01*
X359211Y142257D01*
X359450Y142969D01*
X359672Y143687D01*
X359876Y144410D01*
X360063Y145138D01*
X360231Y145870D01*
X360382Y146607D01*
X360515Y147346D01*
X360629Y148089D01*
X360725Y148834D01*
X360803Y149581D01*
X360863Y150330D01*
X360905Y151081D01*
X360928Y151832D01*
X360932Y152583D01*
X360919Y153334D01*
X360887Y154085D01*
X360836Y154835D01*
X360768Y155583D01*
X360681Y156330D01*
X360576Y157074D01*
X360452Y157815D01*
X360311Y158553D01*
X360151Y159287D01*
X359974Y160017D01*
X359779Y160743D01*
X359566Y161464D01*
X359336Y162179D01*
X359088Y162888D01*
X358823Y163591D01*
X358541Y164288D01*
X358242Y164977D01*
X357926Y165659D01*
X357593Y166333D01*
X357245Y166998D01*
X356880Y167655D01*
X356499Y168303D01*
X356102Y168941D01*
X355690Y169569D01*
X355262Y170187D01*
X354820Y170795D01*
X354363Y171391D01*
X353891Y171976D01*
X353406Y172550D01*
X352906Y173111D01*
X352393Y173660D01*
X351867Y174196D01*
X351327Y174719D01*
X350775Y175229D01*
X350211Y175725D01*
X349635Y176208D01*
X349047Y176676D01*
X348448Y177129D01*
X347838Y177568D01*
X347217Y177992D01*
X346586Y178400D01*
X345946Y178793D01*
X345296Y179170D01*
X344637Y179531D01*
X343969Y179876D01*
X343293Y180204D01*
X342610Y180516D01*
X341919Y180811D01*
X341221Y181089D01*
X340516Y181350D01*
X339805Y181593D01*
X339088Y181820D01*
X338367Y182028D01*
X337640Y182219D01*
X336909Y182392D01*
X336173Y182547D01*
X335434Y182684D01*
X334692Y182803D01*
X333948Y182904D01*
X333201Y182986D01*
X332452Y183050D01*
X331702Y183096D01*
X330951Y183124D01*
X330200Y183133D01*
X329449Y183124D01*
X328698Y183096D01*
X327948Y183050D01*
X327199Y182986D01*
X326452Y182904D01*
X325708Y182803D01*
X324966Y182684D01*
X324227Y182547D01*
X323491Y182392D01*
X322760Y182219D01*
X322033Y182028D01*
X321312Y181820D01*
X320595Y181593D01*
X319884Y181350D01*
X319179Y181089D01*
X318481Y180811D01*
X317790Y180516D01*
X317107Y180204D01*
X316431Y179876D01*
X315763Y179531D01*
X315104Y179170D01*
X314454Y178793D01*
X313814Y178400D01*
X313183Y177992D01*
X312562Y177568D01*
X311952Y177129D01*
X311353Y176676D01*
X310765Y176208D01*
X310189Y175725D01*
X309625Y175229D01*
X309073Y174719D01*
X308533Y174196D01*
X308007Y173660D01*
X307494Y173111D01*
X306994Y172550D01*
X306509Y171976D01*
X306037Y171391D01*
X305580Y170795D01*
X305138Y170187D01*
X304710Y169569D01*
X304298Y168941D01*
X303901Y168303D01*
X303520Y167655D01*
X303155Y166998D01*
X302807Y166333D01*
X302474Y165659D01*
X302158Y164977D01*
X301859Y164288D01*
X301577Y163591D01*
X301312Y162888D01*
X301064Y162179D01*
X300834Y161464D01*
X300621Y160743D01*
X300426Y160017D01*
X300249Y159287D01*
X300089Y158553D01*
X299948Y157815D01*
X299824Y157074D01*
X299719Y156330D01*
X299632Y155583D01*
X299564Y154835D01*
X299513Y154085D01*
X299481Y153334D01*
X299468Y152583D01*
X299472Y151832D01*
X299495Y151081D01*
X299537Y150330D01*
X299597Y149581D01*
X299675Y148834D01*
X299771Y148089D01*
X299885Y147346D01*
X300018Y146607D01*
X300169Y145870D01*
X300337Y145138D01*
X300524Y144410D01*
X300728Y143687D01*
X300950Y142969D01*
X301189Y142257D01*
X301446Y141551D01*
X301720Y140851D01*
X302010Y140158D01*
X302318Y139472D01*
X302643Y138795D01*
X302983Y138125D01*
X303341Y137464D01*
X303714Y136812D01*
X304103Y136169D01*
X304507Y135536D01*
X304927Y134913D01*
X305362Y134300D01*
X305812Y133698D01*
X306277Y133107D01*
X306756Y132528D01*
X307249Y131961D01*
X307755Y131406D01*
X308275Y130864D01*
X308808Y130334D01*
X309354Y129818D01*
X309912Y129315D01*
X310483Y128826D01*
X311065Y128351D01*
X311659Y127890D01*
D12*
X304800Y152400D02*
X304808Y153023D01*
X304831Y153646D01*
X304869Y154269D01*
X304922Y154890D01*
X304991Y155509D01*
X305075Y156127D01*
X305174Y156742D01*
X305288Y157355D01*
X305417Y157965D01*
X305561Y158572D01*
X305720Y159175D01*
X305894Y159773D01*
X306082Y160368D01*
X306285Y160957D01*
X306502Y161541D01*
X306733Y162120D01*
X306979Y162693D01*
X307239Y163260D01*
X307512Y163820D01*
X307799Y164373D01*
X308100Y164920D01*
X308414Y165458D01*
X308741Y165989D01*
X309081Y166511D01*
X309433Y167026D01*
X309799Y167531D01*
X310176Y168027D01*
X310566Y168514D01*
X310967Y168991D01*
X311380Y169458D01*
X311804Y169914D01*
X312239Y170361D01*
X312686Y170796D01*
X313142Y171220D01*
X313609Y171633D01*
X314086Y172034D01*
X314573Y172424D01*
X315069Y172801D01*
X315574Y173167D01*
X316089Y173519D01*
X316611Y173859D01*
X317142Y174186D01*
X317680Y174500D01*
X318227Y174801D01*
X318780Y175088D01*
X319340Y175361D01*
X319907Y175621D01*
X320480Y175867D01*
X321059Y176098D01*
X321643Y176315D01*
X322232Y176518D01*
X322827Y176706D01*
X323425Y176880D01*
X324028Y177039D01*
X324635Y177183D01*
X325245Y177312D01*
X325858Y177426D01*
X326473Y177525D01*
X327091Y177609D01*
X327710Y177678D01*
X328331Y177731D01*
X328954Y177769D01*
X329577Y177792D01*
X330200Y177800D01*
X330823Y177792D01*
X331446Y177769D01*
X332069Y177731D01*
X332690Y177678D01*
X333309Y177609D01*
X333927Y177525D01*
X334542Y177426D01*
X335155Y177312D01*
X335765Y177183D01*
X336372Y177039D01*
X336975Y176880D01*
X337573Y176706D01*
X338168Y176518D01*
X338757Y176315D01*
X339341Y176098D01*
X339920Y175867D01*
X340493Y175621D01*
X341060Y175361D01*
X341620Y175088D01*
X342173Y174801D01*
X342720Y174500D01*
X343258Y174186D01*
X343789Y173859D01*
X344311Y173519D01*
X344826Y173167D01*
X345331Y172801D01*
X345827Y172424D01*
X346314Y172034D01*
X346791Y171633D01*
X347258Y171220D01*
X347714Y170796D01*
X348161Y170361D01*
X348596Y169914D01*
X349020Y169458D01*
X349433Y168991D01*
X349834Y168514D01*
X350224Y168027D01*
X350601Y167531D01*
X350967Y167026D01*
X351319Y166511D01*
X351659Y165989D01*
X351986Y165458D01*
X352300Y164920D01*
X352601Y164373D01*
X352888Y163820D01*
X353161Y163260D01*
X353421Y162693D01*
X353667Y162120D01*
X353898Y161541D01*
X354115Y160957D01*
X354318Y160368D01*
X354506Y159773D01*
X354680Y159175D01*
X354839Y158572D01*
X354983Y157965D01*
X355112Y157355D01*
X355226Y156742D01*
X355325Y156127D01*
X355409Y155509D01*
X355478Y154890D01*
X355531Y154269D01*
X355569Y153646D01*
X355592Y153023D01*
X355600Y152400D01*
X355592Y151777D01*
X355569Y151154D01*
X355531Y150531D01*
X355478Y149910D01*
X355409Y149291D01*
X355325Y148673D01*
X355226Y148058D01*
X355112Y147445D01*
X354983Y146835D01*
X354839Y146228D01*
X354680Y145625D01*
X354506Y145027D01*
X354318Y144432D01*
X354115Y143843D01*
X353898Y143259D01*
X353667Y142680D01*
X353421Y142107D01*
X353161Y141540D01*
X352888Y140980D01*
X352601Y140427D01*
X352300Y139880D01*
X351986Y139342D01*
X351659Y138811D01*
X351319Y138289D01*
X350967Y137774D01*
X350601Y137269D01*
X350224Y136773D01*
X349834Y136286D01*
X349433Y135809D01*
X349020Y135342D01*
X348596Y134886D01*
X348161Y134439D01*
X347714Y134004D01*
X347258Y133580D01*
X346791Y133167D01*
X346314Y132766D01*
X345827Y132376D01*
X345331Y131999D01*
X344826Y131633D01*
X344311Y131281D01*
X343789Y130941D01*
X343258Y130614D01*
X342720Y130300D01*
X342173Y129999D01*
X341620Y129712D01*
X341060Y129439D01*
X340493Y129179D01*
X339920Y128933D01*
X339341Y128702D01*
X338757Y128485D01*
X338168Y128282D01*
X337573Y128094D01*
X336975Y127920D01*
X336372Y127761D01*
X335765Y127617D01*
X335155Y127488D01*
X334542Y127374D01*
X333927Y127275D01*
X333309Y127191D01*
X332690Y127122D01*
X332069Y127069D01*
X331446Y127031D01*
X330823Y127008D01*
X330200Y127000D01*
X329577Y127008D01*
X328954Y127031D01*
X328331Y127069D01*
X327710Y127122D01*
X327091Y127191D01*
X326473Y127275D01*
X325858Y127374D01*
X325245Y127488D01*
X324635Y127617D01*
X324028Y127761D01*
X323425Y127920D01*
X322827Y128094D01*
X322232Y128282D01*
X321643Y128485D01*
X321059Y128702D01*
X320480Y128933D01*
X319907Y129179D01*
X319340Y129439D01*
X318780Y129712D01*
X318227Y129999D01*
X317680Y130300D01*
X317142Y130614D01*
X316611Y130941D01*
X316089Y131281D01*
X315574Y131633D01*
X315069Y131999D01*
X314573Y132376D01*
X314086Y132766D01*
X313609Y133167D01*
X313142Y133580D01*
X312686Y134004D01*
X312239Y134439D01*
X311804Y134886D01*
X311380Y135342D01*
X310967Y135809D01*
X310566Y136286D01*
X310176Y136773D01*
X309799Y137269D01*
X309433Y137774D01*
X309081Y138289D01*
X308741Y138811D01*
X308414Y139342D01*
X308100Y139880D01*
X307799Y140427D01*
X307512Y140980D01*
X307239Y141540D01*
X306979Y142107D01*
X306733Y142680D01*
X306502Y143259D01*
X306285Y143843D01*
X306082Y144432D01*
X305894Y145027D01*
X305720Y145625D01*
X305561Y146228D01*
X305417Y146835D01*
X305288Y147445D01*
X305174Y148058D01*
X305075Y148673D01*
X304991Y149291D01*
X304922Y149910D01*
X304869Y150531D01*
X304831Y151154D01*
X304808Y151777D01*
X304800Y152400D01*
D13*
X364744Y148225D02*
X369570Y148225D01*
X364744Y148225D02*
X364744Y149565D01*
X364746Y149635D01*
X364751Y149705D01*
X364761Y149775D01*
X364773Y149844D01*
X364790Y149912D01*
X364810Y149979D01*
X364833Y150046D01*
X364860Y150110D01*
X364890Y150174D01*
X364924Y150236D01*
X364960Y150295D01*
X365000Y150353D01*
X365043Y150409D01*
X365088Y150462D01*
X365137Y150513D01*
X365188Y150562D01*
X365241Y150607D01*
X365297Y150650D01*
X365355Y150690D01*
X365415Y150726D01*
X365476Y150760D01*
X365540Y150790D01*
X365604Y150817D01*
X365671Y150840D01*
X365738Y150860D01*
X365806Y150877D01*
X365875Y150889D01*
X365945Y150899D01*
X366015Y150904D01*
X366085Y150906D01*
X368229Y150906D01*
X368299Y150904D01*
X368369Y150899D01*
X368439Y150889D01*
X368508Y150877D01*
X368576Y150860D01*
X368643Y150840D01*
X368710Y150817D01*
X368774Y150790D01*
X368838Y150760D01*
X368900Y150726D01*
X368959Y150690D01*
X369017Y150650D01*
X369073Y150607D01*
X369126Y150562D01*
X369177Y150513D01*
X369226Y150462D01*
X369271Y150409D01*
X369314Y150353D01*
X369354Y150295D01*
X369390Y150235D01*
X369424Y150174D01*
X369454Y150110D01*
X369481Y150046D01*
X369504Y149979D01*
X369524Y149912D01*
X369541Y149844D01*
X369553Y149775D01*
X369563Y149705D01*
X369568Y149635D01*
X369570Y149565D01*
X369570Y148225D01*
X364744Y155369D02*
X364746Y155437D01*
X364752Y155504D01*
X364761Y155571D01*
X364774Y155638D01*
X364791Y155703D01*
X364812Y155768D01*
X364836Y155831D01*
X364864Y155893D01*
X364895Y155953D01*
X364929Y156011D01*
X364967Y156067D01*
X365007Y156122D01*
X365051Y156173D01*
X365098Y156222D01*
X365147Y156269D01*
X365198Y156313D01*
X365253Y156353D01*
X365309Y156391D01*
X365367Y156425D01*
X365427Y156456D01*
X365489Y156484D01*
X365552Y156508D01*
X365617Y156529D01*
X365682Y156546D01*
X365749Y156559D01*
X365816Y156568D01*
X365883Y156574D01*
X365951Y156576D01*
X364744Y155369D02*
X364746Y155291D01*
X364752Y155213D01*
X364762Y155136D01*
X364775Y155059D01*
X364793Y154983D01*
X364814Y154908D01*
X364839Y154834D01*
X364868Y154762D01*
X364900Y154691D01*
X364936Y154622D01*
X364975Y154554D01*
X365018Y154489D01*
X365064Y154426D01*
X365113Y154365D01*
X365165Y154307D01*
X365220Y154252D01*
X365277Y154199D01*
X365337Y154150D01*
X365400Y154103D01*
X365465Y154060D01*
X365531Y154020D01*
X365600Y153983D01*
X365671Y153950D01*
X365743Y153920D01*
X365817Y153894D01*
X366889Y156173D02*
X366840Y156222D01*
X366788Y156269D01*
X366733Y156312D01*
X366676Y156353D01*
X366617Y156391D01*
X366556Y156425D01*
X366493Y156456D01*
X366429Y156484D01*
X366363Y156508D01*
X366297Y156528D01*
X366229Y156545D01*
X366160Y156558D01*
X366091Y156567D01*
X366021Y156573D01*
X365951Y156575D01*
X366889Y156173D02*
X369570Y153894D01*
X369570Y156575D01*
D10*
X385800Y931000D02*
X273800Y931000D01*
X385800Y931000D02*
X385800Y866000D01*
X385800Y856000D01*
X273800Y856000D01*
X273800Y866000D01*
X273800Y931000D01*
X273800Y866000D02*
X385800Y866000D01*
D13*
X294344Y916107D02*
X294344Y919861D01*
X294343Y916107D02*
X294341Y916042D01*
X294335Y915978D01*
X294325Y915914D01*
X294312Y915850D01*
X294294Y915788D01*
X294273Y915727D01*
X294249Y915667D01*
X294220Y915609D01*
X294188Y915552D01*
X294153Y915498D01*
X294115Y915446D01*
X294073Y915396D01*
X294029Y915349D01*
X293982Y915305D01*
X293932Y915263D01*
X293880Y915225D01*
X293826Y915190D01*
X293769Y915158D01*
X293711Y915129D01*
X293651Y915105D01*
X293590Y915084D01*
X293528Y915066D01*
X293464Y915053D01*
X293400Y915043D01*
X293336Y915037D01*
X293271Y915035D01*
X292735Y915035D01*
X297292Y918789D02*
X298632Y919861D01*
X298632Y915035D01*
X297292Y915035D02*
X299973Y915035D01*
D10*
X169000Y602500D02*
X169000Y490500D01*
X104000Y490500D01*
X94000Y490500D01*
X94000Y602500D01*
X104000Y602500D01*
X169000Y602500D01*
X104000Y602500D02*
X104000Y490500D01*
D13*
X153035Y577936D02*
X156789Y577936D01*
X156854Y577934D01*
X156918Y577928D01*
X156982Y577918D01*
X157046Y577905D01*
X157108Y577887D01*
X157169Y577866D01*
X157229Y577842D01*
X157287Y577813D01*
X157344Y577781D01*
X157398Y577746D01*
X157450Y577708D01*
X157500Y577666D01*
X157547Y577622D01*
X157591Y577575D01*
X157633Y577525D01*
X157671Y577473D01*
X157706Y577419D01*
X157738Y577362D01*
X157767Y577304D01*
X157791Y577244D01*
X157812Y577183D01*
X157830Y577121D01*
X157843Y577057D01*
X157853Y576993D01*
X157859Y576929D01*
X157861Y576864D01*
X157861Y576327D01*
X153035Y582358D02*
X153037Y582426D01*
X153043Y582493D01*
X153052Y582560D01*
X153065Y582627D01*
X153082Y582692D01*
X153103Y582757D01*
X153127Y582820D01*
X153155Y582882D01*
X153186Y582942D01*
X153220Y583000D01*
X153258Y583056D01*
X153298Y583111D01*
X153342Y583162D01*
X153389Y583211D01*
X153438Y583258D01*
X153489Y583302D01*
X153544Y583342D01*
X153600Y583380D01*
X153658Y583414D01*
X153718Y583445D01*
X153780Y583473D01*
X153843Y583497D01*
X153908Y583518D01*
X153973Y583535D01*
X154040Y583548D01*
X154107Y583557D01*
X154174Y583563D01*
X154242Y583565D01*
X153035Y582358D02*
X153037Y582280D01*
X153043Y582202D01*
X153053Y582125D01*
X153066Y582048D01*
X153084Y581972D01*
X153105Y581897D01*
X153130Y581823D01*
X153159Y581751D01*
X153191Y581680D01*
X153227Y581611D01*
X153266Y581543D01*
X153309Y581478D01*
X153355Y581415D01*
X153404Y581354D01*
X153456Y581296D01*
X153511Y581241D01*
X153568Y581188D01*
X153628Y581139D01*
X153691Y581092D01*
X153756Y581049D01*
X153822Y581009D01*
X153891Y580972D01*
X153962Y580939D01*
X154034Y580909D01*
X154108Y580883D01*
X155180Y583163D02*
X155131Y583212D01*
X155079Y583259D01*
X155024Y583302D01*
X154967Y583343D01*
X154908Y583381D01*
X154847Y583415D01*
X154784Y583446D01*
X154720Y583474D01*
X154654Y583498D01*
X154588Y583518D01*
X154520Y583535D01*
X154451Y583548D01*
X154382Y583557D01*
X154312Y583563D01*
X154242Y583565D01*
X155180Y583163D02*
X157861Y580884D01*
X157861Y583565D01*
D10*
X169000Y488200D02*
X169000Y376200D01*
X104000Y376200D01*
X94000Y376200D01*
X94000Y488200D01*
X104000Y488200D01*
X169000Y488200D01*
X104000Y488200D02*
X104000Y376200D01*
D13*
X153035Y463636D02*
X156789Y463636D01*
X156854Y463634D01*
X156918Y463628D01*
X156982Y463618D01*
X157046Y463605D01*
X157108Y463587D01*
X157169Y463566D01*
X157229Y463542D01*
X157287Y463513D01*
X157344Y463481D01*
X157398Y463446D01*
X157450Y463408D01*
X157500Y463366D01*
X157547Y463322D01*
X157591Y463275D01*
X157633Y463225D01*
X157671Y463173D01*
X157706Y463119D01*
X157738Y463062D01*
X157767Y463004D01*
X157791Y462944D01*
X157812Y462883D01*
X157830Y462821D01*
X157843Y462757D01*
X157853Y462693D01*
X157859Y462629D01*
X157861Y462564D01*
X157861Y462027D01*
X157861Y466584D02*
X157861Y467924D01*
X157859Y467995D01*
X157853Y468067D01*
X157844Y468137D01*
X157831Y468207D01*
X157814Y468277D01*
X157793Y468345D01*
X157769Y468412D01*
X157741Y468478D01*
X157710Y468542D01*
X157675Y468605D01*
X157637Y468665D01*
X157596Y468724D01*
X157552Y468780D01*
X157505Y468834D01*
X157456Y468885D01*
X157403Y468933D01*
X157348Y468979D01*
X157291Y469021D01*
X157231Y469061D01*
X157170Y469097D01*
X157106Y469130D01*
X157041Y469159D01*
X156975Y469185D01*
X156907Y469208D01*
X156838Y469227D01*
X156768Y469242D01*
X156698Y469253D01*
X156627Y469261D01*
X156556Y469265D01*
X156484Y469265D01*
X156413Y469261D01*
X156342Y469253D01*
X156272Y469242D01*
X156202Y469227D01*
X156133Y469208D01*
X156065Y469185D01*
X155999Y469159D01*
X155934Y469130D01*
X155870Y469097D01*
X155809Y469061D01*
X155749Y469021D01*
X155692Y468979D01*
X155637Y468933D01*
X155584Y468885D01*
X155535Y468834D01*
X155488Y468780D01*
X155444Y468724D01*
X155403Y468665D01*
X155365Y468605D01*
X155330Y468542D01*
X155299Y468478D01*
X155271Y468412D01*
X155247Y468345D01*
X155226Y468277D01*
X155209Y468207D01*
X155196Y468137D01*
X155187Y468067D01*
X155181Y467995D01*
X155179Y467924D01*
X153035Y468193D02*
X153035Y466584D01*
X153035Y468193D02*
X153037Y468258D01*
X153043Y468322D01*
X153053Y468386D01*
X153066Y468450D01*
X153084Y468512D01*
X153105Y468573D01*
X153129Y468633D01*
X153158Y468691D01*
X153190Y468748D01*
X153225Y468802D01*
X153263Y468854D01*
X153305Y468904D01*
X153349Y468951D01*
X153396Y468995D01*
X153446Y469037D01*
X153498Y469075D01*
X153552Y469110D01*
X153609Y469142D01*
X153667Y469171D01*
X153727Y469195D01*
X153788Y469216D01*
X153850Y469234D01*
X153914Y469247D01*
X153978Y469257D01*
X154042Y469263D01*
X154107Y469265D01*
X154172Y469263D01*
X154236Y469257D01*
X154300Y469247D01*
X154364Y469234D01*
X154426Y469216D01*
X154487Y469195D01*
X154547Y469171D01*
X154605Y469142D01*
X154662Y469110D01*
X154716Y469075D01*
X154768Y469037D01*
X154818Y468995D01*
X154865Y468951D01*
X154909Y468904D01*
X154951Y468854D01*
X154989Y468802D01*
X155024Y468748D01*
X155056Y468691D01*
X155085Y468633D01*
X155109Y468573D01*
X155130Y468512D01*
X155148Y468450D01*
X155161Y468386D01*
X155171Y468322D01*
X155177Y468258D01*
X155179Y468193D01*
X155180Y468193D02*
X155180Y467120D01*
D10*
X821600Y487400D02*
X821600Y375400D01*
X821600Y487400D02*
X886600Y487400D01*
X896600Y487400D01*
X896600Y375400D01*
X886600Y375400D01*
X821600Y375400D01*
X886600Y375400D02*
X886600Y487400D01*
D13*
X836493Y395944D02*
X832739Y395944D01*
X836493Y395943D02*
X836558Y395941D01*
X836622Y395935D01*
X836686Y395925D01*
X836750Y395912D01*
X836812Y395894D01*
X836873Y395873D01*
X836933Y395849D01*
X836991Y395820D01*
X837048Y395788D01*
X837102Y395753D01*
X837154Y395715D01*
X837204Y395673D01*
X837251Y395629D01*
X837295Y395582D01*
X837337Y395532D01*
X837375Y395480D01*
X837410Y395426D01*
X837442Y395369D01*
X837471Y395311D01*
X837495Y395251D01*
X837516Y395190D01*
X837534Y395128D01*
X837547Y395064D01*
X837557Y395000D01*
X837563Y394936D01*
X837565Y394871D01*
X837565Y394335D01*
X836493Y398892D02*
X832739Y399964D01*
X836493Y398892D02*
X836493Y401573D01*
X837565Y400768D02*
X835420Y400768D01*
D10*
X821600Y489700D02*
X821600Y601700D01*
X886600Y601700D01*
X896600Y601700D01*
X896600Y489700D01*
X886600Y489700D01*
X821600Y489700D01*
X886600Y489700D02*
X886600Y601700D01*
D13*
X836493Y510244D02*
X832739Y510244D01*
X836493Y510243D02*
X836558Y510241D01*
X836622Y510235D01*
X836686Y510225D01*
X836750Y510212D01*
X836812Y510194D01*
X836873Y510173D01*
X836933Y510149D01*
X836991Y510120D01*
X837048Y510088D01*
X837102Y510053D01*
X837154Y510015D01*
X837204Y509973D01*
X837251Y509929D01*
X837295Y509882D01*
X837337Y509832D01*
X837375Y509780D01*
X837410Y509726D01*
X837442Y509669D01*
X837471Y509611D01*
X837495Y509551D01*
X837516Y509490D01*
X837534Y509428D01*
X837547Y509364D01*
X837557Y509300D01*
X837563Y509236D01*
X837565Y509171D01*
X837565Y508635D01*
X837565Y513192D02*
X837565Y514800D01*
X837563Y514865D01*
X837557Y514929D01*
X837547Y514993D01*
X837534Y515057D01*
X837516Y515119D01*
X837495Y515180D01*
X837471Y515240D01*
X837442Y515298D01*
X837410Y515355D01*
X837375Y515409D01*
X837337Y515461D01*
X837295Y515511D01*
X837251Y515558D01*
X837204Y515602D01*
X837154Y515644D01*
X837102Y515682D01*
X837048Y515717D01*
X836991Y515749D01*
X836933Y515778D01*
X836873Y515802D01*
X836812Y515823D01*
X836750Y515841D01*
X836686Y515854D01*
X836622Y515864D01*
X836558Y515870D01*
X836493Y515872D01*
X836493Y515873D02*
X835956Y515873D01*
X835956Y515872D02*
X835891Y515870D01*
X835827Y515864D01*
X835763Y515854D01*
X835699Y515841D01*
X835637Y515823D01*
X835576Y515802D01*
X835516Y515778D01*
X835458Y515749D01*
X835401Y515717D01*
X835347Y515682D01*
X835295Y515644D01*
X835245Y515602D01*
X835198Y515558D01*
X835154Y515511D01*
X835112Y515461D01*
X835074Y515409D01*
X835039Y515355D01*
X835007Y515298D01*
X834978Y515240D01*
X834954Y515180D01*
X834933Y515119D01*
X834915Y515057D01*
X834902Y514993D01*
X834892Y514929D01*
X834886Y514865D01*
X834884Y514800D01*
X834884Y513192D01*
X832739Y513192D01*
X832739Y515873D01*
D10*
X589000Y931000D02*
X477000Y931000D01*
X589000Y931000D02*
X589000Y866000D01*
X589000Y856000D01*
X477000Y856000D01*
X477000Y866000D01*
X477000Y931000D01*
X477000Y866000D02*
X589000Y866000D01*
D13*
X497544Y916107D02*
X497544Y919861D01*
X497543Y916107D02*
X497541Y916042D01*
X497535Y915978D01*
X497525Y915914D01*
X497512Y915850D01*
X497494Y915788D01*
X497473Y915727D01*
X497449Y915667D01*
X497420Y915609D01*
X497388Y915552D01*
X497353Y915498D01*
X497315Y915446D01*
X497273Y915396D01*
X497229Y915349D01*
X497182Y915305D01*
X497132Y915263D01*
X497080Y915225D01*
X497026Y915190D01*
X496969Y915158D01*
X496911Y915129D01*
X496851Y915105D01*
X496790Y915084D01*
X496728Y915066D01*
X496664Y915053D01*
X496600Y915043D01*
X496536Y915037D01*
X496471Y915035D01*
X495935Y915035D01*
X500492Y917716D02*
X502100Y917716D01*
X502165Y917714D01*
X502229Y917708D01*
X502293Y917698D01*
X502357Y917685D01*
X502419Y917667D01*
X502480Y917646D01*
X502540Y917622D01*
X502598Y917593D01*
X502655Y917561D01*
X502709Y917526D01*
X502761Y917488D01*
X502811Y917446D01*
X502858Y917402D01*
X502902Y917355D01*
X502944Y917305D01*
X502982Y917253D01*
X503017Y917199D01*
X503049Y917142D01*
X503078Y917084D01*
X503102Y917024D01*
X503123Y916963D01*
X503141Y916901D01*
X503154Y916837D01*
X503164Y916773D01*
X503170Y916709D01*
X503172Y916644D01*
X503173Y916644D02*
X503173Y916376D01*
X503171Y916305D01*
X503165Y916233D01*
X503156Y916163D01*
X503143Y916093D01*
X503126Y916023D01*
X503105Y915955D01*
X503081Y915888D01*
X503053Y915822D01*
X503022Y915758D01*
X502987Y915695D01*
X502949Y915635D01*
X502908Y915576D01*
X502864Y915520D01*
X502817Y915466D01*
X502768Y915415D01*
X502715Y915367D01*
X502660Y915321D01*
X502603Y915279D01*
X502543Y915239D01*
X502482Y915203D01*
X502418Y915170D01*
X502353Y915141D01*
X502287Y915115D01*
X502219Y915092D01*
X502150Y915073D01*
X502080Y915058D01*
X502010Y915047D01*
X501939Y915039D01*
X501868Y915035D01*
X501796Y915035D01*
X501725Y915039D01*
X501654Y915047D01*
X501584Y915058D01*
X501514Y915073D01*
X501445Y915092D01*
X501377Y915115D01*
X501311Y915141D01*
X501246Y915170D01*
X501182Y915203D01*
X501121Y915239D01*
X501061Y915279D01*
X501004Y915321D01*
X500949Y915367D01*
X500896Y915415D01*
X500847Y915466D01*
X500800Y915520D01*
X500756Y915576D01*
X500715Y915635D01*
X500677Y915695D01*
X500642Y915758D01*
X500611Y915822D01*
X500583Y915888D01*
X500559Y915955D01*
X500538Y916023D01*
X500521Y916093D01*
X500508Y916163D01*
X500499Y916233D01*
X500493Y916305D01*
X500491Y916376D01*
X500492Y916376D02*
X500492Y917716D01*
X500494Y917807D01*
X500500Y917898D01*
X500509Y917988D01*
X500523Y918079D01*
X500540Y918168D01*
X500561Y918256D01*
X500586Y918344D01*
X500615Y918431D01*
X500647Y918516D01*
X500682Y918600D01*
X500722Y918682D01*
X500764Y918762D01*
X500810Y918841D01*
X500860Y918917D01*
X500912Y918991D01*
X500968Y919064D01*
X501027Y919133D01*
X501088Y919200D01*
X501153Y919265D01*
X501220Y919326D01*
X501289Y919385D01*
X501361Y919441D01*
X501436Y919493D01*
X501512Y919543D01*
X501591Y919589D01*
X501671Y919631D01*
X501753Y919671D01*
X501837Y919706D01*
X501922Y919738D01*
X502009Y919767D01*
X502096Y919792D01*
X502185Y919813D01*
X502274Y919830D01*
X502365Y919844D01*
X502455Y919853D01*
X502546Y919859D01*
X502637Y919861D01*
D10*
X591300Y931000D02*
X703300Y931000D01*
X703300Y866000D01*
X703300Y856000D01*
X591300Y856000D01*
X591300Y866000D01*
X591300Y931000D01*
X591300Y866000D02*
X703300Y866000D01*
D13*
X611844Y916107D02*
X611844Y919861D01*
X611843Y916107D02*
X611841Y916042D01*
X611835Y915978D01*
X611825Y915914D01*
X611812Y915850D01*
X611794Y915788D01*
X611773Y915727D01*
X611749Y915667D01*
X611720Y915609D01*
X611688Y915552D01*
X611653Y915498D01*
X611615Y915446D01*
X611573Y915396D01*
X611529Y915349D01*
X611482Y915305D01*
X611432Y915263D01*
X611380Y915225D01*
X611326Y915190D01*
X611269Y915158D01*
X611211Y915129D01*
X611151Y915105D01*
X611090Y915084D01*
X611028Y915066D01*
X610964Y915053D01*
X610900Y915043D01*
X610836Y915037D01*
X610771Y915035D01*
X610235Y915035D01*
X614792Y919325D02*
X614792Y919861D01*
X617473Y919861D01*
X616132Y915035D01*
D10*
X261620Y279400D02*
X261620Y228600D01*
X254000Y228600D01*
X246380Y228600D01*
X246380Y279400D01*
X254000Y279400D01*
X261620Y279400D01*
X254000Y228600D02*
X254000Y226060D01*
X254000Y279400D02*
X254000Y281940D01*
D13*
X264795Y249948D02*
X269621Y249948D01*
X264795Y249948D02*
X264795Y251289D01*
X264797Y251360D01*
X264803Y251432D01*
X264812Y251502D01*
X264825Y251572D01*
X264842Y251642D01*
X264863Y251710D01*
X264887Y251777D01*
X264915Y251843D01*
X264946Y251907D01*
X264981Y251970D01*
X265019Y252030D01*
X265060Y252089D01*
X265104Y252145D01*
X265151Y252199D01*
X265200Y252250D01*
X265253Y252298D01*
X265308Y252344D01*
X265365Y252386D01*
X265425Y252426D01*
X265486Y252462D01*
X265550Y252495D01*
X265615Y252524D01*
X265681Y252550D01*
X265749Y252573D01*
X265818Y252592D01*
X265888Y252607D01*
X265958Y252618D01*
X266029Y252626D01*
X266100Y252630D01*
X266172Y252630D01*
X266243Y252626D01*
X266314Y252618D01*
X266384Y252607D01*
X266454Y252592D01*
X266523Y252573D01*
X266591Y252550D01*
X266657Y252524D01*
X266722Y252495D01*
X266786Y252462D01*
X266847Y252426D01*
X266907Y252386D01*
X266964Y252344D01*
X267019Y252298D01*
X267072Y252250D01*
X267121Y252199D01*
X267168Y252145D01*
X267212Y252089D01*
X267253Y252030D01*
X267291Y251970D01*
X267326Y251907D01*
X267357Y251843D01*
X267385Y251777D01*
X267409Y251710D01*
X267430Y251642D01*
X267447Y251572D01*
X267460Y251502D01*
X267469Y251432D01*
X267475Y251360D01*
X267477Y251289D01*
X267476Y251289D02*
X267476Y249948D01*
X267476Y251557D02*
X269621Y252629D01*
X265867Y255371D02*
X264795Y256711D01*
X269621Y256711D01*
X269621Y255371D02*
X269621Y258052D01*
D10*
X337820Y279400D02*
X337820Y228600D01*
X330200Y228600D01*
X322580Y228600D01*
X322580Y279400D01*
X330200Y279400D01*
X337820Y279400D01*
X330200Y228600D02*
X330200Y226060D01*
X330200Y279400D02*
X330200Y281940D01*
D13*
X340995Y249948D02*
X345821Y249948D01*
X340995Y249948D02*
X340995Y251289D01*
X340997Y251360D01*
X341003Y251432D01*
X341012Y251502D01*
X341025Y251572D01*
X341042Y251642D01*
X341063Y251710D01*
X341087Y251777D01*
X341115Y251843D01*
X341146Y251907D01*
X341181Y251970D01*
X341219Y252030D01*
X341260Y252089D01*
X341304Y252145D01*
X341351Y252199D01*
X341400Y252250D01*
X341453Y252298D01*
X341508Y252344D01*
X341565Y252386D01*
X341625Y252426D01*
X341686Y252462D01*
X341750Y252495D01*
X341815Y252524D01*
X341881Y252550D01*
X341949Y252573D01*
X342018Y252592D01*
X342088Y252607D01*
X342158Y252618D01*
X342229Y252626D01*
X342300Y252630D01*
X342372Y252630D01*
X342443Y252626D01*
X342514Y252618D01*
X342584Y252607D01*
X342654Y252592D01*
X342723Y252573D01*
X342791Y252550D01*
X342857Y252524D01*
X342922Y252495D01*
X342986Y252462D01*
X343047Y252426D01*
X343107Y252386D01*
X343164Y252344D01*
X343219Y252298D01*
X343272Y252250D01*
X343321Y252199D01*
X343368Y252145D01*
X343412Y252089D01*
X343453Y252030D01*
X343491Y251970D01*
X343526Y251907D01*
X343557Y251843D01*
X343585Y251777D01*
X343609Y251710D01*
X343630Y251642D01*
X343647Y251572D01*
X343660Y251502D01*
X343669Y251432D01*
X343675Y251360D01*
X343677Y251289D01*
X343676Y251289D02*
X343676Y249948D01*
X343676Y251557D02*
X345821Y252629D01*
X340995Y256845D02*
X340997Y256913D01*
X341003Y256980D01*
X341012Y257047D01*
X341025Y257114D01*
X341042Y257179D01*
X341063Y257244D01*
X341087Y257307D01*
X341115Y257369D01*
X341146Y257429D01*
X341180Y257487D01*
X341218Y257543D01*
X341258Y257598D01*
X341302Y257649D01*
X341349Y257698D01*
X341398Y257745D01*
X341449Y257789D01*
X341504Y257829D01*
X341560Y257867D01*
X341618Y257901D01*
X341678Y257932D01*
X341740Y257960D01*
X341803Y257984D01*
X341868Y258005D01*
X341933Y258022D01*
X342000Y258035D01*
X342067Y258044D01*
X342134Y258050D01*
X342202Y258052D01*
X340995Y256845D02*
X340997Y256767D01*
X341003Y256689D01*
X341013Y256612D01*
X341026Y256535D01*
X341044Y256459D01*
X341065Y256384D01*
X341090Y256310D01*
X341119Y256238D01*
X341151Y256167D01*
X341187Y256098D01*
X341226Y256030D01*
X341269Y255965D01*
X341315Y255902D01*
X341364Y255841D01*
X341416Y255783D01*
X341471Y255728D01*
X341528Y255675D01*
X341588Y255626D01*
X341651Y255579D01*
X341716Y255536D01*
X341782Y255496D01*
X341851Y255459D01*
X341922Y255426D01*
X341994Y255396D01*
X342068Y255370D01*
X343140Y257650D02*
X343091Y257699D01*
X343039Y257746D01*
X342984Y257789D01*
X342927Y257830D01*
X342868Y257868D01*
X342807Y257902D01*
X342744Y257933D01*
X342680Y257961D01*
X342614Y257985D01*
X342548Y258005D01*
X342480Y258022D01*
X342411Y258035D01*
X342342Y258044D01*
X342272Y258050D01*
X342202Y258052D01*
X343140Y257650D02*
X345821Y255371D01*
X345821Y258052D01*
D14*
X392300Y559000D02*
X392302Y559063D01*
X392308Y559125D01*
X392318Y559187D01*
X392331Y559249D01*
X392349Y559309D01*
X392370Y559368D01*
X392395Y559426D01*
X392424Y559482D01*
X392456Y559536D01*
X392491Y559588D01*
X392529Y559637D01*
X392571Y559685D01*
X392615Y559729D01*
X392663Y559771D01*
X392712Y559809D01*
X392764Y559844D01*
X392818Y559876D01*
X392874Y559905D01*
X392932Y559930D01*
X392991Y559951D01*
X393051Y559969D01*
X393113Y559982D01*
X393175Y559992D01*
X393237Y559998D01*
X393300Y560000D01*
X393363Y559998D01*
X393425Y559992D01*
X393487Y559982D01*
X393549Y559969D01*
X393609Y559951D01*
X393668Y559930D01*
X393726Y559905D01*
X393782Y559876D01*
X393836Y559844D01*
X393888Y559809D01*
X393937Y559771D01*
X393985Y559729D01*
X394029Y559685D01*
X394071Y559637D01*
X394109Y559588D01*
X394144Y559536D01*
X394176Y559482D01*
X394205Y559426D01*
X394230Y559368D01*
X394251Y559309D01*
X394269Y559249D01*
X394282Y559187D01*
X394292Y559125D01*
X394298Y559063D01*
X394300Y559000D01*
X394298Y558937D01*
X394292Y558875D01*
X394282Y558813D01*
X394269Y558751D01*
X394251Y558691D01*
X394230Y558632D01*
X394205Y558574D01*
X394176Y558518D01*
X394144Y558464D01*
X394109Y558412D01*
X394071Y558363D01*
X394029Y558315D01*
X393985Y558271D01*
X393937Y558229D01*
X393888Y558191D01*
X393836Y558156D01*
X393782Y558124D01*
X393726Y558095D01*
X393668Y558070D01*
X393609Y558049D01*
X393549Y558031D01*
X393487Y558018D01*
X393425Y558008D01*
X393363Y558002D01*
X393300Y558000D01*
X393237Y558002D01*
X393175Y558008D01*
X393113Y558018D01*
X393051Y558031D01*
X392991Y558049D01*
X392932Y558070D01*
X392874Y558095D01*
X392818Y558124D01*
X392764Y558156D01*
X392712Y558191D01*
X392663Y558229D01*
X392615Y558271D01*
X392571Y558315D01*
X392529Y558363D01*
X392491Y558412D01*
X392456Y558464D01*
X392424Y558518D01*
X392395Y558574D01*
X392370Y558632D01*
X392349Y558691D01*
X392331Y558751D01*
X392318Y558813D01*
X392308Y558875D01*
X392302Y558937D01*
X392300Y559000D01*
D13*
X406400Y596900D02*
X584200Y596900D01*
X584200Y165100D01*
X406400Y165100D01*
X406400Y596900D01*
D12*
X408578Y600762D02*
X408578Y617018D01*
X413093Y617018D02*
X404062Y617018D01*
X419383Y609793D02*
X423899Y609793D01*
X423899Y609794D02*
X424032Y609792D01*
X424164Y609786D01*
X424296Y609776D01*
X424428Y609763D01*
X424560Y609745D01*
X424690Y609724D01*
X424821Y609699D01*
X424950Y609670D01*
X425078Y609637D01*
X425206Y609601D01*
X425332Y609561D01*
X425457Y609517D01*
X425581Y609469D01*
X425703Y609418D01*
X425824Y609363D01*
X425943Y609305D01*
X426061Y609243D01*
X426176Y609178D01*
X426290Y609109D01*
X426401Y609038D01*
X426510Y608962D01*
X426617Y608884D01*
X426722Y608803D01*
X426824Y608718D01*
X426924Y608631D01*
X427021Y608541D01*
X427116Y608448D01*
X427207Y608352D01*
X427296Y608254D01*
X427382Y608153D01*
X427465Y608049D01*
X427545Y607943D01*
X427621Y607835D01*
X427695Y607725D01*
X427765Y607612D01*
X427832Y607498D01*
X427895Y607381D01*
X427955Y607263D01*
X428012Y607143D01*
X428065Y607021D01*
X428114Y606898D01*
X428160Y606774D01*
X428202Y606648D01*
X428240Y606521D01*
X428275Y606393D01*
X428306Y606264D01*
X428333Y606135D01*
X428356Y606004D01*
X428376Y605873D01*
X428391Y605741D01*
X428403Y605609D01*
X428411Y605477D01*
X428415Y605344D01*
X428415Y605212D01*
X428411Y605079D01*
X428403Y604947D01*
X428391Y604815D01*
X428376Y604683D01*
X428356Y604552D01*
X428333Y604421D01*
X428306Y604292D01*
X428275Y604163D01*
X428240Y604035D01*
X428202Y603908D01*
X428160Y603782D01*
X428114Y603658D01*
X428065Y603535D01*
X428012Y603413D01*
X427955Y603293D01*
X427895Y603175D01*
X427832Y603058D01*
X427765Y602944D01*
X427695Y602831D01*
X427621Y602721D01*
X427545Y602613D01*
X427465Y602507D01*
X427382Y602403D01*
X427296Y602302D01*
X427207Y602204D01*
X427116Y602108D01*
X427021Y602015D01*
X426924Y601925D01*
X426824Y601838D01*
X426722Y601753D01*
X426617Y601672D01*
X426510Y601594D01*
X426401Y601518D01*
X426290Y601447D01*
X426176Y601378D01*
X426061Y601313D01*
X425943Y601251D01*
X425824Y601193D01*
X425703Y601138D01*
X425581Y601087D01*
X425457Y601039D01*
X425332Y600995D01*
X425206Y600955D01*
X425078Y600919D01*
X424950Y600886D01*
X424821Y600857D01*
X424690Y600832D01*
X424560Y600811D01*
X424428Y600793D01*
X424296Y600780D01*
X424164Y600770D01*
X424032Y600764D01*
X423899Y600762D01*
X419383Y600762D01*
X419383Y617018D01*
X423899Y617018D01*
X424018Y617016D01*
X424138Y617010D01*
X424257Y617000D01*
X424375Y616986D01*
X424494Y616969D01*
X424611Y616947D01*
X424728Y616922D01*
X424843Y616892D01*
X424958Y616859D01*
X425072Y616822D01*
X425184Y616782D01*
X425295Y616737D01*
X425404Y616689D01*
X425512Y616638D01*
X425618Y616583D01*
X425722Y616524D01*
X425824Y616462D01*
X425924Y616397D01*
X426022Y616328D01*
X426118Y616256D01*
X426211Y616181D01*
X426301Y616104D01*
X426389Y616023D01*
X426474Y615939D01*
X426556Y615852D01*
X426636Y615763D01*
X426712Y615671D01*
X426786Y615577D01*
X426856Y615480D01*
X426923Y615382D01*
X426987Y615281D01*
X427047Y615177D01*
X427104Y615072D01*
X427157Y614965D01*
X427207Y614857D01*
X427253Y614747D01*
X427295Y614635D01*
X427334Y614522D01*
X427369Y614408D01*
X427400Y614293D01*
X427428Y614176D01*
X427451Y614059D01*
X427471Y613942D01*
X427487Y613823D01*
X427499Y613704D01*
X427507Y613585D01*
X427511Y613466D01*
X427511Y613346D01*
X427507Y613227D01*
X427499Y613108D01*
X427487Y612989D01*
X427471Y612870D01*
X427451Y612753D01*
X427428Y612636D01*
X427400Y612519D01*
X427369Y612404D01*
X427334Y612290D01*
X427295Y612177D01*
X427253Y612065D01*
X427207Y611955D01*
X427157Y611847D01*
X427104Y611740D01*
X427047Y611635D01*
X426987Y611531D01*
X426923Y611430D01*
X426856Y611332D01*
X426786Y611235D01*
X426712Y611141D01*
X426636Y611049D01*
X426556Y610960D01*
X426474Y610873D01*
X426389Y610789D01*
X426301Y610708D01*
X426211Y610631D01*
X426118Y610556D01*
X426022Y610484D01*
X425924Y610415D01*
X425824Y610350D01*
X425722Y610288D01*
X425618Y610229D01*
X425512Y610174D01*
X425404Y610123D01*
X425295Y610075D01*
X425184Y610030D01*
X425072Y609990D01*
X424958Y609953D01*
X424843Y609920D01*
X424728Y609890D01*
X424611Y609865D01*
X424494Y609843D01*
X424375Y609826D01*
X424257Y609812D01*
X424138Y609802D01*
X424018Y609796D01*
X423899Y609794D01*
X434282Y613406D02*
X438798Y617018D01*
X438798Y600762D01*
X434282Y600762D02*
X443314Y600762D01*
D13*
X266700Y622300D02*
X266700Y832300D01*
X696700Y832300D01*
X696700Y622300D01*
X266700Y622300D01*
X342900Y381000D02*
X190500Y381000D01*
X190500Y584200D01*
X342900Y584200D01*
X342900Y381000D01*
D14*
X349700Y388100D02*
X349702Y388163D01*
X349708Y388225D01*
X349718Y388287D01*
X349731Y388349D01*
X349749Y388409D01*
X349770Y388468D01*
X349795Y388526D01*
X349824Y388582D01*
X349856Y388636D01*
X349891Y388688D01*
X349929Y388737D01*
X349971Y388785D01*
X350015Y388829D01*
X350063Y388871D01*
X350112Y388909D01*
X350164Y388944D01*
X350218Y388976D01*
X350274Y389005D01*
X350332Y389030D01*
X350391Y389051D01*
X350451Y389069D01*
X350513Y389082D01*
X350575Y389092D01*
X350637Y389098D01*
X350700Y389100D01*
X350763Y389098D01*
X350825Y389092D01*
X350887Y389082D01*
X350949Y389069D01*
X351009Y389051D01*
X351068Y389030D01*
X351126Y389005D01*
X351182Y388976D01*
X351236Y388944D01*
X351288Y388909D01*
X351337Y388871D01*
X351385Y388829D01*
X351429Y388785D01*
X351471Y388737D01*
X351509Y388688D01*
X351544Y388636D01*
X351576Y388582D01*
X351605Y388526D01*
X351630Y388468D01*
X351651Y388409D01*
X351669Y388349D01*
X351682Y388287D01*
X351692Y388225D01*
X351698Y388163D01*
X351700Y388100D01*
X351698Y388037D01*
X351692Y387975D01*
X351682Y387913D01*
X351669Y387851D01*
X351651Y387791D01*
X351630Y387732D01*
X351605Y387674D01*
X351576Y387618D01*
X351544Y387564D01*
X351509Y387512D01*
X351471Y387463D01*
X351429Y387415D01*
X351385Y387371D01*
X351337Y387329D01*
X351288Y387291D01*
X351236Y387256D01*
X351182Y387224D01*
X351126Y387195D01*
X351068Y387170D01*
X351009Y387149D01*
X350949Y387131D01*
X350887Y387118D01*
X350825Y387108D01*
X350763Y387102D01*
X350700Y387100D01*
X350637Y387102D01*
X350575Y387108D01*
X350513Y387118D01*
X350451Y387131D01*
X350391Y387149D01*
X350332Y387170D01*
X350274Y387195D01*
X350218Y387224D01*
X350164Y387256D01*
X350112Y387291D01*
X350063Y387329D01*
X350015Y387371D01*
X349971Y387415D01*
X349929Y387463D01*
X349891Y387512D01*
X349856Y387564D01*
X349824Y387618D01*
X349795Y387674D01*
X349770Y387732D01*
X349749Y387791D01*
X349731Y387851D01*
X349718Y387913D01*
X349708Y387975D01*
X349702Y388037D01*
X349700Y388100D01*
D15*
X325390Y377092D02*
X325390Y368654D01*
X325389Y368654D02*
X325391Y368541D01*
X325397Y368428D01*
X325407Y368315D01*
X325421Y368202D01*
X325438Y368090D01*
X325460Y367979D01*
X325485Y367869D01*
X325515Y367759D01*
X325548Y367651D01*
X325585Y367544D01*
X325625Y367438D01*
X325670Y367334D01*
X325718Y367231D01*
X325769Y367130D01*
X325824Y367031D01*
X325882Y366934D01*
X325944Y366839D01*
X326009Y366746D01*
X326077Y366656D01*
X326148Y366568D01*
X326223Y366482D01*
X326300Y366399D01*
X326380Y366319D01*
X326463Y366242D01*
X326549Y366167D01*
X326637Y366096D01*
X326727Y366028D01*
X326820Y365963D01*
X326915Y365901D01*
X327012Y365843D01*
X327111Y365788D01*
X327212Y365737D01*
X327315Y365689D01*
X327419Y365644D01*
X327525Y365604D01*
X327632Y365567D01*
X327740Y365534D01*
X327850Y365504D01*
X327960Y365479D01*
X328071Y365457D01*
X328183Y365440D01*
X328296Y365426D01*
X328409Y365416D01*
X328522Y365410D01*
X328635Y365408D01*
X328748Y365410D01*
X328861Y365416D01*
X328974Y365426D01*
X329087Y365440D01*
X329199Y365457D01*
X329310Y365479D01*
X329420Y365504D01*
X329530Y365534D01*
X329638Y365567D01*
X329745Y365604D01*
X329851Y365644D01*
X329955Y365689D01*
X330058Y365737D01*
X330159Y365788D01*
X330258Y365843D01*
X330355Y365901D01*
X330450Y365963D01*
X330543Y366028D01*
X330633Y366096D01*
X330721Y366167D01*
X330807Y366242D01*
X330890Y366319D01*
X330970Y366399D01*
X331047Y366482D01*
X331122Y366568D01*
X331193Y366656D01*
X331261Y366746D01*
X331326Y366839D01*
X331388Y366934D01*
X331446Y367031D01*
X331501Y367130D01*
X331552Y367231D01*
X331600Y367334D01*
X331645Y367438D01*
X331685Y367544D01*
X331722Y367651D01*
X331755Y367759D01*
X331785Y367869D01*
X331810Y367979D01*
X331832Y368090D01*
X331849Y368202D01*
X331863Y368315D01*
X331873Y368428D01*
X331879Y368541D01*
X331881Y368654D01*
X331881Y377092D01*
X337201Y374496D02*
X340446Y377092D01*
X340446Y365408D01*
X337201Y365408D02*
X343692Y365408D01*
D13*
X647700Y584200D02*
X800100Y584200D01*
X800100Y381000D01*
X647700Y381000D01*
X647700Y584200D01*
D14*
X638900Y577100D02*
X638902Y577163D01*
X638908Y577225D01*
X638918Y577287D01*
X638931Y577349D01*
X638949Y577409D01*
X638970Y577468D01*
X638995Y577526D01*
X639024Y577582D01*
X639056Y577636D01*
X639091Y577688D01*
X639129Y577737D01*
X639171Y577785D01*
X639215Y577829D01*
X639263Y577871D01*
X639312Y577909D01*
X639364Y577944D01*
X639418Y577976D01*
X639474Y578005D01*
X639532Y578030D01*
X639591Y578051D01*
X639651Y578069D01*
X639713Y578082D01*
X639775Y578092D01*
X639837Y578098D01*
X639900Y578100D01*
X639963Y578098D01*
X640025Y578092D01*
X640087Y578082D01*
X640149Y578069D01*
X640209Y578051D01*
X640268Y578030D01*
X640326Y578005D01*
X640382Y577976D01*
X640436Y577944D01*
X640488Y577909D01*
X640537Y577871D01*
X640585Y577829D01*
X640629Y577785D01*
X640671Y577737D01*
X640709Y577688D01*
X640744Y577636D01*
X640776Y577582D01*
X640805Y577526D01*
X640830Y577468D01*
X640851Y577409D01*
X640869Y577349D01*
X640882Y577287D01*
X640892Y577225D01*
X640898Y577163D01*
X640900Y577100D01*
X640898Y577037D01*
X640892Y576975D01*
X640882Y576913D01*
X640869Y576851D01*
X640851Y576791D01*
X640830Y576732D01*
X640805Y576674D01*
X640776Y576618D01*
X640744Y576564D01*
X640709Y576512D01*
X640671Y576463D01*
X640629Y576415D01*
X640585Y576371D01*
X640537Y576329D01*
X640488Y576291D01*
X640436Y576256D01*
X640382Y576224D01*
X640326Y576195D01*
X640268Y576170D01*
X640209Y576149D01*
X640149Y576131D01*
X640087Y576118D01*
X640025Y576108D01*
X639963Y576102D01*
X639900Y576100D01*
X639837Y576102D01*
X639775Y576108D01*
X639713Y576118D01*
X639651Y576131D01*
X639591Y576149D01*
X639532Y576170D01*
X639474Y576195D01*
X639418Y576224D01*
X639364Y576256D01*
X639312Y576291D01*
X639263Y576329D01*
X639215Y576371D01*
X639171Y576415D01*
X639129Y576463D01*
X639091Y576512D01*
X639056Y576564D01*
X639024Y576618D01*
X638995Y576674D01*
X638970Y576732D01*
X638949Y576791D01*
X638931Y576851D01*
X638918Y576913D01*
X638908Y576975D01*
X638902Y577037D01*
X638900Y577100D01*
D15*
X646908Y591354D02*
X646908Y599792D01*
X646908Y591354D02*
X646910Y591241D01*
X646916Y591128D01*
X646926Y591015D01*
X646940Y590902D01*
X646957Y590790D01*
X646979Y590679D01*
X647004Y590569D01*
X647034Y590459D01*
X647067Y590351D01*
X647104Y590244D01*
X647144Y590138D01*
X647189Y590034D01*
X647237Y589931D01*
X647288Y589830D01*
X647343Y589731D01*
X647401Y589634D01*
X647463Y589539D01*
X647528Y589446D01*
X647596Y589356D01*
X647667Y589268D01*
X647742Y589182D01*
X647819Y589099D01*
X647899Y589019D01*
X647982Y588942D01*
X648068Y588867D01*
X648156Y588796D01*
X648246Y588728D01*
X648339Y588663D01*
X648434Y588601D01*
X648531Y588543D01*
X648630Y588488D01*
X648731Y588437D01*
X648834Y588389D01*
X648938Y588344D01*
X649044Y588304D01*
X649151Y588267D01*
X649259Y588234D01*
X649369Y588204D01*
X649479Y588179D01*
X649590Y588157D01*
X649702Y588140D01*
X649815Y588126D01*
X649928Y588116D01*
X650041Y588110D01*
X650154Y588108D01*
X650267Y588110D01*
X650380Y588116D01*
X650493Y588126D01*
X650606Y588140D01*
X650718Y588157D01*
X650829Y588179D01*
X650939Y588204D01*
X651049Y588234D01*
X651157Y588267D01*
X651264Y588304D01*
X651370Y588344D01*
X651474Y588389D01*
X651577Y588437D01*
X651678Y588488D01*
X651777Y588543D01*
X651874Y588601D01*
X651969Y588663D01*
X652062Y588728D01*
X652152Y588796D01*
X652240Y588867D01*
X652326Y588942D01*
X652409Y589019D01*
X652489Y589099D01*
X652566Y589182D01*
X652641Y589268D01*
X652712Y589356D01*
X652780Y589446D01*
X652845Y589539D01*
X652907Y589634D01*
X652965Y589731D01*
X653020Y589830D01*
X653071Y589931D01*
X653119Y590034D01*
X653164Y590138D01*
X653204Y590244D01*
X653241Y590351D01*
X653274Y590459D01*
X653304Y590569D01*
X653329Y590679D01*
X653351Y590790D01*
X653368Y590902D01*
X653382Y591015D01*
X653392Y591128D01*
X653398Y591241D01*
X653400Y591354D01*
X653399Y591354D02*
X653399Y599792D01*
X662289Y599792D02*
X662396Y599790D01*
X662502Y599784D01*
X662608Y599774D01*
X662714Y599761D01*
X662820Y599743D01*
X662924Y599722D01*
X663028Y599697D01*
X663131Y599668D01*
X663232Y599636D01*
X663332Y599599D01*
X663431Y599559D01*
X663529Y599516D01*
X663625Y599469D01*
X663719Y599418D01*
X663811Y599364D01*
X663901Y599307D01*
X663989Y599247D01*
X664074Y599183D01*
X664157Y599116D01*
X664238Y599046D01*
X664316Y598974D01*
X664392Y598898D01*
X664464Y598820D01*
X664534Y598739D01*
X664601Y598656D01*
X664665Y598571D01*
X664725Y598483D01*
X664782Y598393D01*
X664836Y598301D01*
X664887Y598207D01*
X664934Y598111D01*
X664977Y598013D01*
X665017Y597914D01*
X665054Y597814D01*
X665086Y597713D01*
X665115Y597610D01*
X665140Y597506D01*
X665161Y597402D01*
X665179Y597296D01*
X665192Y597190D01*
X665202Y597084D01*
X665208Y596978D01*
X665210Y596871D01*
X662289Y599792D02*
X662168Y599790D01*
X662047Y599784D01*
X661927Y599774D01*
X661806Y599761D01*
X661687Y599743D01*
X661567Y599722D01*
X661449Y599697D01*
X661332Y599668D01*
X661215Y599635D01*
X661100Y599599D01*
X660986Y599558D01*
X660873Y599515D01*
X660761Y599467D01*
X660652Y599416D01*
X660544Y599361D01*
X660437Y599303D01*
X660333Y599242D01*
X660231Y599177D01*
X660131Y599109D01*
X660033Y599038D01*
X659937Y598964D01*
X659844Y598887D01*
X659754Y598806D01*
X659666Y598723D01*
X659581Y598637D01*
X659498Y598548D01*
X659419Y598457D01*
X659342Y598363D01*
X659269Y598267D01*
X659199Y598169D01*
X659132Y598068D01*
X659068Y597965D01*
X659008Y597860D01*
X658951Y597753D01*
X658897Y597645D01*
X658847Y597535D01*
X658801Y597423D01*
X658758Y597310D01*
X658719Y597195D01*
X664237Y594599D02*
X664316Y594676D01*
X664392Y594757D01*
X664465Y594840D01*
X664535Y594925D01*
X664602Y595013D01*
X664666Y595103D01*
X664726Y595195D01*
X664783Y595290D01*
X664837Y595386D01*
X664888Y595484D01*
X664935Y595584D01*
X664979Y595686D01*
X665019Y595789D01*
X665055Y595893D01*
X665087Y595999D01*
X665116Y596105D01*
X665141Y596213D01*
X665163Y596321D01*
X665180Y596431D01*
X665194Y596540D01*
X665203Y596650D01*
X665209Y596761D01*
X665211Y596871D01*
X664236Y594599D02*
X658719Y588108D01*
X665210Y588108D01*
D10*
X169000Y310400D02*
X169000Y198400D01*
X104000Y198400D01*
X94000Y198400D01*
X94000Y310400D01*
X104000Y310400D01*
X169000Y310400D01*
X104000Y310400D02*
X104000Y198400D01*
D13*
X153035Y285836D02*
X156789Y285836D01*
X156854Y285834D01*
X156918Y285828D01*
X156982Y285818D01*
X157046Y285805D01*
X157108Y285787D01*
X157169Y285766D01*
X157229Y285742D01*
X157287Y285713D01*
X157344Y285681D01*
X157398Y285646D01*
X157450Y285608D01*
X157500Y285566D01*
X157547Y285522D01*
X157591Y285475D01*
X157633Y285425D01*
X157671Y285373D01*
X157706Y285319D01*
X157738Y285262D01*
X157767Y285204D01*
X157791Y285144D01*
X157812Y285083D01*
X157830Y285021D01*
X157843Y284957D01*
X157853Y284893D01*
X157859Y284829D01*
X157861Y284764D01*
X157861Y284227D01*
X156520Y288783D02*
X156449Y288785D01*
X156377Y288791D01*
X156307Y288800D01*
X156237Y288813D01*
X156167Y288830D01*
X156099Y288851D01*
X156032Y288875D01*
X155966Y288903D01*
X155902Y288934D01*
X155839Y288969D01*
X155779Y289007D01*
X155720Y289048D01*
X155664Y289092D01*
X155610Y289139D01*
X155559Y289188D01*
X155511Y289241D01*
X155465Y289296D01*
X155423Y289353D01*
X155383Y289413D01*
X155347Y289474D01*
X155314Y289538D01*
X155285Y289603D01*
X155259Y289669D01*
X155236Y289737D01*
X155217Y289806D01*
X155202Y289876D01*
X155191Y289946D01*
X155183Y290017D01*
X155179Y290088D01*
X155179Y290160D01*
X155183Y290231D01*
X155191Y290302D01*
X155202Y290372D01*
X155217Y290442D01*
X155236Y290511D01*
X155259Y290579D01*
X155285Y290645D01*
X155314Y290710D01*
X155347Y290774D01*
X155383Y290835D01*
X155423Y290895D01*
X155465Y290952D01*
X155511Y291007D01*
X155559Y291060D01*
X155610Y291109D01*
X155664Y291156D01*
X155720Y291200D01*
X155779Y291241D01*
X155839Y291279D01*
X155902Y291314D01*
X155966Y291345D01*
X156032Y291373D01*
X156099Y291397D01*
X156167Y291418D01*
X156237Y291435D01*
X156307Y291448D01*
X156377Y291457D01*
X156449Y291463D01*
X156520Y291465D01*
X156591Y291463D01*
X156663Y291457D01*
X156733Y291448D01*
X156803Y291435D01*
X156873Y291418D01*
X156941Y291397D01*
X157008Y291373D01*
X157074Y291345D01*
X157138Y291314D01*
X157201Y291279D01*
X157261Y291241D01*
X157320Y291200D01*
X157376Y291156D01*
X157430Y291109D01*
X157481Y291060D01*
X157529Y291007D01*
X157575Y290952D01*
X157617Y290895D01*
X157657Y290835D01*
X157693Y290774D01*
X157726Y290710D01*
X157755Y290645D01*
X157781Y290579D01*
X157804Y290511D01*
X157823Y290442D01*
X157838Y290372D01*
X157849Y290302D01*
X157857Y290231D01*
X157861Y290160D01*
X157861Y290088D01*
X157857Y290017D01*
X157849Y289946D01*
X157838Y289876D01*
X157823Y289806D01*
X157804Y289737D01*
X157781Y289669D01*
X157755Y289603D01*
X157726Y289538D01*
X157693Y289474D01*
X157657Y289413D01*
X157617Y289353D01*
X157575Y289296D01*
X157529Y289241D01*
X157481Y289188D01*
X157430Y289139D01*
X157376Y289092D01*
X157320Y289048D01*
X157261Y289007D01*
X157201Y288969D01*
X157138Y288934D01*
X157074Y288903D01*
X157008Y288875D01*
X156941Y288851D01*
X156873Y288830D01*
X156803Y288813D01*
X156733Y288800D01*
X156663Y288791D01*
X156591Y288785D01*
X156520Y288783D01*
X154107Y289052D02*
X154042Y289054D01*
X153978Y289060D01*
X153914Y289070D01*
X153850Y289083D01*
X153788Y289101D01*
X153727Y289122D01*
X153667Y289146D01*
X153609Y289175D01*
X153552Y289207D01*
X153498Y289242D01*
X153446Y289280D01*
X153396Y289322D01*
X153349Y289366D01*
X153305Y289413D01*
X153263Y289463D01*
X153225Y289515D01*
X153190Y289569D01*
X153158Y289626D01*
X153129Y289684D01*
X153105Y289744D01*
X153084Y289805D01*
X153066Y289867D01*
X153053Y289931D01*
X153043Y289995D01*
X153037Y290059D01*
X153035Y290124D01*
X153037Y290189D01*
X153043Y290253D01*
X153053Y290317D01*
X153066Y290381D01*
X153084Y290443D01*
X153105Y290504D01*
X153129Y290564D01*
X153158Y290622D01*
X153190Y290679D01*
X153225Y290733D01*
X153263Y290785D01*
X153305Y290835D01*
X153349Y290882D01*
X153396Y290926D01*
X153446Y290968D01*
X153498Y291006D01*
X153552Y291041D01*
X153609Y291073D01*
X153667Y291102D01*
X153727Y291126D01*
X153788Y291147D01*
X153850Y291165D01*
X153914Y291178D01*
X153978Y291188D01*
X154042Y291194D01*
X154107Y291196D01*
X154172Y291194D01*
X154236Y291188D01*
X154300Y291178D01*
X154364Y291165D01*
X154426Y291147D01*
X154487Y291126D01*
X154547Y291102D01*
X154605Y291073D01*
X154662Y291041D01*
X154716Y291006D01*
X154768Y290968D01*
X154818Y290926D01*
X154865Y290882D01*
X154909Y290835D01*
X154951Y290785D01*
X154989Y290733D01*
X155024Y290679D01*
X155056Y290622D01*
X155085Y290564D01*
X155109Y290504D01*
X155130Y290443D01*
X155148Y290381D01*
X155161Y290317D01*
X155171Y290253D01*
X155177Y290189D01*
X155179Y290124D01*
X155177Y290059D01*
X155171Y289995D01*
X155161Y289931D01*
X155148Y289867D01*
X155130Y289805D01*
X155109Y289744D01*
X155085Y289684D01*
X155056Y289626D01*
X155024Y289569D01*
X154989Y289515D01*
X154951Y289463D01*
X154909Y289413D01*
X154865Y289366D01*
X154818Y289322D01*
X154768Y289280D01*
X154716Y289242D01*
X154662Y289207D01*
X154605Y289175D01*
X154547Y289146D01*
X154487Y289122D01*
X154426Y289101D01*
X154364Y289083D01*
X154300Y289070D01*
X154236Y289060D01*
X154172Y289054D01*
X154107Y289052D01*
D10*
X169000Y196100D02*
X169000Y84100D01*
X104000Y84100D01*
X94000Y84100D01*
X94000Y196100D01*
X104000Y196100D01*
X169000Y196100D01*
X104000Y196100D02*
X104000Y84100D01*
D13*
X153035Y171536D02*
X156789Y171536D01*
X156854Y171534D01*
X156918Y171528D01*
X156982Y171518D01*
X157046Y171505D01*
X157108Y171487D01*
X157169Y171466D01*
X157229Y171442D01*
X157287Y171413D01*
X157344Y171381D01*
X157398Y171346D01*
X157450Y171308D01*
X157500Y171266D01*
X157547Y171222D01*
X157591Y171175D01*
X157633Y171125D01*
X157671Y171073D01*
X157706Y171019D01*
X157738Y170962D01*
X157767Y170904D01*
X157791Y170844D01*
X157812Y170783D01*
X157830Y170721D01*
X157843Y170657D01*
X157853Y170593D01*
X157859Y170529D01*
X157861Y170464D01*
X157861Y169927D01*
X155716Y175556D02*
X155716Y177165D01*
X155716Y175556D02*
X155714Y175491D01*
X155708Y175427D01*
X155698Y175363D01*
X155685Y175299D01*
X155667Y175237D01*
X155646Y175176D01*
X155622Y175116D01*
X155593Y175058D01*
X155561Y175001D01*
X155526Y174947D01*
X155488Y174895D01*
X155446Y174845D01*
X155402Y174798D01*
X155355Y174754D01*
X155305Y174712D01*
X155253Y174674D01*
X155199Y174639D01*
X155142Y174607D01*
X155084Y174578D01*
X155024Y174554D01*
X154963Y174533D01*
X154901Y174515D01*
X154837Y174502D01*
X154773Y174492D01*
X154709Y174486D01*
X154644Y174484D01*
X154376Y174484D01*
X154376Y174483D02*
X154305Y174485D01*
X154233Y174491D01*
X154163Y174500D01*
X154093Y174513D01*
X154023Y174530D01*
X153955Y174551D01*
X153888Y174575D01*
X153822Y174603D01*
X153758Y174634D01*
X153695Y174669D01*
X153635Y174707D01*
X153576Y174748D01*
X153520Y174792D01*
X153466Y174839D01*
X153415Y174888D01*
X153367Y174941D01*
X153321Y174996D01*
X153279Y175053D01*
X153239Y175113D01*
X153203Y175174D01*
X153170Y175238D01*
X153141Y175303D01*
X153115Y175369D01*
X153092Y175437D01*
X153073Y175506D01*
X153058Y175576D01*
X153047Y175646D01*
X153039Y175717D01*
X153035Y175788D01*
X153035Y175860D01*
X153039Y175931D01*
X153047Y176002D01*
X153058Y176072D01*
X153073Y176142D01*
X153092Y176211D01*
X153115Y176279D01*
X153141Y176345D01*
X153170Y176410D01*
X153203Y176474D01*
X153239Y176535D01*
X153279Y176595D01*
X153321Y176652D01*
X153367Y176707D01*
X153415Y176760D01*
X153466Y176809D01*
X153520Y176856D01*
X153576Y176900D01*
X153635Y176941D01*
X153695Y176979D01*
X153758Y177014D01*
X153822Y177045D01*
X153888Y177073D01*
X153955Y177097D01*
X154023Y177118D01*
X154093Y177135D01*
X154163Y177148D01*
X154233Y177157D01*
X154305Y177163D01*
X154376Y177165D01*
X155716Y177165D01*
X155807Y177163D01*
X155898Y177157D01*
X155988Y177148D01*
X156079Y177134D01*
X156168Y177117D01*
X156256Y177096D01*
X156344Y177071D01*
X156431Y177042D01*
X156516Y177010D01*
X156600Y176975D01*
X156682Y176935D01*
X156762Y176893D01*
X156841Y176847D01*
X156917Y176797D01*
X156991Y176745D01*
X157064Y176689D01*
X157133Y176630D01*
X157200Y176569D01*
X157265Y176504D01*
X157326Y176437D01*
X157385Y176368D01*
X157441Y176295D01*
X157493Y176221D01*
X157543Y176145D01*
X157589Y176066D01*
X157631Y175986D01*
X157671Y175904D01*
X157706Y175820D01*
X157738Y175735D01*
X157767Y175648D01*
X157792Y175560D01*
X157813Y175472D01*
X157830Y175383D01*
X157844Y175292D01*
X157853Y175202D01*
X157859Y175111D01*
X157861Y175020D01*
D10*
X388100Y105500D02*
X500100Y105500D01*
X500100Y40500D01*
X500100Y30500D01*
X388100Y30500D01*
X388100Y40500D01*
X388100Y105500D01*
X388100Y40500D02*
X500100Y40500D01*
D13*
X408644Y90607D02*
X408644Y94361D01*
X408643Y90607D02*
X408641Y90542D01*
X408635Y90478D01*
X408625Y90414D01*
X408612Y90350D01*
X408594Y90288D01*
X408573Y90227D01*
X408549Y90167D01*
X408520Y90109D01*
X408488Y90052D01*
X408453Y89998D01*
X408415Y89946D01*
X408373Y89896D01*
X408329Y89849D01*
X408282Y89805D01*
X408232Y89763D01*
X408180Y89725D01*
X408126Y89690D01*
X408069Y89658D01*
X408011Y89629D01*
X407951Y89605D01*
X407890Y89584D01*
X407828Y89566D01*
X407764Y89553D01*
X407700Y89543D01*
X407636Y89537D01*
X407571Y89535D01*
X407035Y89535D01*
X411592Y93289D02*
X412932Y94361D01*
X412932Y89535D01*
X411592Y89535D02*
X414273Y89535D01*
X417078Y91948D02*
X417080Y92068D01*
X417085Y92188D01*
X417094Y92308D01*
X417107Y92428D01*
X417123Y92547D01*
X417143Y92666D01*
X417167Y92784D01*
X417194Y92901D01*
X417224Y93017D01*
X417258Y93132D01*
X417296Y93247D01*
X417337Y93360D01*
X417381Y93471D01*
X417429Y93582D01*
X417480Y93691D01*
X417501Y93748D01*
X417527Y93804D01*
X417555Y93859D01*
X417587Y93911D01*
X417623Y93962D01*
X417661Y94010D01*
X417702Y94056D01*
X417746Y94099D01*
X417792Y94139D01*
X417841Y94176D01*
X417893Y94210D01*
X417946Y94241D01*
X418001Y94269D01*
X418057Y94293D01*
X418115Y94314D01*
X418174Y94331D01*
X418234Y94344D01*
X418295Y94353D01*
X418357Y94359D01*
X418418Y94361D01*
X418479Y94359D01*
X418541Y94353D01*
X418602Y94344D01*
X418662Y94331D01*
X418721Y94314D01*
X418779Y94293D01*
X418835Y94269D01*
X418890Y94241D01*
X418943Y94210D01*
X418995Y94176D01*
X419044Y94139D01*
X419090Y94099D01*
X419134Y94056D01*
X419175Y94010D01*
X419213Y93962D01*
X419249Y93911D01*
X419281Y93859D01*
X419309Y93804D01*
X419335Y93748D01*
X419356Y93691D01*
X419357Y93691D02*
X419408Y93582D01*
X419456Y93471D01*
X419500Y93360D01*
X419541Y93247D01*
X419579Y93132D01*
X419613Y93017D01*
X419643Y92901D01*
X419670Y92784D01*
X419694Y92666D01*
X419714Y92547D01*
X419730Y92428D01*
X419743Y92308D01*
X419752Y92188D01*
X419757Y92068D01*
X419759Y91948D01*
X417078Y91948D02*
X417080Y91828D01*
X417085Y91708D01*
X417094Y91588D01*
X417107Y91468D01*
X417123Y91349D01*
X417143Y91230D01*
X417167Y91112D01*
X417194Y90995D01*
X417224Y90879D01*
X417258Y90764D01*
X417296Y90649D01*
X417337Y90536D01*
X417381Y90425D01*
X417429Y90314D01*
X417480Y90205D01*
X417501Y90148D01*
X417527Y90092D01*
X417555Y90037D01*
X417587Y89985D01*
X417623Y89934D01*
X417661Y89886D01*
X417702Y89840D01*
X417746Y89797D01*
X417792Y89757D01*
X417841Y89720D01*
X417893Y89686D01*
X417946Y89655D01*
X418001Y89627D01*
X418057Y89603D01*
X418115Y89582D01*
X418174Y89565D01*
X418234Y89552D01*
X418295Y89543D01*
X418357Y89537D01*
X418418Y89535D01*
X419357Y90205D02*
X419408Y90314D01*
X419456Y90425D01*
X419500Y90536D01*
X419541Y90649D01*
X419579Y90764D01*
X419613Y90879D01*
X419643Y90995D01*
X419670Y91112D01*
X419694Y91230D01*
X419714Y91349D01*
X419730Y91468D01*
X419743Y91588D01*
X419752Y91708D01*
X419757Y91828D01*
X419759Y91948D01*
X419356Y90205D02*
X419335Y90148D01*
X419309Y90092D01*
X419281Y90037D01*
X419249Y89985D01*
X419213Y89934D01*
X419175Y89886D01*
X419134Y89840D01*
X419090Y89797D01*
X419043Y89757D01*
X418995Y89720D01*
X418943Y89686D01*
X418890Y89655D01*
X418835Y89627D01*
X418779Y89603D01*
X418721Y89582D01*
X418662Y89565D01*
X418602Y89552D01*
X418541Y89543D01*
X418479Y89537D01*
X418418Y89535D01*
X417346Y90607D02*
X419491Y93289D01*
D10*
X502400Y105500D02*
X614400Y105500D01*
X614400Y40500D01*
X614400Y30500D01*
X502400Y30500D01*
X502400Y40500D01*
X502400Y105500D01*
X502400Y40500D02*
X614400Y40500D01*
D13*
X522944Y90607D02*
X522944Y94361D01*
X522943Y90607D02*
X522941Y90542D01*
X522935Y90478D01*
X522925Y90414D01*
X522912Y90350D01*
X522894Y90288D01*
X522873Y90227D01*
X522849Y90167D01*
X522820Y90109D01*
X522788Y90052D01*
X522753Y89998D01*
X522715Y89946D01*
X522673Y89896D01*
X522629Y89849D01*
X522582Y89805D01*
X522532Y89763D01*
X522480Y89725D01*
X522426Y89690D01*
X522369Y89658D01*
X522311Y89629D01*
X522251Y89605D01*
X522190Y89584D01*
X522128Y89566D01*
X522064Y89553D01*
X522000Y89543D01*
X521936Y89537D01*
X521871Y89535D01*
X521335Y89535D01*
X525892Y93289D02*
X527232Y94361D01*
X527232Y89535D01*
X525892Y89535D02*
X528573Y89535D01*
X531378Y93289D02*
X532718Y94361D01*
X532718Y89535D01*
X531378Y89535D02*
X534059Y89535D01*
D10*
X905600Y198400D02*
X905600Y310400D01*
X905600Y198400D02*
X840600Y198400D01*
X830600Y198400D01*
X830600Y310400D01*
X840600Y310400D01*
X905600Y310400D01*
X840600Y310400D02*
X840600Y198400D01*
D13*
X889635Y280350D02*
X893389Y280350D01*
X893389Y280349D02*
X893454Y280347D01*
X893518Y280341D01*
X893582Y280331D01*
X893646Y280318D01*
X893708Y280300D01*
X893769Y280279D01*
X893829Y280255D01*
X893887Y280226D01*
X893944Y280194D01*
X893998Y280159D01*
X894050Y280121D01*
X894100Y280079D01*
X894147Y280035D01*
X894191Y279988D01*
X894233Y279938D01*
X894271Y279886D01*
X894306Y279832D01*
X894338Y279775D01*
X894367Y279717D01*
X894391Y279657D01*
X894412Y279596D01*
X894430Y279534D01*
X894443Y279470D01*
X894453Y279406D01*
X894459Y279342D01*
X894461Y279277D01*
X894461Y278741D01*
X890707Y283298D02*
X889635Y284638D01*
X894461Y284638D01*
X894461Y283298D02*
X894461Y285979D01*
X889635Y290258D02*
X889637Y290326D01*
X889643Y290393D01*
X889652Y290460D01*
X889665Y290527D01*
X889682Y290592D01*
X889703Y290657D01*
X889727Y290720D01*
X889755Y290782D01*
X889786Y290842D01*
X889820Y290900D01*
X889858Y290956D01*
X889898Y291011D01*
X889942Y291062D01*
X889989Y291111D01*
X890038Y291158D01*
X890089Y291202D01*
X890144Y291242D01*
X890200Y291280D01*
X890258Y291314D01*
X890318Y291345D01*
X890380Y291373D01*
X890443Y291397D01*
X890508Y291418D01*
X890573Y291435D01*
X890640Y291448D01*
X890707Y291457D01*
X890774Y291463D01*
X890842Y291465D01*
X889635Y290258D02*
X889637Y290180D01*
X889643Y290102D01*
X889653Y290025D01*
X889666Y289948D01*
X889684Y289872D01*
X889705Y289797D01*
X889730Y289723D01*
X889759Y289651D01*
X889791Y289580D01*
X889827Y289511D01*
X889866Y289443D01*
X889909Y289378D01*
X889955Y289315D01*
X890004Y289254D01*
X890056Y289196D01*
X890111Y289141D01*
X890168Y289088D01*
X890228Y289039D01*
X890291Y288992D01*
X890356Y288949D01*
X890422Y288909D01*
X890491Y288872D01*
X890562Y288839D01*
X890634Y288809D01*
X890708Y288783D01*
X891780Y291063D02*
X891731Y291112D01*
X891679Y291159D01*
X891624Y291202D01*
X891567Y291243D01*
X891508Y291281D01*
X891447Y291315D01*
X891384Y291346D01*
X891320Y291374D01*
X891254Y291398D01*
X891188Y291418D01*
X891120Y291435D01*
X891051Y291448D01*
X890982Y291457D01*
X890912Y291463D01*
X890842Y291465D01*
X891780Y291063D02*
X894461Y288784D01*
X894461Y291465D01*
D10*
X905600Y196100D02*
X905600Y84100D01*
X840600Y84100D01*
X830600Y84100D01*
X830600Y196100D01*
X840600Y196100D01*
X905600Y196100D01*
X840600Y196100D02*
X840600Y84100D01*
D13*
X889635Y166050D02*
X893389Y166050D01*
X893389Y166049D02*
X893454Y166047D01*
X893518Y166041D01*
X893582Y166031D01*
X893646Y166018D01*
X893708Y166000D01*
X893769Y165979D01*
X893829Y165955D01*
X893887Y165926D01*
X893944Y165894D01*
X893998Y165859D01*
X894050Y165821D01*
X894100Y165779D01*
X894147Y165735D01*
X894191Y165688D01*
X894233Y165638D01*
X894271Y165586D01*
X894306Y165532D01*
X894338Y165475D01*
X894367Y165417D01*
X894391Y165357D01*
X894412Y165296D01*
X894430Y165234D01*
X894443Y165170D01*
X894453Y165106D01*
X894459Y165042D01*
X894461Y164977D01*
X894461Y164441D01*
X890707Y168998D02*
X889635Y170338D01*
X894461Y170338D01*
X894461Y168998D02*
X894461Y171679D01*
X894461Y174484D02*
X894461Y175824D01*
X894459Y175895D01*
X894453Y175967D01*
X894444Y176037D01*
X894431Y176107D01*
X894414Y176177D01*
X894393Y176245D01*
X894369Y176312D01*
X894341Y176378D01*
X894310Y176442D01*
X894275Y176505D01*
X894237Y176565D01*
X894196Y176624D01*
X894152Y176680D01*
X894105Y176734D01*
X894056Y176785D01*
X894003Y176833D01*
X893948Y176879D01*
X893891Y176921D01*
X893831Y176961D01*
X893770Y176997D01*
X893706Y177030D01*
X893641Y177059D01*
X893575Y177085D01*
X893507Y177108D01*
X893438Y177127D01*
X893368Y177142D01*
X893298Y177153D01*
X893227Y177161D01*
X893156Y177165D01*
X893084Y177165D01*
X893013Y177161D01*
X892942Y177153D01*
X892872Y177142D01*
X892802Y177127D01*
X892733Y177108D01*
X892665Y177085D01*
X892599Y177059D01*
X892534Y177030D01*
X892470Y176997D01*
X892409Y176961D01*
X892349Y176921D01*
X892292Y176879D01*
X892237Y176833D01*
X892184Y176785D01*
X892135Y176734D01*
X892088Y176680D01*
X892044Y176624D01*
X892003Y176565D01*
X891965Y176505D01*
X891930Y176442D01*
X891899Y176378D01*
X891871Y176312D01*
X891847Y176245D01*
X891826Y176177D01*
X891809Y176107D01*
X891796Y176037D01*
X891787Y175967D01*
X891781Y175895D01*
X891779Y175824D01*
X889635Y176093D02*
X889635Y174484D01*
X889635Y176093D02*
X889637Y176158D01*
X889643Y176222D01*
X889653Y176286D01*
X889666Y176350D01*
X889684Y176412D01*
X889705Y176473D01*
X889729Y176533D01*
X889758Y176591D01*
X889790Y176648D01*
X889825Y176702D01*
X889863Y176754D01*
X889905Y176804D01*
X889949Y176851D01*
X889996Y176895D01*
X890046Y176937D01*
X890098Y176975D01*
X890152Y177010D01*
X890209Y177042D01*
X890267Y177071D01*
X890327Y177095D01*
X890388Y177116D01*
X890450Y177134D01*
X890514Y177147D01*
X890578Y177157D01*
X890642Y177163D01*
X890707Y177165D01*
X890772Y177163D01*
X890836Y177157D01*
X890900Y177147D01*
X890964Y177134D01*
X891026Y177116D01*
X891087Y177095D01*
X891147Y177071D01*
X891205Y177042D01*
X891262Y177010D01*
X891316Y176975D01*
X891368Y176937D01*
X891418Y176895D01*
X891465Y176851D01*
X891509Y176804D01*
X891551Y176754D01*
X891589Y176702D01*
X891624Y176648D01*
X891656Y176591D01*
X891685Y176533D01*
X891709Y176473D01*
X891730Y176412D01*
X891748Y176350D01*
X891761Y176286D01*
X891771Y176222D01*
X891777Y176158D01*
X891779Y176093D01*
X891780Y176093D02*
X891780Y175020D01*
M02*
