M48
;GenerationSoftware,Autodesk,EAGLE,9.6.2*%
;CreationDate,2022-06-17T02:19:42Z*%
FMAT,2
ICI,OFF
METRIC,TZ,000.000
T6C0.079
T5C0.813
T4C0.900
T3C1.000
T2C1.020
T1C1.300
%
G90
M71
T1
X12700Y40720
X50800Y88900
X55800Y88900
X62230Y88900
X67230Y88900
X12700Y22940
X12700Y27940
X86360Y40640
X30480Y88900
X35480Y88900
X12700Y57150
X12700Y52150
X12700Y45720
X86360Y11510
X41910Y6350
X86360Y45640
X86360Y52070
X86360Y57070
X12700Y16510
X12700Y11510
X46910Y6350
X53340Y6350
X58340Y6350
X86360Y27940
X86360Y22940
X86360Y16510
T2
X33020Y57150
X20320Y57150
X20320Y54610
X20320Y52070
X20320Y49530
X20320Y46990
X20320Y44450
X20320Y41910
X20320Y39370
X66040Y57150
X66040Y52070
X66040Y49530
X66040Y46990
X66040Y44450
X66040Y41910
X66040Y39370
X78740Y39370
X78740Y41910
X78740Y44450
X78740Y46990
X78740Y52070
X78740Y57150
X33020Y46990
X33020Y44450
X78740Y49530
X33020Y41910
X33020Y39370
X66040Y54610
X33020Y52070
X33020Y49530
X33020Y54610
X78740Y54610
T3
X67670Y64230
X67670Y81230
X28670Y81230
X28670Y64230
T4
X41910Y50800
X41910Y48260
X41910Y45720
X41910Y43180
X41910Y40640
X41910Y38100
X41910Y35560
X41910Y33020
X41910Y30480
X41910Y27940
X41910Y25400
X41910Y20320
X57150Y20320
X57150Y22860
X57150Y25400
X57150Y27940
X57150Y30480
X57150Y33020
X57150Y35560
X57150Y38100
X41910Y22860
X57150Y40640
X57150Y43180
X57150Y45720
X41910Y55880
X57150Y50800
X57150Y53340
X57150Y55880
X25400Y29210
X57150Y48260
X25400Y21590
X33020Y29210
X33020Y21590
X41910Y53340
T5
X33020Y13970
X33020Y16510
X25400Y13970
X25400Y16510
T6
X5000Y5000
X5000Y95000
X95000Y95000
X95000Y5000
M30